<?xml version="1.0" encoding="UTF-8" standalone="no"?>
<!-- Created with Inkscape (http://www.inkscape.org/) -->

<svg
   xmlns:dc="http://purl.org/dc/elements/1.1/"
   xmlns:cc="http://creativecommons.org/ns#"
   xmlns:rdf="http://www.w3.org/1999/02/22-rdf-syntax-ns#"
   xmlns:svg="http://www.w3.org/2000/svg"
   xmlns="http://www.w3.org/2000/svg"
   xmlns:sodipodi="http://sodipodi.sourceforge.net/DTD/sodipodi-0.dtd"
   xmlns:inkscape="http://www.inkscape.org/namespaces/inkscape"
   width="744.09448819"
   height="1052.3622047"
   id="svg2"
   version="1.1"
   inkscape:version="0.48.5 r10040"
   sodipodi:docname="bcg.svg"
   inkscape:export-filename="D:\projects\bubblesurviver\css\bcg.png"
   inkscape:export-xdpi="90"
   inkscape:export-ydpi="90">
  <defs
     id="defs4">
    <filter
       inkscape:collect="always"
       id="filter6625"
       x="-1.1007858"
       width="3.2015716"
       y="-1.1219346"
       height="3.2438691">
      <feGaussianBlur
         inkscape:collect="always"
         stdDeviation="11.017046"
         id="feGaussianBlur6627" />
    </filter>
    <filter
       inkscape:collect="always"
       id="filter6629"
       x="-2.1180141"
       width="5.2360282"
       y="-2.1567939"
       height="5.3135878">
      <feGaussianBlur
         inkscape:collect="always"
         stdDeviation="11.017046"
         id="feGaussianBlur6631" />
    </filter>
    <filter
       inkscape:collect="always"
       id="filter6633"
       x="-1.3292699"
       width="3.6585398"
       y="-1.3214203"
       height="3.6428406">
      <feGaussianBlur
         inkscape:collect="always"
         stdDeviation="11.017046"
         id="feGaussianBlur6635" />
    </filter>
    <filter
       inkscape:collect="always"
       id="filter6637"
       x="-1.1180915"
       width="3.236183"
       y="-1.1143597"
       height="3.2287194">
      <feGaussianBlur
         inkscape:collect="always"
         stdDeviation="11.017046"
         id="feGaussianBlur6639" />
    </filter>
    <filter
       inkscape:collect="always"
       id="filter6641"
       x="-1.515832"
       width="4.0316641"
       y="-1.5041016"
       height="4.0082033">
      <feGaussianBlur
         inkscape:collect="always"
         stdDeviation="11.017046"
         id="feGaussianBlur6643" />
    </filter>
    <filter
       inkscape:collect="always"
       id="filter6645"
       x="-1.8625881"
       width="4.7251763"
       y="-1.8991706"
       height="4.7983412">
      <feGaussianBlur
         inkscape:collect="always"
         stdDeviation="11.017046"
         id="feGaussianBlur6647" />
    </filter>
    <filter
       inkscape:collect="always"
       id="filter6649"
       x="-1.8122015"
       width="4.6244029"
       y="-1.8605996"
       height="4.7211992">
      <feGaussianBlur
         inkscape:collect="always"
         stdDeviation="11.017046"
         id="feGaussianBlur6651" />
    </filter>
    <filter
       inkscape:collect="always"
       id="filter6653"
       x="-1.7061881"
       width="4.4123762"
       y="-1.619795"
       height="4.23959">
      <feGaussianBlur
         inkscape:collect="always"
         stdDeviation="11.017046"
         id="feGaussianBlur6655" />
    </filter>
    <filter
       inkscape:collect="always"
       id="filter6657"
       x="-6.9549793"
       width="14.909959"
       y="-6.9847714"
       height="14.969543">
      <feGaussianBlur
         inkscape:collect="always"
         stdDeviation="11.017046"
         id="feGaussianBlur6659" />
    </filter>
    <filter
       inkscape:collect="always"
       id="filter6661"
       x="-3.2504619"
       width="7.5009238"
       y="-3.2356186"
       height="7.4712372">
      <feGaussianBlur
         inkscape:collect="always"
         stdDeviation="11.017046"
         id="feGaussianBlur6663" />
    </filter>
    <filter
       inkscape:collect="always"
       id="filter6665"
       x="-3.2410974"
       width="7.4821948"
       y="-3.2527482"
       height="7.5054963">
      <feGaussianBlur
         inkscape:collect="always"
         stdDeviation="11.017046"
         id="feGaussianBlur6667" />
    </filter>
    <filter
       inkscape:collect="always"
       id="filter6669"
       x="-3.8441769"
       width="8.6883538"
       y="-3.8734071"
       height="8.7468143">
      <feGaussianBlur
         inkscape:collect="always"
         stdDeviation="11.017046"
         id="feGaussianBlur6671" />
    </filter>
    <filter
       inkscape:collect="always"
       id="filter6673"
       x="-3.6260797"
       width="8.2521595"
       y="-3.7119887"
       height="8.4239775">
      <feGaussianBlur
         inkscape:collect="always"
         stdDeviation="11.017046"
         id="feGaussianBlur6675" />
    </filter>
    <filter
       inkscape:collect="always"
       id="filter6677"
       x="-0.46741368"
       width="1.9348274"
       y="-0.46741368"
       height="1.9348274">
      <feGaussianBlur
         inkscape:collect="always"
         stdDeviation="11.017046"
         id="feGaussianBlur6679" />
    </filter>
    <filter
       inkscape:collect="always"
       id="filter6681"
       x="-0.63653952"
       width="2.273079"
       y="-0.63653952"
       height="2.273079">
      <feGaussianBlur
         inkscape:collect="always"
         stdDeviation="15.00338"
         id="feGaussianBlur6683" />
    </filter>
  </defs>
  <sodipodi:namedview
     id="base"
     pagecolor="#ffffff"
     bordercolor="#666666"
     borderopacity="1.0"
     inkscape:pageopacity="0.0"
     inkscape:pageshadow="2"
     inkscape:zoom="0.7"
     inkscape:cx="114.77744"
     inkscape:cy="675.59558"
     inkscape:document-units="px"
     inkscape:current-layer="layer1"
     showgrid="false"
     inkscape:window-width="1366"
     inkscape:window-height="706"
     inkscape:window-x="-8"
     inkscape:window-y="-8"
     inkscape:window-maximized="1" />
  <metadata
     id="metadata7">
    <rdf:RDF>
      <cc:Work
         rdf:about="">
        <dc:format>image/svg+xml</dc:format>
        <dc:type
           rdf:resource="http://purl.org/dc/dcmitype/StillImage" />
        <dc:title></dc:title>
      </cc:Work>
    </rdf:RDF>
  </metadata>
  <g
     inkscape:label="Layer 1"
     inkscape:groupmode="layer"
     id="layer1">
    <path
       style="fill:#294667;fill-opacity:0.93617021;stroke:none"
       d="m 42.714285,527.50504 0,-384.28571 328.571425,0 328.57143,0 0,384.28571 0,384.28567 -328.57143,0 -328.571425,0 0,-384.28567 z"
       id="path2987"
       inkscape:connector-curvature="0"
       inkscape:export-filename="D:\projects\bubblesurviver\css\bcg.png"
       inkscape:export-xdpi="90"
       inkscape:export-ydpi="90" />
    <path
       sodipodi:type="star"
       style="fill:#ffff00;fill-opacity:0.93617021000000000;stroke:none;filter:url(#filter6625)"
       id="path3770"
       sodipodi:sides="7"
       sodipodi:cx="135.71429"
       sodipodi:cy="300.93362"
       sodipodi:r1="12.289036"
       sodipodi:r2="8.0265017"
       sodipodi:arg1="2.5213432"
       sodipodi:arg2="2.9701422"
       inkscape:flatsided="false"
       inkscape:rounded="0.08"
       inkscape:randomized="0.006"
       d="m 125.74945,308.09 c -0.28272,-0.40193 2.14281,-5.26157 2.06145,-5.74564 -0.0814,-0.48407 -4.11124,-4.24295 -3.97307,-4.71528 0.13817,-0.47232 5.50865,-1.68734 5.83527,-2.0527 0.32662,-0.36536 0.8288,-5.76675 1.28013,-5.95997 0.45133,-0.19321 4.73947,3.21665 5.22912,3.24507 0.48965,0.0284 4.98933,-2.97052 5.42094,-2.73826 0.43162,0.23225 0.32603,5.71383 0.61306,6.11305 0.28704,0.39922 5.55719,2.15244 5.63696,2.63572 0.0798,0.48328 -4.28703,3.73089 -4.42534,4.20073 -0.13831,0.46985 1.81057,5.67385 1.48828,6.043 -0.32228,0.36915 -5.6542,-0.99166 -6.10836,-0.80663 -0.45416,0.18503 -3.26378,4.8907 -3.75421,4.86657 -0.49042,-0.0241 -2.76314,-4.92291 -3.1953,-5.15782 -0.43216,-0.23491 -5.8262,0.47409 -6.10893,0.0722 z"
       inkscape:transform-center-x="-0.0068733135"
       inkscape:transform-center-y="-0.0094745271"
       inkscape:export-filename="D:\projects\bubblesurviver\css\bcg.png"
       inkscape:export-xdpi="90"
       inkscape:export-ydpi="90" />
    <path
       sodipodi:type="star"
       style="fill:#ffff00;fill-opacity:0.93617021000000000;stroke:none;filter:url(#filter6629)"
       id="path3772"
       sodipodi:sides="7"
       sodipodi:cx="178.57143"
       sodipodi:cy="688.07647"
       sodipodi:r1="6.3887657"
       sodipodi:r2="4.1727795"
       sodipodi:arg1="1.1071487"
       sodipodi:arg2="1.5559477"
       inkscape:flatsided="false"
       inkscape:rounded="0.08"
       inkscape:randomized="0.006"
       d="m 181.43809,693.79802 c -0.2299,0.11273 -2.55006,-1.5809 -2.80521,-1.57939 -0.25516,0.002 -2.53026,1.79842 -2.76162,1.68899 -0.23136,-0.10943 -0.33011,-2.98797 -0.49388,-3.1847 -0.16378,-0.19674 -2.95036,-0.85813 -3.01263,-1.1062 -0.0623,-0.24808 2.09661,-2.16759 2.15179,-2.41652 0.0552,-0.24894 -1.14765,-2.83467 -0.98982,-3.03511 0.15783,-0.20043 2.94334,0.26171 3.17164,0.14804 0.22831,-0.11368 1.53756,-2.657 1.79231,-2.66006 0.25475,-0.003 1.61123,2.56506 1.84237,2.67275 0.23114,0.10769 2.99008,-0.49785 3.15159,-0.30097 0.16152,0.19688 -0.8898,2.80099 -0.83065,3.04902 0.0592,0.24803 2.24403,2.0666 2.19237,2.31635 -0.0517,0.24975 -2.81749,1.02158 -2.97369,1.22282 -0.1562,0.20125 -0.20466,3.07225 -0.43457,3.18498 z"
       inkscape:transform-center-x="-0.033915599"
       inkscape:transform-center-y="-0.29373528"
       inkscape:export-filename="D:\projects\bubblesurviver\css\bcg.png"
       inkscape:export-xdpi="90"
       inkscape:export-ydpi="90" />
    <path
       sodipodi:type="star"
       style="fill:#ffff00;fill-opacity:0.93617021000000000;stroke:none;filter:url(#filter6633)"
       id="path3774"
       sodipodi:sides="7"
       sodipodi:cx="470"
       sodipodi:cy="362.36218"
       sodipodi:r1="10.301575"
       sodipodi:r2="6.7284047"
       sodipodi:arg1="2.1587989"
       sodipodi:arg2="2.6075979"
       inkscape:flatsided="false"
       inkscape:rounded="0.08"
       inkscape:randomized="0.006"
       d="m 464.33703,370.90561 c -0.34333,-0.22583 0.12435,-4.7699 -0.0857,-5.1251 -0.21008,-0.35521 -4.5215,-2.11771 -4.56003,-2.52698 -0.0385,-0.40927 3.87168,-2.84334 4.01792,-3.22724 0.14624,-0.38389 -1.08142,-4.89896 -0.78317,-5.18403 0.29825,-0.28506 4.60135,1.25692 4.99143,1.12842 0.39007,-0.1285 3.11211,-3.83971 3.52092,-3.783 0.40882,0.0567 2.00577,4.29689 2.35107,4.52336 0.34529,0.22646 4.84652,0.0291 5.05235,0.3847 0.20582,0.35562 -2.14466,4.26885 -2.11288,4.67889 0.0318,0.41005 2.99661,3.82342 2.84797,4.20759 -0.14865,0.38417 -4.61671,0.96684 -4.91442,1.25033 -0.29771,0.28348 -1.16952,4.83288 -1.5623,4.96035 -0.39278,0.12747 -3.60916,-3.17359 -4.01771,-3.22833 -0.40855,-0.0547 -4.4021,2.16686 -4.74542,1.94104 z"
       inkscape:transform-center-x="0.36336507"
       inkscape:transform-center-y="-0.17041779"
       inkscape:export-filename="D:\projects\bubblesurviver\css\bcg.png"
       inkscape:export-xdpi="90"
       inkscape:export-ydpi="90" />
    <path
       sodipodi:type="star"
       style="fill:#ffff00;fill-opacity:0.93617021000000000;stroke:none;filter:url(#filter6637)"
       id="path3776"
       sodipodi:sides="7"
       sodipodi:cx="561.42857"
       sodipodi:cy="632.36218"
       sodipodi:r1="12.20572"
       sodipodi:r2="7.972084"
       sodipodi:arg1="0.35877067"
       sodipodi:arg2="0.80756962"
       inkscape:flatsided="false"
       inkscape:rounded="0.08"
       inkscape:randomized="0.006"
       d="m 572.89418,636.61835 c -0.175,0.45624 -5.67397,1.11378 -6.02732,1.45097 -0.35335,0.3372 -1.15295,5.7897 -1.61666,5.93721 -0.46372,0.14752 -4.35028,-3.69904 -4.83367,-3.76861 -0.48339,-0.0696 -5.37531,2.52635 -5.78114,2.25363 -0.40584,-0.27273 0.24472,-5.64101 -0.005,-6.0601 -0.2496,-0.41909 -5.33264,-2.54111 -5.3782,-3.02672 -0.0456,-0.48562 4.58237,-3.32826 4.75594,-3.78374 0.17358,-0.45547 -1.29652,-5.724 -0.94671,-6.06319 0.34981,-0.33919 5.50854,1.38225 5.97388,1.23406 0.46534,-0.14819 3.56305,-4.56909 4.04782,-4.50801 0.48476,0.0611 2.31209,5.19025 2.71775,5.46112 0.40566,0.27088 5.87306,-0.13301 6.12514,0.28531 0.25209,0.41832 -2.61595,5.07665 -2.57639,5.56307 0.0396,0.48642 3.71944,4.56877 3.54444,5.025 z"
       inkscape:transform-center-x="0.35248659"
       inkscape:transform-center-y="-0.21523776"
       inkscape:export-filename="D:\projects\bubblesurviver\css\bcg.png"
       inkscape:export-xdpi="90"
       inkscape:export-ydpi="90" />
    <path
       sodipodi:type="star"
       style="fill:#ffff00;fill-opacity:0.93617021000000000;stroke:none;filter:url(#filter6641)"
       id="path3778"
       sodipodi:sides="7"
       sodipodi:cx="464.28571"
       sodipodi:cy="885.21933"
       sodipodi:r1="9.035079"
       sodipodi:r2="5.9012012"
       sodipodi:arg1="1.8925469"
       sodipodi:arg2="2.3413458"
       inkscape:flatsided="false"
       inkscape:rounded="0.08"
       inkscape:randomized="0.006"
       d="m 461.39973,893.8023 c -0.34253,-0.11471 -0.93673,-4.05972 -1.19677,-4.3099 -0.26004,-0.25018 -4.23977,-0.86174 -4.3653,-1.20134 -0.12552,-0.33961 2.59204,-3.32364 2.62436,-3.68313 0.0323,-0.35948 -2.06853,-3.77343 -1.88068,-4.08105 0.18784,-0.30763 4.1931,-0.10406 4.49674,-0.29849 0.30365,-0.19444 1.66259,-3.95241 2.0209,-4.00132 0.35831,-0.0489 2.74854,3.31682 3.09168,3.43113 0.34314,0.11431 4.13937,-1.15804 4.39631,-0.90519 0.25693,0.25285 -0.85212,4.12374 -0.72692,4.46206 0.12521,0.33832 3.45203,2.54304 3.41628,2.90294 -0.0358,0.3599 -3.78658,1.83924 -3.97446,2.14883 -0.18789,0.30959 0.2539,4.27852 -0.0489,4.47708 -0.30277,0.19857 -3.87201,-1.69805 -4.23015,-1.65393 -0.35813,0.0441 -3.2806,2.82701 -3.62312,2.71231 z"
       inkscape:transform-center-x="-0.26932258"
       inkscape:transform-center-y="-0.20321525"
       inkscape:export-filename="D:\projects\bubblesurviver\css\bcg.png"
       inkscape:export-xdpi="90"
       inkscape:export-ydpi="90" />
    <path
       sodipodi:type="star"
       style="fill:#ffff00;fill-opacity:0.93617021000000000;stroke:none;filter:url(#filter6645)"
       id="path3780"
       sodipodi:sides="7"
       sodipodi:cx="621.42857"
       sodipodi:cy="200.93361"
       sodipodi:r1="7.2843136"
       sodipodi:r2="4.7577005"
       sodipodi:arg1="0.19739556"
       sodipodi:arg2="0.64619451"
       inkscape:flatsided="false"
       inkscape:rounded="0.08"
       inkscape:randomized="0.006"
       d="m 628.54856,202.39516 c -0.0581,0.2855 -3.15777,1.17035 -3.33251,1.40219 -0.17474,0.23185 -0.19853,3.43692 -0.4585,3.56932 -0.25996,0.1324 -2.87593,-1.71367 -3.16726,-1.70662 -0.29134,0.007 -2.87657,2.05894 -3.14276,1.94158 -0.26619,-0.11737 -0.42685,-3.35807 -0.61605,-3.5792 -0.18921,-0.22112 -3.40213,-1.03231 -3.4761,-1.314 -0.074,-0.28169 2.38494,-2.45158 2.44271,-2.73701 0.0578,-0.28543 -1.40216,-3.15923 -1.22811,-3.3929 0.17406,-0.23368 3.38992,0.22704 3.6498,0.0955 0.25988,-0.13153 1.68021,-2.9799 1.97151,-2.98986 0.2913,-0.01 1.88552,2.79163 2.15064,2.91 0.26513,0.11838 3.48026,-0.56338 3.66967,-0.34122 0.18941,0.22216 -1.08767,3.17011 -1.01763,3.45347 0.07,0.28337 2.61265,2.40325 2.55459,2.68875 z"
       inkscape:transform-center-x="-0.023054054"
       inkscape:transform-center-y="-0.28830671"
       inkscape:export-filename="D:\projects\bubblesurviver\css\bcg.png"
       inkscape:export-xdpi="90"
       inkscape:export-ydpi="90" />
    <path
       sodipodi:type="star"
       style="fill:#ffff00;fill-opacity:0.93617021000000000;stroke:none;filter:url(#filter6649)"
       id="path3782"
       sodipodi:sides="5"
       sodipodi:cx="218.57143"
       sodipodi:cy="476.64789"
       sodipodi:r1="7.6930928"
       sodipodi:r2="5.0246916"
       sodipodi:arg1="0.38050638"
       sodipodi:arg2="1.0088249"
       inkscape:flatsided="false"
       inkscape:rounded="0.08"
       inkscape:randomized="0.006"
       d="m 225.70022,479.47413 c -0.13571,0.34823 -4.18147,1.23696 -4.49707,1.43864 -0.31559,0.20168 -2.814,3.40704 -3.18694,3.38175 -0.37293,-0.0253 -2.35979,-3.57321 -2.64682,-3.81301 -0.28703,-0.23981 -4.16291,-1.56438 -4.25173,-1.928 -0.0888,-0.36362 2.60268,-3.44716 2.74291,-3.7938 0.14022,-0.34664 0.26663,-4.46141 0.58494,-4.66004 0.31831,-0.19863 4.05673,1.5211 4.43136,1.54258 0.37462,0.0215 4.34057,-1.18726 4.62951,-0.94989 0.28895,0.23736 -0.15092,4.37759 -0.0597,4.74161 0.0913,0.36402 2.38923,3.69192 2.25351,4.04016 z"
       inkscape:transform-center-x="0.28870702"
       inkscape:transform-center-y="-0.095937365"
       inkscape:export-filename="D:\projects\bubblesurviver\css\bcg.png"
       inkscape:export-xdpi="90"
       inkscape:export-ydpi="90" />
    <path
       sodipodi:type="star"
       style="fill:#ffff00;fill-opacity:0.93617021000000000;stroke:none;filter:url(#filter6653)"
       id="path3784"
       sodipodi:sides="5"
       sodipodi:cx="78.571429"
       sodipodi:cy="892.36218"
       sodipodi:r1="8.5714286"
       sodipodi:r2="5.5983709"
       sodipodi:arg1="0"
       sodipodi:arg2="0.62831853"
       inkscape:flatsided="false"
       inkscape:rounded="0.08"
       inkscape:randomized="0.006"
       d="m 87.155243,892.34799 c 7.78e-4,0.41592 -3.77688,2.95088 -4.024497,3.28697 -0.247617,0.33609 -1.463649,4.76459 -1.860327,4.89687 -0.396678,0.13228 -3.997298,-2.75496 -4.39549,-2.88109 -0.398192,-0.12612 -4.947157,0.0782 -5.190981,-0.26025 -0.243824,-0.33843 1.332151,-4.59449 1.330065,-5.0105 -0.0021,-0.41602 -1.576887,-4.68685 -1.329461,-5.02318 0.247425,-0.33633 4.794548,-0.20479 5.190903,-0.33315 0.396355,-0.12836 3.997829,-2.93628 4.394947,-2.80669 0.397119,0.1296 1.61694,4.52728 1.859616,4.86562 0.242677,0.33834 4.024447,2.84949 4.025225,3.2654 z"
       inkscape:transform-center-x="-0.83528349"
       inkscape:transform-center-y="0.01224785"
       inkscape:export-xdpi="90"
       inkscape:export-ydpi="90"
       inkscape:export-filename="D:\projects\bubblesurviver\css\bcg.png" />
    <path
       sodipodi:type="star"
       style="fill:#ffff00;fill-opacity:0.93617021000000000;stroke:none;filter:url(#filter6657)"
       id="path3786"
       sodipodi:sides="5"
       sodipodi:cx="325.71429"
       sodipodi:cy="180.93361"
       sodipodi:r1="2.0203051"
       sodipodi:r2="1.3195487"
       sodipodi:arg1="2.3561945"
       sodipodi:arg2="2.984513"
       inkscape:flatsided="false"
       inkscape:rounded="0.08"
       inkscape:randomized="0.006"
       d="m 324.29104,182.36669 c -0.0688,-0.0701 0.12725,-1.12356 0.11143,-1.22046 -0.0158,-0.0969 -0.53013,-1.05296 -0.48493,-1.13997 0.0452,-0.087 1.10948,-0.19567 1.19744,-0.2398 0.088,-0.0441 0.81682,-0.8366 0.91365,-0.82037 0.0968,0.0162 0.53921,0.98959 0.60907,1.05844 0.0699,0.0688 1.0638,0.51743 1.07855,0.61472 0.0147,0.0973 -0.78131,0.83444 -0.82538,0.92219 -0.0441,0.0877 -0.17959,1.1423 -0.26692,1.18713 -0.0873,0.0448 -1.02145,-0.46643 -1.11815,-0.48249 -0.0967,-0.0161 -1.14601,0.19065 -1.21476,0.12061 z"
       inkscape:transform-center-x="-0.10129222"
       inkscape:transform-center-y="-0.095007118"
       inkscape:export-filename="D:\projects\bubblesurviver\css\bcg.png"
       inkscape:export-xdpi="90"
       inkscape:export-ydpi="90" />
    <path
       sodipodi:type="star"
       style="fill:#ffff00;fill-opacity:0.93617021000000000;stroke:none;filter:url(#filter6661)"
       id="path3916"
       sodipodi:sides="5"
       sodipodi:cx="375"
       sodipodi:cy="600.21932"
       sodipodi:r1="4.3448304"
       sodipodi:r2="2.8377968"
       sodipodi:arg1="1.4056476"
       sodipodi:arg2="2.0339662"
       inkscape:flatsided="false"
       inkscape:rounded="0.08"
       inkscape:randomized="0.006"
       d="m 375.6906,604.48657 c -0.20798,0.0346 -1.78679,-1.61857 -1.9758,-1.71455 -0.18901,-0.096 -2.45046,-0.3668 -2.54787,-0.55396 -0.0974,-0.18716 1.01162,-2.22915 1.04132,-2.43854 0.0297,-0.20939 -0.43188,-2.44148 -0.28231,-2.59103 0.14956,-0.14954 2.39195,0.24262 2.60092,0.20715 0.20898,-0.0355 2.19977,-1.1701 2.38842,-1.07466 0.18864,0.0954 0.52077,2.39296 0.61884,2.58058 0.0981,0.18762 1.79326,1.75834 1.7608,1.96754 -0.0324,0.2092 -2.13005,1.20016 -2.27965,1.3498 -0.14961,0.14965 -1.11668,2.23312 -1.32467,2.26767 z"
       inkscape:transform-center-x="-0.2281276"
       inkscape:transform-center-y="0.18189513"
       inkscape:export-filename="D:\projects\bubblesurviver\css\bcg.png"
       inkscape:export-xdpi="90"
       inkscape:export-ydpi="90" />
    <path
       sodipodi:type="star"
       style="fill:#ffff00;fill-opacity:0.93617021000000000;stroke:none;filter:url(#filter6665)"
       id="path3918"
       sodipodi:sides="5"
       sodipodi:cx="302.14286"
       sodipodi:cy="292.36218"
       sodipodi:r1="4.3448304"
       sodipodi:r2="2.8377968"
       sodipodi:arg1="1.4056476"
       sodipodi:arg2="2.0339662"
       inkscape:flatsided="false"
       inkscape:rounded="0.08"
       inkscape:randomized="0.006"
       d="m 302.86491,296.62354 c -0.20846,0.0335 -1.7864,-1.62156 -1.97581,-1.71455 -0.1894,-0.093 -2.50348,-0.36602 -2.6,-0.55396 -0.0965,-0.18795 1.00953,-2.1824 1.04126,-2.39091 0.0317,-0.20852 -0.42723,-2.51923 -0.2795,-2.67124 0.14774,-0.15201 2.4412,0.32784 2.65026,0.29314 0.20905,-0.0347 2.19168,-1.17938 2.38068,-1.08527 0.18901,0.0941 0.4657,2.36901 0.56389,2.55652 0.0982,0.1875 1.826,1.72235 1.79504,1.93086 -0.031,0.20851 -2.1138,1.18993 -2.26175,1.34011 -0.14795,0.15018 -1.10562,2.26183 -1.31407,2.2953 z"
       inkscape:transform-center-x="-0.21928375"
       inkscape:transform-center-y="0.19746116"
       inkscape:export-filename="D:\projects\bubblesurviver\css\bcg.png"
       inkscape:export-xdpi="90"
       inkscape:export-ydpi="90" />
    <path
       sodipodi:type="star"
       style="fill:#ffff00;fill-opacity:0.93617021000000000;stroke:none;filter:url(#filter6669)"
       id="path3920"
       sodipodi:sides="5"
       sodipodi:cx="514.28571"
       sodipodi:cy="164.50504"
       sodipodi:r1="3.6421568"
       sodipodi:r2="2.3788503"
       sodipodi:arg1="0.19739556"
       sodipodi:arg2="0.82571409"
       inkscape:flatsided="false"
       inkscape:rounded="0.08"
       inkscape:randomized="0.006"
       d="m 517.86124,165.23769 c -0.0339,0.17444 -1.8221,0.90218 -1.95282,1.02151 -0.13072,0.11932 -1.01897,1.84952 -1.19511,1.87136 -0.17613,0.0218 -1.45741,-1.44342 -1.61096,-1.531 -0.15356,-0.0876 -2.03988,-0.39948 -2.11473,-0.56018 -0.0748,-0.16069 0.9424,-1.82249 0.97858,-1.99637 0.0362,-0.17388 -0.27057,-2.07382 -0.14038,-2.19359 0.1302,-0.11977 1.99934,0.32912 2.1755,0.30713 0.17617,-0.022 1.90632,-0.93276 2.06042,-0.84622 0.1541,0.0865 0.3235,2.02964 0.39842,2.19047 0.0749,0.16084 1.43495,1.56244 1.40108,1.73689 z"
       inkscape:transform-center-x="-0.13706784"
       inkscape:transform-center-y="0.21262841"
       inkscape:export-filename="D:\projects\bubblesurviver\css\bcg.png"
       inkscape:export-xdpi="90"
       inkscape:export-ydpi="90" />
    <path
       sodipodi:type="star"
       style="fill:#ffff00;fill-opacity:0.93617021000000000;stroke:none;filter:url(#filter6673)"
       id="path3922"
       sodipodi:sides="5"
       sodipodi:cx="622.85714"
       sodipodi:cy="521.6479"
       sodipodi:r1="3.8465463"
       sodipodi:r2="2.5123459"
       sodipodi:arg1="0.38050638"
       sodipodi:arg2="1.0088249"
       inkscape:flatsided="false"
       inkscape:rounded="0.08"
       inkscape:randomized="0.006"
       d="m 626.41833,523.07231 c -0.0709,0.17337 -2.08427,0.58977 -2.24139,0.69067 -0.15712,0.1009 -1.38747,1.7365 -1.57381,1.725 -0.18634,-0.0115 -1.23235,-1.80704 -1.37659,-1.92572 -0.14424,-0.11867 -2.0515,-0.80377 -2.09585,-0.98522 -0.0444,-0.18144 1.3266,-1.66896 1.39555,-1.84308 0.0689,-0.17413 0.11289,-2.26205 0.27131,-2.36088 0.15842,-0.0988 2.02176,0.73276 2.20805,0.74549 0.18629,0.0127 2.1894,-0.52478 2.33285,-0.40527 0.14345,0.11952 -0.0791,2.12411 -0.0343,2.30624 0.0448,0.18212 1.18508,1.8794 1.11415,2.05277 z"
       inkscape:transform-center-x="0.081548685"
       inkscape:transform-center-y="0.27859653"
       inkscape:export-filename="D:\projects\bubblesurviver\css\bcg.png"
       inkscape:export-xdpi="90"
       inkscape:export-ydpi="90" />
    <path
       sodipodi:type="arc"
       style="fill:none;stroke:#f7e018;stroke-width:0.60000001999999997;stroke-miterlimit:4;stroke-opacity:1;stroke-dasharray:none;filter:url(#filter6677)"
       id="path4430"
       sodipodi:cx="286.88333"
       sodipodi:cy="277.5752"
       sodipodi:rx="28.284271"
       sodipodi:ry="28.284271"
       d="m 315.1676,277.5752 a 28.284271,28.284271 0 1 1 -56.56854,0 28.284271,28.284271 0 1 1 56.56854,0 z"
       transform="translate(16.162441,14.142136)"
       inkscape:export-filename="D:\projects\bubblesurviver\css\bcg.png"
       inkscape:export-xdpi="90"
       inkscape:export-ydpi="90" />
    <path
       sodipodi:type="arc"
       style="fill:none;stroke:#f7e018;stroke-width:0.81710011000000005;stroke-miterlimit:4;stroke-opacity:1;stroke-dasharray:none;filter:url(#filter6681)"
       id="path4430-4"
       sodipodi:cx="286.88333"
       sodipodi:cy="277.5752"
       sodipodi:rx="28.284271"
       sodipodi:ry="28.284271"
       d="m 315.1676,277.5752 a 28.284271,28.284271 0 1 1 -56.56854,0 28.284271,28.284271 0 1 1 56.56854,0 z"
       transform="matrix(0.73430426,0,0,0.73430426,165.26875,397.85775)"
       inkscape:export-filename="D:\projects\bubblesurviver\css\bcg.png"
       inkscape:export-xdpi="90"
       inkscape:export-ydpi="90" />
  </g>
</svg>
