<?xml version="1.0" encoding="UTF-8" standalone="no"?>
<!-- Created with Inkscape (http://www.inkscape.org/) -->

<svg
   xmlns:dc="http://purl.org/dc/elements/1.1/"
   xmlns:cc="http://creativecommons.org/ns#"
   xmlns:rdf="http://www.w3.org/1999/02/22-rdf-syntax-ns#"
   xmlns:svg="http://www.w3.org/2000/svg"
   xmlns="http://www.w3.org/2000/svg"
   xmlns:sodipodi="http://sodipodi.sourceforge.net/DTD/sodipodi-0.dtd"
   xmlns:inkscape="http://www.inkscape.org/namespaces/inkscape"
   width="744.09448819"
   height="1052.3622047"
   id="svg2"
   version="1.1"
   inkscape:version="0.48.5 r10040"
   sodipodi:docname="bulletexplosion.svg">
  <defs
     id="defs4" />
  <sodipodi:namedview
     id="base"
     pagecolor="#ffffff"
     bordercolor="#666666"
     borderopacity="1.0"
     inkscape:pageopacity="0.0"
     inkscape:pageshadow="2"
     inkscape:zoom="0.7"
     inkscape:cx="447.86281"
     inkscape:cy="676.62278"
     inkscape:document-units="px"
     inkscape:current-layer="layer1"
     showgrid="false"
     inkscape:window-width="1366"
     inkscape:window-height="706"
     inkscape:window-x="-8"
     inkscape:window-y="-8"
     inkscape:window-maximized="1" />
  <metadata
     id="metadata7">
    <rdf:RDF>
      <cc:Work
         rdf:about="">
        <dc:format>image/svg+xml</dc:format>
        <dc:type
           rdf:resource="http://purl.org/dc/dcmitype/StillImage" />
        <dc:title></dc:title>
      </cc:Work>
    </rdf:RDF>
  </metadata>
  <g
     inkscape:label="Layer 1"
     inkscape:groupmode="layer"
     id="layer1">
    <path
       sodipodi:type="star"
       style="fill:#ffff00;fill-opacity:0.7393617;stroke:none"
       id="path3965"
       sodipodi:sides="10"
       sodipodi:cx="294.28571"
       sodipodi:cy="218.07648"
       sodipodi:r1="145.72128"
       sodipodi:r2="95.176888"
       sodipodi:arg1="0.65330472"
       sodipodi:arg2="0.96746399"
       inkscape:flatsided="false"
       inkscape:rounded="0.08"
       inkscape:randomized="0.006"
       d="m 410.6075,306.25705 c -3.03581,3.96723 -58.34236,-12.77562 -62.44157,-9.89794 -4.09922,2.87768 -8.2641,59.84761 -13.07383,61.24119 -4.80974,1.39358 -38.57855,-45.00345 -43.59271,-45.16907 -5.01417,-0.16562 -41.63847,44.67069 -46.33654,42.98997 -4.69807,-1.68072 -5.2448,-58.12801 -9.24011,-61.14943 -3.99531,-3.02141 -58.71225,10.39275 -61.54279,6.27714 -2.83054,-4.11561 30.07764,-51.18091 28.61432,-55.9698 -1.46331,-4.7889 -54.52242,-24.82326 -54.38699,-29.81278 0.13542,-4.98951 54.83226,-23.59839 56.46488,-28.33729 1.63261,-4.73889 -29.83878,-53.77532 -26.80162,-57.73949 3.03716,-3.96417 58.44773,13.8373 62.56458,10.98617 4.11686,-2.85112 6.79888,-59.164328 11.58793,-60.58339 4.78905,-1.419061 40.06736,43.17199 45.08047,43.30092 5.0131,0.12893 39.73859,-42.817053 44.46479,-41.16175 4.72619,1.655303 7.05916,58.73806 11.01756,61.81778 3.95839,3.07973 59.08246,-10.99548 61.89621,-6.863 2.81375,4.13248 -30.28413,50.80509 -28.87348,55.61413 1.41066,4.80904 54.48344,24.81594 54.387,29.81277 -0.0965,4.99683 -54.93624,22.78796 -56.55915,27.53018 -1.62292,4.74221 29.80686,53.14646 26.77105,57.11369 z"
       inkscape:transform-center-x="0.67732518"
       inkscape:transform-center-y="-0.36364648"
       transform="matrix(1.0281412,0,0,1.0769212,37.246586,161.06202)"
       inkscape:export-filename="D:\projects\bubblesurviver\img\bulletexplosion.png"
       inkscape:export-xdpi="60"
       inkscape:export-ydpi="60" />
    <path
       sodipodi:type="star"
       style="fill:#ff0000;fill-opacity:0.77659577;stroke:none"
       id="path3967"
       sodipodi:sides="10"
       sodipodi:cx="538.57141"
       sodipodi:cy="136.6479"
       sodipodi:r1="124.44981"
       sodipodi:r2="81.283562"
       sodipodi:arg1="0.84224741"
       sodipodi:arg2="1.1564067"
       inkscape:flatsided="false"
       inkscape:rounded="0.08"
       inkscape:randomized="0.006"
       d="m 621.01777,230.15601 c -3.18172,2.85528 -45.64338,-20.41558 -49.5369,-18.67636 -3.89353,1.73923 -16.21009,49.26754 -20.45029,49.69948 -4.24021,0.43194 -25.91669,-44.86149 -30.09456,-45.80086 -4.17788,-0.93936 -41.03437,31.29481 -44.7367,29.1744 -3.70233,-2.1204 4.78962,-50.46142 1.92655,-53.64848 -2.86307,-3.18706 -51.85902,0.24636 -53.56032,-3.66562 -1.70129,-3.91199 34.06976,-37.54464 33.66244,-41.79851 -0.40732,-4.25387 -42.26618,-31.73353 -41.36529,-35.90475 0.9009,-4.17122 49.64813,-9.567122 51.7946,-13.258484 2.14648,-3.691362 -16.79126,-50.292458 -13.6216,-53.174426 3.16966,-2.881968 47.18924,21.21063 51.11235,19.494665 3.92311,-1.715966 16.11519,-50.124246 20.36824,-50.517785 4.25306,-0.39354 25.23413,44.083471 29.42224,44.994362 4.18812,0.91089 41.82744,-29.859473 45.48953,-27.678611 3.66208,2.180862 -4.80472,50.308345 -1.92658,53.483127 2.87814,3.174782 51.77142,-0.768879 53.47984,3.141684 1.70841,3.910564 -33.28155,37.663168 -32.86595,41.914608 0.41559,4.25145 41.18227,30.64637 40.26545,34.83194 -0.91682,4.18557 -49.57247,11.73832 -51.71409,15.44118 -2.14162,3.70286 15.53275,49.09316 12.35104,51.94844 z"
       inkscape:transform-center-x="0.047091455"
       inkscape:transform-center-y="-0.053253845"
       transform="matrix(0.8351321,-0.18319644,0.17932404,0.89688955,-135.19419,375.09344)"
       inkscape:export-filename="D:\projects\bubblesurviver\img\bulletexplosion.png"
       inkscape:export-xdpi="60"
       inkscape:export-ydpi="60" />
    <path
       sodipodi:type="star"
       style="fill:#e3dbdb;fill-opacity:0.74468082;stroke:none"
       id="path3969"
       sodipodi:sides="10"
       sodipodi:cx="314.28571"
       sodipodi:cy="388.07648"
       sodipodi:r1="66.700668"
       sodipodi:r2="43.565098"
       sodipodi:arg1="0.7551044"
       sodipodi:arg2="1.0692637"
       inkscape:flatsided="false"
       inkscape:rounded="0.08"
       inkscape:randomized="0.006"
       d="m 363.13044,433.59666 c -1.56243,1.66966 -25.58346,-8.33699 -27.58725,-7.2346 -2.00379,1.1024 -6.69022,26.95927 -8.93377,27.40093 -2.24355,0.44166 -15.23568,-22.43048 -17.50077,-22.7286 -2.26508,-0.29812 -20.87267,18.35857 -22.94934,17.38971 -2.07667,-0.96885 0.11284,-26.68062 -1.55564,-28.25643 -1.66849,-1.57581 -27.94631,1.72455 -29.04248,-0.29219 -1.09617,-2.01674 16.64789,-21.04136 16.21221,-23.29342 -0.43569,-2.25207 -24.19388,-14.93671 -23.91565,-17.21514 0.27822,-2.27844 26.12286,-7.433 27.08472,-9.5093 0.96187,-2.07631 -10.44106,-25.67224 -8.87555,-27.34002 1.56551,-1.66779 25.62241,8.21441 27.64277,7.12903 2.02036,-1.08538 5.87439,-26.38952 8.12101,-26.8373 2.24661,-0.44777 15.99904,21.50571 18.27119,21.77605 2.27215,0.27035 20.54783,-18.00456 22.61815,-17.02718 2.07032,0.97737 -0.53997,27.1759 1.1164,28.75783 1.65637,1.58192 27.94954,-2.49744 29.04167,-0.48874 1.09212,2.0087 -15.87356,21.78233 -15.44177,24.03032 0.43179,2.24798 23.41849,14.05067 23.11523,16.3261 -0.30326,2.27544 -26.27542,8.20404 -27.25968,10.27195 -0.98427,2.06791 11.40099,25.47134 9.83855,27.141 z"
       inkscape:transform-center-x="0.083056515"
       inkscape:transform-center-y="0.22557299"
       transform="matrix(1.0281412,0,0,1.0769212,18.152536,-20.47613)"
       inkscape:export-filename="D:\projects\bubblesurviver\img\bulletexplosion.png"
       inkscape:export-xdpi="60"
       inkscape:export-ydpi="60" />
    <path
       sodipodi:type="star"
       style="fill:#000000;fill-opacity:1;stroke:none"
       id="path3971"
       sodipodi:sides="10"
       sodipodi:cx="460"
       sodipodi:cy="218.07648"
       sodipodi:r1="35.369766"
       sodipodi:r2="23.101528"
       sodipodi:arg1="0.81396182"
       sodipodi:arg2="1.1281211"
       inkscape:flatsided="false"
       inkscape:rounded="0.08"
       inkscape:randomized="0.006"
       d="m 484.37758,243.75668 c -0.88402,0.83529 -13.3967,-5.49412 -14.49394,-4.97302 -1.09725,0.5211 -4.08943,14.15482 -5.29711,14.31405 -1.20768,0.15922 -7.72918,-11.90341 -8.92361,-12.12635 -1.19443,-0.22295 -11.40624,8.66963 -12.47829,8.09653 -1.07205,-0.5731 0.88974,-14.32922 0.0541,-15.20616 -0.83567,-0.87695 -14.59481,0.51218 -15.12415,-0.58221 -0.52934,-1.09439 9.34479,-11.239 9.18245,-12.44506 -0.16234,-1.20606 -12.22717,-7.92573 -12.01056,-9.12369 0.21661,-1.19796 13.91204,-3.45254 14.49787,-4.51922 0.58583,-1.06668 -5.06043,-13.80607 -4.18325,-14.64448 0.87718,-0.83841 13.40165,5.19621 14.50049,4.67415 1.09885,-0.52207 4.09009,-14.11679 5.29755,-14.27738 1.20745,-0.1606 7.72621,12.11618 8.91661,12.34156 1.19039,0.22538 11.50994,-9.00002 12.5715,-8.41729 1.06157,0.58274 -0.88828,14.28218 -0.0545,15.1695 0.83377,0.88732 14.61256,-0.10573 15.12458,0.99632 0.51202,1.10205 -9.00904,11.01635 -8.84422,12.22015 0.16481,1.2038 11.89025,8.0371 11.66534,9.23336 -0.22491,1.19627 -13.98527,3.73378 -14.57753,4.79732 -0.59225,1.06354 5.06072,13.63664 4.1767,14.47192 z"
       inkscape:transform-center-x="-0.033487268"
       inkscape:transform-center-y="-0.059991837"
       transform="matrix(1.0281412,0,0,1.0769212,-134.59988,159.52356)"
       inkscape:export-filename="D:\projects\bubblesurviver\img\bulletexplosion.png"
       inkscape:export-xdpi="60"
       inkscape:export-ydpi="60" />
  </g>
</svg>
