<?xml version="1.0" encoding="UTF-8" standalone="no"?>
<!-- Created with Inkscape (http://www.inkscape.org/) -->

<svg
   xmlns:dc="http://purl.org/dc/elements/1.1/"
   xmlns:cc="http://creativecommons.org/ns#"
   xmlns:rdf="http://www.w3.org/1999/02/22-rdf-syntax-ns#"
   xmlns:svg="http://www.w3.org/2000/svg"
   xmlns="http://www.w3.org/2000/svg"
   xmlns:sodipodi="http://sodipodi.sourceforge.net/DTD/sodipodi-0.dtd"
   xmlns:inkscape="http://www.inkscape.org/namespaces/inkscape"
   width="744.09448819"
   height="1052.3622047"
   id="svg2"
   version="1.1"
   inkscape:version="0.48.5 r10040"
   sodipodi:docname="bullet.svg"
   inkscape:export-filename="D:\projects\bubblesurviver\img\bullet.png"
   inkscape:export-xdpi="4.3238049"
   inkscape:export-ydpi="4.3238049">
  <defs
     id="defs4" />
  <sodipodi:namedview
     id="base"
     pagecolor="#ffffff"
     bordercolor="#666666"
     borderopacity="1.0"
     inkscape:pageopacity="0.0"
     inkscape:pageshadow="2"
     inkscape:zoom="0.49497475"
     inkscape:cx="236.71256"
     inkscape:cy="496.56854"
     inkscape:document-units="px"
     inkscape:current-layer="layer1"
     showgrid="false"
     inkscape:window-width="1366"
     inkscape:window-height="706"
     inkscape:window-x="-8"
     inkscape:window-y="-8"
     inkscape:window-maximized="1" />
  <metadata
     id="metadata7">
    <rdf:RDF>
      <cc:Work
         rdf:about="">
        <dc:format>image/svg+xml</dc:format>
        <dc:type
           rdf:resource="http://purl.org/dc/dcmitype/StillImage" />
        <dc:title></dc:title>
      </cc:Work>
    </rdf:RDF>
  </metadata>
  <g
     inkscape:label="Layer 1"
     inkscape:groupmode="layer"
     id="layer1">
    <path
       sodipodi:type="star"
       style="fill:#ffff00;fill-opacity:1;stroke:#ffffff;stroke-width:3.55699992000000000;stroke-miterlimit:4;stroke-opacity:1;stroke-dasharray:none;"
       id="path2991"
       sodipodi:sides="12"
       sodipodi:cx="282.84271"
       sodipodi:cy="333.13358"
       sodipodi:r1="211.89211"
       sodipodi:r2="258.14468"
       sodipodi:arg1="0.91554833"
       sodipodi:arg2="0.92186119"
       inkscape:flatsided="false"
       inkscape:rounded="0"
       inkscape:randomized="0.006"
       d="m 411.91734,499.66309 27.30047,40.20469 -127.75456,4.64059 2.38763,46.10149 -111.69673,-61.34184 -19.39134,40.38574 -66.50908,-106.50697 -37.734539,26.4699 -6.852322,-128.22151 -43.59089,3.54639 58.144565,-111.41516 -39.955082,-20.61354 107.727228,-66.81411 -27.24946,-39.0207 127.75137,-4.90819 -2.38758,-45.758504 111.6489,60.425454 19.43912,-42.910078 68.97768,111.403948 35.04793,-27.78521 6.85237,128.56451 43.81209,-3.76272 -58.14775,111.14755 39.90725,19.69715 z"
       inkscape:transform-center-x="0.21066726"
       inkscape:transform-center-y="1.3053627"
       transform="translate(54.548237,187.60682)" />
    <path
       sodipodi:type="star"
       style="fill:#d40000;fill-opacity:1;stroke:#ffffff;stroke-width:3.55699992000000000;stroke-miterlimit:4;stroke-opacity:1;stroke-dasharray:none;"
       id="path2993"
       sodipodi:sides="12"
       sodipodi:cx="290.92392"
       sodipodi:cy="383.6412"
       sodipodi:r1="251.14432"
       sodipodi:r2="164.03322"
       sodipodi:arg1="0.14531002"
       sodipodi:arg2="0.98467165"
       inkscape:flatsided="false"
       inkscape:rounded="0.08"
       inkscape:randomized="0.006"
       d="m 540.60204,420.44205 c -9.95658,11.11027 -152.04489,87.49253 -157.88724,101.22097 -3.3749,7.93041 114.59044,13.81842 106.38563,16.58002 -14.20345,4.78064 -177.15932,-1.09376 -189.15884,7.78439 -6.93168,5.12858 90.8369,72.54546 82.36877,70.79985 -14.65929,-3.02185 -149.16034,-88.39386 -164.02543,-86.72103 -8.58701,0.96633 42.34238,106.52992 35.90822,100.75028 -11.13826,-10.00521 -86.4085,-151.10601 -100.06133,-157.10888 -7.88675,-3.46763 -15.01572,116.42243 -17.81535,108.24927 -4.84648,-14.14866 0.53236,-177.46 -8.32766,-189.49588 -5.1181,-6.95268 -71.168336,92.10925 -69.432611,83.62579 C 61.560936,461.441 144.56978,326.8688 142.93343,312.04291 141.98817,303.47853 37.523729,353.97846 43.248545,347.50274 53.158847,336.29252 194.03127,260.03568 199.94459,246.30561 203.3605,238.37425 85.379166,229.16046 93.555855,226.45151 107.71063,221.76199 269.1121,229.62288 281.06084,220.555 c 6.90234,-5.23818 -90.97077,-71.18394 -82.53435,-69.43749 14.6044,3.02329 150.86752,87.14814 165.6855,85.35384 8.5598,-1.0365 -44.08106,-107.73173 -37.56823,-102.06313 11.27443,9.81298 88.19007,153.80173 101.88382,159.81275 7.91037,3.47235 16.45092,-114.8307 19.17211,-106.62173 4.71068,14.21065 -2.18635,174.64945 6.80537,186.55066 5.19417,6.87489 72.49466,-90.45184 70.78938,-81.99825 -2.95203,14.63412 -87.9834,148.61102 -86.34311,163.4661 0.94753,8.58124 107.40226,-41.5937 101.65071,-35.1757 z"
       inkscape:transform-center-x="-0.034941241"
       inkscape:transform-center-y="0.7842386"
       transform="translate(44.446712,141.13981)" />
    <path
       sodipodi:type="star"
       style="fill:#000000;fill-opacity:1;stroke:#ffffff;stroke-width:4.01993846999999960;stroke-miterlimit:4;stroke-opacity:1;stroke-dasharray:none;"
       id="path3891"
       sodipodi:sides="12"
       sodipodi:cx="288.90363"
       sodipodi:cy="462.43311"
       sodipodi:r1="119.6082"
       sodipodi:r2="78.121292"
       sodipodi:arg1="0.6536359"
       sodipodi:arg2="0.91543528"
       inkscape:flatsided="false"
       inkscape:rounded="0.08"
       inkscape:randomized="0.006"
       d="m 383.35829,535.0175 c -2.36409,3.07531 -43.78335,-13.40677 -46.85335,-11.02472 -3.07,2.38205 1.25618,47.61771 -2.3224,49.12526 -3.57859,1.50756 -30.7078,-33.32087 -34.55365,-32.84524 -3.84585,0.47564 -21.92386,40.63832 -25.76434,40.1062 -3.84049,-0.53212 -10.55086,-44.21375 -14.14773,-45.70177 -3.59686,-1.48802 -40.03678,25.29868 -43.11908,22.94229 -3.08231,-2.35639 13.20202,-44.66066 10.83028,-47.74064 -2.37174,-3.07998 -47.4754,2.31529 -48.94374,-1.27069 -1.46834,-3.58599 32.93201,-31.75396 32.41408,-35.59654 -0.51793,-3.84257 -40.99591,-22.68785 -40.50511,-26.53986 0.49079,-3.85201 45.40588,-9.70728 46.87152,-13.31128 1.46563,-3.60399 -25.89084,-40.1861 -23.54837,-43.27671 2.34248,-3.0906 44.85076,13.38241 47.92121,11.00205 3.07044,-2.38036 -2.23755,-47.71128 1.35558,-49.16789 3.59313,-1.45662 32.02997,33.57976 35.88793,33.06947 3.85796,-0.5103 21.70807,-40.89845 25.55018,-40.36321 3.8421,0.53524 10.76319,44.32865 14.36187,45.79985 3.59868,1.47121 40.06066,-24.74226 43.14272,-22.39369 3.08205,2.34856 -13.20937,43.22677 -10.83029,46.30533 2.37909,3.07857 46.06578,-0.60926 47.56221,2.97881 1.49643,3.58807 -32.94908,31.59918 -32.4141,35.43762 0.53497,3.83843 42.49211,21.97102 41.96407,25.81207 -0.52804,3.84105 -45.37543,10.61141 -46.89516,14.19799 -1.51972,3.58658 24.39976,39.38 22.03567,42.4553 z"
       inkscape:transform-center-x="-0.3577354"
       inkscape:transform-center-y="-0.027728087"
       transform="matrix(0.88957013,0,0,0.88013377,79.425167,116.03549)" />
  </g>
</svg>
