<?xml version="1.0" encoding="UTF-8" standalone="no"?>
<!-- Created with Inkscape (http://www.inkscape.org/) -->

<svg
   xmlns:dc="http://purl.org/dc/elements/1.1/"
   xmlns:cc="http://creativecommons.org/ns#"
   xmlns:rdf="http://www.w3.org/1999/02/22-rdf-syntax-ns#"
   xmlns:svg="http://www.w3.org/2000/svg"
   xmlns="http://www.w3.org/2000/svg"
   xmlns:sodipodi="http://sodipodi.sourceforge.net/DTD/sodipodi-0.dtd"
   xmlns:inkscape="http://www.inkscape.org/namespaces/inkscape"
   width="744.09448819"
   height="1052.3622047"
   id="svg3018"
   version="1.1"
   inkscape:version="0.48.5 r10040"
   sodipodi:docname="light.svg">
  <defs
     id="defs3020">
    <filter
       inkscape:collect="always"
       id="filter3803"
       x="-0.2541539"
       width="1.5083078"
       y="-0.2498823"
       height="1.4997646">
      <feGaussianBlur
         inkscape:collect="always"
         stdDeviation="79.178201"
         id="feGaussianBlur3805" />
    </filter>
    <filter
       inkscape:collect="always"
       id="filter3839">
      <feGaussianBlur
         inkscape:collect="always"
         stdDeviation="16.741362"
         id="feGaussianBlur3841" />
    </filter>
    <filter
       color-interpolation-filters="sRGB"
       inkscape:collect="always"
       id="filter3803-4"
       x="-0.25415391"
       width="1.5083078"
       y="-0.2498823"
       height="1.4997646">
      <feGaussianBlur
         inkscape:collect="always"
         stdDeviation="79.178201"
         id="feGaussianBlur3805-0" />
    </filter>
    <filter
       color-interpolation-filters="sRGB"
       inkscape:collect="always"
       id="filter3839-1">
      <feGaussianBlur
         inkscape:collect="always"
         stdDeviation="16.741362"
         id="feGaussianBlur3841-7" />
    </filter>
    <filter
       color-interpolation-filters="sRGB"
       inkscape:collect="always"
       id="filter3839-4">
      <feGaussianBlur
         inkscape:collect="always"
         stdDeviation="16.741362"
         id="feGaussianBlur3841-8" />
    </filter>
    <filter
       color-interpolation-filters="sRGB"
       inkscape:collect="always"
       id="filter3839-17">
      <feGaussianBlur
         inkscape:collect="always"
         stdDeviation="16.741362"
         id="feGaussianBlur3841-4" />
    </filter>
    <filter
       color-interpolation-filters="sRGB"
       inkscape:collect="always"
       id="filter3839-17-1">
      <feGaussianBlur
         inkscape:collect="always"
         stdDeviation="16.741362"
         id="feGaussianBlur3841-4-7" />
    </filter>
    <filter
       color-interpolation-filters="sRGB"
       inkscape:collect="always"
       id="filter3839-17-17">
      <feGaussianBlur
         inkscape:collect="always"
         stdDeviation="16.741362"
         id="feGaussianBlur3841-4-4" />
    </filter>
  </defs>
  <sodipodi:namedview
     id="base"
     pagecolor="#ffffff"
     bordercolor="#666666"
     borderopacity="1.0"
     inkscape:pageopacity="0.0"
     inkscape:pageshadow="2"
     inkscape:zoom="2.8"
     inkscape:cx="294.1776"
     inkscape:cy="466.16254"
     inkscape:document-units="px"
     inkscape:current-layer="layer1"
     showgrid="false"
     inkscape:snap-object-midpoints="true"
     inkscape:window-width="1366"
     inkscape:window-height="706"
     inkscape:window-x="-8"
     inkscape:window-y="-8"
     inkscape:window-maximized="1" />
  <metadata
     id="metadata3023">
    <rdf:RDF>
      <cc:Work
         rdf:about="">
        <dc:format>image/svg+xml</dc:format>
        <dc:type
           rdf:resource="http://purl.org/dc/dcmitype/StillImage" />
        <dc:title></dc:title>
      </cc:Work>
    </rdf:RDF>
  </metadata>
  <g
     inkscape:label="Layer 1"
     inkscape:groupmode="layer"
     id="layer1"><rect
   style="fill:#30618e;fill-opacity:1;stroke:#ff530e;stroke-width:4.20000029;stroke-miterlimit:4;stroke-opacity:1;stroke-dasharray:none"
   id="rect3900"
   width="3922.0828"
   height="2888.2507"
   x="2345.6489"
   y="-857.56268" />
<path
   style="fill:#ddd2cd;fill-opacity:1;stroke:none;filter:url(#filter3803)"
   d="m 0,215.7031 c -262.66635,0 -430.03127,170.22535 -430.03127,380.21875 0,209.9934 167.36492,380.25 373.843753,380.25 206.478897,0 373.843697,-170.2566 373.843697,-380.25 0,-209.9934 -167.3648,-380.21875 -373.843697,-380.21875 z m -56.187517,47.375 c 183.831897,0 332.874997,149.01182 332.874997,332.84375 0,183.83193 -149.0431,332.875 -332.874997,332.875 -183.831933,0 -332.843753,-149.04307 -332.843753,-332.875 0,-183.83193 149.01182,-332.84375 332.843753,-332.84375 z"
   id="path4130"
   inkscape:connector-curvature="0"
   inkscape:export-filename="D:\projects\bubblesurviver\img\light.png"
   inkscape:export-xdpi="3.2720225"
   inkscape:export-ydpi="3.2720225"
   transform="matrix(0.13300905,0,0,0.13151848,112.47345,598.98539)" />
<g
   id="g3001"
   transform="matrix(0.35203192,-0.3983317,0.39614845,0.35397204,1153.2284,20.690324)">
  <path
     style="fill:none;stroke:none"
     d="m 358.93459,199.27301 -109.82327,90.33291 -37.50063,48.31759 -13.39308,65.12373 13.39308,10.50382 -8.03585,63.02295 -26.78616,58.82143 -10.71447,39.91454 18.75032,58.82142 37.50062,96.63521 48.2151,44.11606 56.25094,-4.20152 75.00126,-31.51149 29.46478,-79.82907 10.71447,-54.6199 21.42893,-79.82907 5.35723,-50.41837 -112.50189,-96.63519 16.0717,-71.42602 -8.03585,-67.22449 z"
     id="path3965"
     inkscape:connector-curvature="0" />
  <path
     style="fill:none;stroke:none"
     d="m 538.40189,629.92988 176.78868,25.20918 -13.39309,23.10842 -42.85786,0 -16.0717,18.90688 -29.46478,56.72067 -56.25094,-14.70537 -45.53648,-8.40305 -58.92956,29.4107 -77.67987,58.82143 -50.89371,-10.50382 -50.89371,-31.51148 80.35849,-21.00765 56.25094,-18.90689 48.2151,-6.30229 34.82201,-42.01531 z"
     id="path3969"
     inkscape:connector-curvature="0" />
  <path
     style="fill:none;stroke:none"
     d="m 471.43648,499.68243 83.0371,8.40307 32.1434,6.30229 69.64403,33.61224 -5.35724,25.20919 -42.85786,2.10076 -50.89371,14.70536 -18.75031,31.51147 -18.75032,12.60459 8.03585,16.80613 -42.85786,52.51913 -8.03585,27.30995 -40.17925,0 -21.42893,0 10.71447,-44.11608 8.03585,-73.52677 24.10755,-31.51149 8.03584,-65.12371 18.75032,-14.70536"
     id="path3971"
     inkscape:connector-curvature="0" />
  <path
     style="fill:#483e37;fill-opacity:1;stroke:none"
     d="m 349.39866,812.25188 c -12.02368,-2.67323 -23.24185,-6.24621 -25.58983,-6.64453 -26.08387,-4.42492 -44.44735,-27.17987 -42.85268,-28.39823 1.05018,-0.80235 12.28466,-2.34415 24.96551,-3.42622 21.29145,-1.81679 25.69926,-3.08599 57.59026,-16.58275 18.99378,-8.03845 51.84456,-26.02974 53.28446,-29.54817 15.3089,-37.40776 48.33701,-29.06728 58.5605,-28.34184 5.99388,0.42532 3.99838,-7.05698 10.19145,-12.07939 9.22268,-7.47933 1.59,-0.0471 18.04153,-20.16186 11.66825,-14.26643 11.79517,-42.97984 12.14978,-45.51341 0.35462,-2.53357 5.12877,0.44706 7.74459,-2.68396 5.13959,-6.15184 34.33995,7.87261 47.0437,10.70172 79.75524,17.76139 40.55848,1.58554 52.4074,2.74275 11.84888,1.15722 21.57339,6.98827 38.79778,10.39029 17.22436,3.40202 25.95029,2.07432 32.47822,2.24657 5.99382,0.15816 5.2079,2.55693 2.15755,14.38897 l -2.01708,7.82408 -2.86731,4.25532 -4.87628,5.04311 -7.48309,0.26259 -21.88068,0 -7.56283,8.92826 c -4.15954,4.91053 -14.28434,21.77102 -22.49955,37.46774 l -14.93674,28.53949 -22.72321,-6.05807 c -12.49778,-3.33194 -35.24719,-8.40876 -50.55427,-11.2818 l -27.83105,-5.22373 -28.41989,14.0436 c -20.5806,10.16983 -39.59124,22.35902 -68.91955,44.18968 -22.27482,16.58035 -40.95817,30.06377 -41.51856,29.96314 -0.56039,-0.10062 -10.85645,-2.37013 -22.88013,-5.04335 z"
     id="path3973"
     inkscape:connector-curvature="0"
     sodipodi:nodetypes="cssssssssssssssscccccsscsscsscc" />
  <path
     style="fill:#917c6f;fill-opacity:1;stroke:none"
     d="m 402.06399,733.33247 c 0.82573,-1.03616 -0.64459,7.20415 1.84143,-1.81632 2.48602,-9.02048 8.61125,-41.13885 10.33774,-50.83336 10.19659,-57.25532 18.70437,-88.01603 27.72355,-100.23721 8.25656,-11.18782 9.6164,-16.11986 13.24402,-48.03548 3.9279,-34.55756 4.31399,-35.78846 13.59673,-43.34818 9.01634,-7.34274 10.25508,-7.65183 22.01075,-5.49191 6.85121,1.25878 24.08049,2.31421 38.2873,2.34541 14.2068,0.0311 34.6635,1.75023 45.45933,3.82009 18.93972,3.63128 21.03312,4.83765 59.63197,34.36464 27.07535,20.71183 38.55094,30.99574 35.50945,31.82192 -5.95797,1.61841 -52.23571,6.17149 -77.84024,7.65839 l -20.40535,1.18497 -18.17175,25.37579 c -9.99446,13.9567 -22.253,28.04989 -27.2412,31.31822 -8.32623,5.45545 -8.78537,6.55624 -5.60274,13.43253 3.27793,7.08214 2.12969,9.15354 -21.08225,38.03153 -13.50195,16.79778 -30.75767,37.73922 -38.34604,46.53652 l -13.79703,15.9951 -23.52487,2.64906 c -12.29181,1.38413 -35.84959,13.07058 -35.02388,12.03445 z"
     id="path3975"
     inkscape:connector-curvature="0"
     sodipodi:nodetypes="sssssssssssscssssscsss" />
  <path
     style="fill:#ac9d93;fill-opacity:1;stroke:none"
     d="m 247.53683,751.38509 -23.9012,-21.97703 -20.56562,-54.17571 c -11.31108,-29.79664 -23.72993,-64.10182 -27.59743,-76.23374 l -7.03182,-22.05803 4.6817,-19.79984 c 2.57493,-10.88992 10.68791,-32.63284 18.02885,-48.3176 12.01896,-25.67988 13.81451,-31.86262 18.04337,-62.13 l 4.6962,-33.61225 -6.72997,-5.66845 -6.72997,-5.66845 6.35802,-31.09493 6.35802,-31.09495 18.78759,-24.44002 c 16.25576,-21.14647 25.80261,-30.20572 70.8428,-67.22449 28.63036,-23.53145 52.7379,-42.78446 53.57232,-42.78446 2.49266,0 7.65075,43.79465 9.52591,80.87946 1.58726,31.39114 1.12821,37.3393 -4.86384,63.02296 -4.95032,21.21849 -5.9008,29.41837 -3.77438,32.56186 1.56318,2.31084 19.38336,17.74224 39.60041,34.29198 33.19822,27.17621 38.25059,32.34307 52.16678,53.34898 l 15.4085,23.25849 -1.5825,17.02666 c -2.05878,22.15127 -19.16954,86.0594 -25.93217,96.85576 -3.67447,5.86624 -6.11969,16.44331 -8.09957,35.03584 -2.69097,25.27021 19.59037,19.90004 -6.69783,61.65024 -7.5063,11.92129 6.23564,10.88139 -22.51889,35.76388 l -0.25508,1.14393 c -5.10231,22.882 -95.39243,54.42459 -101.97407,54.42459 -2.4673,0 -36.67047,-30.89732 -49.81613,-42.98468 z"
     id="path3979"
     inkscape:connector-curvature="0"
     sodipodi:nodetypes="scsscssscccccsssssssscsssscsss" />
  <path
     style="fill:#c8b7b7;fill-opacity:1;stroke:none"
     d="m 671.26497,645.85462 c -18.0801,-1.87209 -100.7072,-13.8795 -122.5727,-17.81232 l -23.4639,-4.22029 8.3109,-12.229 c 12.9228,-19.0152 10.5132,-43.64939 48.0526,-49.45115 18.2034,-2.81337 49.51408,-2.40171 53.37437,-3.62413 8.332,-2.63846 5.78165,4.0343 6.95743,-3.02542 l 1.676,-10.06321 -38.0882,-18.90689 c -20.9486,-10.39878 -40.2203,-19.55125 -42.8262,-20.33881 -2.6059,-0.78757 -17.2109,-2.53805 -32.4556,-3.88996 -36.5464,-3.241 -59.63486,-7.04544 -67.60113,-11.1391 -4.35408,-2.23746 -7.10115,-6.18782 -8.35701,-12.01757 -2.11424,-9.81447 -13.50064,-21.04658 -67.36872,-66.45592 -18.07946,-15.24049 -33.68793,-30.26036 -34.68547,-33.37748 -0.99755,-3.11713 -0.29541,-20.89865 1.56031,-39.5145 2.61784,-26.26105 2.70375,-44.56409 0.38333,-81.66454 -1.64489,-26.29964 -2.99071,-49.81871 -2.99071,-52.26458 0,-4.12814 0.97094,-4.34603 13.5395,-3.03843 26.77136,2.78522 70.63975,11.58559 77.36702,15.52048 3.77464,2.20785 21.32751,16.26447 39.00638,31.23692 27.9435,23.66572 35.8183,28.96142 60.2689,40.53019 53.2519,25.19609 103.1892,52.16819 130.4691,70.46888 30.1758,20.2433 28.7298,18.1887 46.3696,65.88613 17.9559,48.55211 23.0575,68.3081 20.6843,80.10102 -10.4158,51.75889 -22.6501,99.23864 -30.4489,118.16804 l -9.3041,22.58323 -9.9107,-0.31476 c -5.4508,-0.17312 -13.5267,-0.6892 -17.9464,-1.14683 z"
     id="path3987"
     inkscape:connector-curvature="0"
     sodipodi:nodetypes="sscsssscsssssssssssssssssscss" />
</g>
<path
   style="fill:#ddd2cd;fill-opacity:1;stroke:none;filter:url(#filter3803-4)"
   d="m 0,215.7031 c -262.66635,0 -430.03127,170.22535 -430.03127,380.21875 0,209.9934 167.36492,380.25 373.843753,380.25 206.478897,0 373.843697,-170.2566 373.843697,-380.25 0,-209.9934 -167.3648,-380.21875 -373.843697,-380.21875 z m -56.187517,47.375 c 183.831897,0 332.874997,149.01182 332.874997,332.84375 0,183.83193 -149.0431,332.875 -332.874997,332.875 -183.831933,0 -332.843753,-149.04307 -332.843753,-332.875 0,-183.83193 149.01182,-332.84375 332.843753,-332.84375 z"
   id="path4130-9"
   inkscape:connector-curvature="0"
   inkscape:export-filename="D:\projects\bubblesurviver\img\light.png"
   inkscape:export-xdpi="3.2720225"
   inkscape:export-ydpi="3.2720225"
   transform="matrix(0.13300905,0,0,0.13151848,262.47345,598.98539)" />
<rect
   style="fill:#30618e;fill-opacity:1;stroke:none"
   id="rect3005"
   width="429.28571"
   height="316.42856"
   x="236.42857"
   y="477.36218" />
<path
   style="fill:#ffff00;fill-opacity:1;stroke:none;filter:url(#filter3839)"
   d="m -44.578124,167.10937 c 44.578124,-0.0186 -0.30104,7.0146 0.0937,18 0.27814,-10.95571 0.32189,-17.98114 -0.0937,-18 z m 0.0937,18 c -0.68875,27.12884 -3.05171,80.72571 -5.25,131.65625 3.98556,0.11892 7.96399,0.31077 11.90625,0.59375 -2.77567,-51.66577 -5.68396,-105.19474 -6.65625,-132.25 z m 60.2813,-8.5625 c -0.63317,-0.10321 -2.98087,15.02657 -6.1562496,37.71875 4.1744496,-22.53138 6.7770296,-37.61756 6.1562496,-37.71875 z m -6.1562496,37.71875 c -5.2048,28.09262 -12.87182,67.68856 -20.3437504,106.375 1.9838104,0.33778 3.9680704,0.68343 5.9375004,1.0625 5.12016997,-38.6662 10.41652,-78.92569 14.40625,-107.4375 z M -96.359374,178.42187 c -0.38998,0.0323 0.4006,5.95908 1.875,15.25 -0.83575,-9.36229 -1.4916,-15.28176 -1.875,-15.25 z m 1.875,15.25 c 2.1783,24.40205 5.61742,74.73251 9,124.25 4.21879,-0.40487 8.44763,-0.721 12.71875,-0.9375 -3.81138,-21.17759 -7.68838,-42.6714 -11.17103,-62.20675 -4.51047,-25.3007 -8.35946,-47.31639 -10.54772,-61.10575 z m -51.499996,-7.34375 c -0.37645,0.087 1.02477,5.94938 3.4375,15.125 -1.78554,-9.33074 -3.06241,-15.21169 -3.4375,-15.125 z m 3.4375,15.125 c 4.59266,23.9999 12.96711,73.34668 21.28125,122.21875 4.07809,-0.93255 8.20028,-1.74676 12.34375,-2.5 -13.59075,-47.66555 -27.38953,-96.00525 -33.625,-119.71875 z M 76.390626,187.29687 c -0.30949,-0.10804 -1.60511,3.90997 -3.65625,11 2.59989,-6.87857 3.96903,-10.89081 3.65625,-11 z m -3.65625,11.03125 c -8.71789,23.06207 -31.26503,78.24542 -52.125,129.53125 5.45668,1.59051 10.8421,3.31212 16.15625,5.21875 14.16872,-53.9646 29.15407,-111.18905 35.96875,-134.75 z m -277.406246,3.46875 c -0.38027,0.13907 2.15124,6.55134 6.3125,16.5 -3.51741,-10.18223 -5.91727,-16.64454 -6.3125,-16.5 z m 6.3125,16.5 c 8.41124,24.34892 23.83802,71.85258 38.59375,117.1875 3.53536,-1.36765 7.08476,-2.67896 10.6875,-3.90625 -19.65267,-44.70963 -39.47707,-89.84161 -49.28125,-113.28125 z m 317.0625,-7.5 c -0.59008,0.43116 -3.53679,7.45729 -7.8125,18.15625 5.12936,-10.90981 8.29822,-17.9582 7.90625,-18.15625 -0.0185,-0.009 -0.0641,-0.0216 -0.0937,0 z m -7.8125,18.15625 c -11.369704,24.18261 -33.247634,68.80471 -54.437504,112.03125 3.23239,1.44493 6.42722,2.96936 9.59375,4.53125 17.32921,-45.47722 34.961364,-91.83411 44.843754,-116.5625 z m -358.875,-4.3125 c -0.43623,0.23374 3.67101,7.84394 10.59375,20 -6.16699,-12.50882 -10.16737,-20.22845 -10.59375,-20 z m 422.34375,12.875 c -0.87543,0.45286 -7.29301,10.53894 -16.6875,25.78125 10.52526,-15.3707 17.2211,-25.49233 16.75,-25.78125 -0.0178,-0.0109 -0.0283,-0.0177 -0.0625,0 z m -16.6875,25.78125 c -16.25517,23.73845 -41.81333,60.25786 -66.843754,96.03125 2.10514,1.31757 4.1827,2.66004 6.25,4.03125 22.489884,-37.33551 45.487344,-75.55275 60.593754,-100.0625 z m -449.3125,-20.75 c -0.26792,0.19778 2.02127,3.64684 6.21875,9.5625 -3.70938,-6.25403 -5.95295,-9.75872 -6.21875,-9.5625 z m 54.40625,2.34375 c 11.56713,23.47474 30.7214,63.81151 49.46875,103.21875 2.77016,-1.43826 5.55192,-2.83961 8.375,-4.1875 -21.86836,-37.19046 -44.75905,-76.06671 -57.84375,-99.03125 z m -48.0625,7.375 c 11.98273,20.21988 38.98798,68.64862 65.1875,115.5 4.50329,-3.17075 9.12019,-6.18586 13.8125,-9.09375 -31.96469,-42.6759 -65.35198,-87.18371 -79,-106.40625 z m 511.03125,17 c -0.52619,0.19818 -3.1904,3.33046 -7.4375,8.65625 4.99019,-5.3077 7.75256,-8.45517 7.5,-8.65625 -0.0162,-0.0129 -0.0274,-0.0132 -0.0625,0 z m -570.25,6.53125 c -0.0361,-0.0114 -0.0469,0.0174 -0.0625,0.0312 -0.47477,0.42067 10.11922,12.04395 26.21875,29.28125 -14.83723,-17.32514 -25.08042,-28.97265 -26.15625,-29.31245 z m 26.15625,29.3125 c 19.0491,22.24332 45.59745,53.7525 71.28125,84.1875 1.47802,-1.33767 2.99369,-2.63103 4.5,-3.9375 -27.62227,-29.14111 -55.87822,-58.9404 -75.78125,-80.25 z m 536.625,-27.125 c -16.88913,17.95914 -59.23785,60.68163 -99.4375,101.34375 4.57005,3.70538 9.0171,7.55176 13.34375,11.53125 33.88517,-44.77483 70.57021,-93.40465 86.09375,-112.875 z m 41.71875,31.53125 c -0.58855,0.14309 -4.35139,3.84686 -10.09375,9.71875 6.48014,-5.74173 10.43163,-9.43944 10.1875,-9.71875 -0.0137,-0.0157 -0.0581,-0.009 -0.0937,0 z m -10.09375,9.71875 c -19.04906,16.87843 -61.92421,53.09474 -102.09375,87.125 3.30308,3.54962 6.50682,7.1894 9.625,10.90625 36.55352,-39.05811 74.73851,-79.90107 92.46875,-98.03125 z m -636.53125,1.46875 c -0.18886,0.22204 2.49388,2.42024 7.15625,5.96875 -4.33582,-3.94655 -6.96448,-6.19421 -7.15625,-5.96875 z m 7.15625,5.96875 c 16.75762,15.25315 60.24121,57.36771 100.71875,96.5 4.01974,-5.06162 8.21026,-10.01148 12.5625,-14.78125 -46.35177,-33.13513 -95.34637,-68.06858 -113.28125,-81.71875 z m 673.0625,21.5625 c -1.25674,0.12374 -17.13076,11.98994 -39.46875,29.03125 23.61914,-16.6395 39.93822,-28.41224 39.53125,-29 -0.0117,-0.0169 -0.0251,-0.0349 -0.0625,-0.0312 z m -39.46875,29.03125 c -23.30208,16.41614 -53.43927,37.41271 -82.84375,57.90625 0.89007,1.25227 1.75503,2.5139 2.625,3.78125 28.46592,-21.94612 57.56294,-44.40372 80.21875,-61.6875 z m -675.78125,-9.28125 c -0.0388,-0.002 -0.0508,0.0144 -0.0625,0.0312 -0.32267,0.46286 10.3505,6.94836 26.6875,16.5625 -15.27437,-10.00127 -25.62186,-16.53968 -26.625,-16.5937 z m 26.625,16.59375 c 24.29291,15.90648 61.40523,40.79003 97.65625,65.03125 1.29868,-2.08769 2.61738,-4.16802 3.96875,-6.21875 -37.29329,-21.47654 -76.35093,-43.939 -101.625,-58.8125 z m 708.03125,10.53125 c -0.44733,-8e-5 -3.09356,1.60611 -7.3125,4.34375 4.77168,-2.49587 7.53264,-4.05961 7.40625,-4.3125 -0.009,-0.0185 -0.0591,-0.0312 -0.0937,-0.0312 z m -7.3125,4.34375 c -18.70314,9.78285 -70.22027,34.57052 -119.8125,58.5 3.30046,5.7398 6.38316,11.60836 9.28125,17.59375 45.11332,-31.37631 92.65535,-64.49419 110.53125,-76.09375 z m -740.9375,24.65625 c -0.0357,0.004 -0.0847,0.0124 -0.0937,0.0312 -0.14857,0.30998 3.87916,2.05845 10.78125,4.84375 -6.21494,-3.11662 -10.12975,-4.93578 -10.6875,-4.875 z m 10.6875,4.875 c 19.94498,10.00187 64.60917,33.87977 108.0625,57.09375 2.00519,-4.61934 4.10192,-9.16949 6.34375,-13.65625 -46.55972,-17.42403 -93.78837,-35.11727 -114.40625,-43.4375 z m 771.09375,29.28125 c -1.95487,0.13516 -16.67847,5.50099 -37.96875,13.53125 23.09191,-7.59321 38.41103,-12.87416 38.1875,-13.5 -0.014,-0.0392 -0.0862,-0.0404 -0.21875,-0.0312 z m -809.03125,11.84375 c -0.1332,-0.004 -0.2054,0.023 -0.21875,0.0625 -0.19798,0.58579 13.54403,4.62136 34.21875,10.375 -18.9858,-6.23282 -32.17996,-10.3877 -34,-10.4375 z m 34,10.4375 c 26.42525,8.67512 64.22178,21.44777 101.40625,34 0.61549,-1.98383 1.24832,-3.97273 1.90625,-5.9375 -37.73881,-10.16671 -76.40114,-20.57323 -103.3125,-28.0625 z m 736.875,-8.6875 c -27.25227,8.95961 -64.98973,21.04602 -101.125,32.65625 0.63016,1.78918 1.2177,3.60071 1.8125,5.40625 35.69532,-13.74624 72.55741,-27.96937 99.3125,-38.0625 z m 55.40625,27.84375 c -1.10618,-4.2e-4 -6.73237,1.42044 -14.96875,3.6875 9.3879,-1.92234 15.27939,-3.28764 15.1875,-3.65625 -0.01,-0.0401 -0.0828,-0.0312 -0.21875,-0.0312 z m -14.96875,3.6875 c -26.00925,5.32587 -81.52976,15.47843 -134.28125,25.1875 1.11295,4.38418 2.09559,8.8177 3,13.28125 51.6535,-15.33402 105.70385,-31.42858 131.28125,-38.46875 z m -829.21875,23.15625 c -0.12896,0.008 -0.17993,0.0218 -0.1875,0.0625 -0.0509,0.274 3.03079,0.77711 8.34375,1.40625 -4.45241,-0.95038 -7.40227,-1.51555 -8.15625,-1.46875 z m 8.15625,1.46875 c 21.2996,4.5465 80.05732,19.19219 135,32.8125 0.90407,-6.84266 2.08215,-13.60283 3.46875,-20.28125 -57.20842,-4.90578 -116.98644,-9.98737 -138.46875,-12.53125 z m 842.71875,42.0625 c -4.57193,0.0651 -14.3763,0.64649 -27.0625,1.5 18.30224,-0.3459 30.16156,-0.77121 30.125,-1.3125 -0.0111,-0.1648 -1.06207,-0.21596 -3.0625,-0.1875 z m -27.0625,1.5 c -29.58016,0.55904 -76.27509,0.91814 -121.375,1.3125 0.22914,2.58651 0.43507,5.17511 0.59375,7.78125 44.87001,-3.48046 91.30282,-7.11046 120.78125,-9.09375 z m -820.71875,-0.90625 c -0.48418,0.0201 -0.74388,0.0742 -0.75,0.15625 -0.0509,0.68215 17.08927,1.94106 42.21875,3.4375 -22.04797,-2.25458 -37.94831,-3.73979 -41.46875,-3.59375 z m 41.46875,3.59375 c 26.60425,2.7205 61.97304,6.56633 96.5,10.3125 0.0793,-1.68476 0.17245,-3.35436 0.28125,-5.03125 -34.55875,-1.84533 -70.06322,-3.6902 -96.78125,-5.28125 z m 658.84375,32.65625 c -0.2129,6.85867 -0.64852,13.64847 -1.34375,20.375 55.30485,-0.005 114.72494,-0.10577 136.3125,0.59375 -21.2337,-2.70811 -79.25342,-12.04441 -134.96875,-20.96875 z m 134.96875,20.96875 c 5.33514,0.68043 8.48686,0.96611 8.5,0.6875 0.0135,-0.2854 -3.14279,-0.5139 -8.5,-0.6875 z m -697.4375,-19.25 c -55.16084,6.88135 -113.84715,14.2411 -136.59375,16.40625 22.74715,-0.16386 81.61531,1.18742 137.875,2.40625 -0.64573,-6.21421 -1.04665,-12.48481 -1.28125,-18.8125 z m -136.59375,16.40625 c -6.20295,0.0447 -9.84202,0.19861 -9.8125,0.5 0.0299,0.30516 3.65551,0.0861 9.8125,-0.5 z m 695.375,19.6875 c -0.20885,1.25047 -0.43097,2.50518 -0.65625,3.75 30.99607,4.36172 62.6913,8.83647 88.65625,12.59375 -25.86968,-4.72027 -57.3818,-10.63518 -88,-16.34375 z m 88,16.34375 c 31.01999,5.66002 53.37414,9.51665 53.53125,8.75 0.15577,-0.76012 -22.25486,-4.22411 -53.53125,-8.75 z m -640.59375,-3.15625 c -38.33271,9.93383 -77.37433,20.05153 -104.40625,26.8125 27.40013,-5.52111 67.10545,-13.12725 105.84375,-20.59375 -0.49815,-2.0687 -0.98534,-4.13252 -1.4375,-6.21875 z m -104.40625,26.8125 c -20.56348,4.14354 -34.21245,7.12529 -34.09375,7.71875 0.11785,0.58925 13.70782,-2.62001 34.09375,-7.71875 z m 651.4375,-14.3125 c -1.22852,4.62778 -2.57606,9.21911 -4.03125,13.75 50.57776,12.61712 103.08994,25.68966 127,32.21875 -23.52622,-8.30093 -74.55741,-27.66724 -122.96875,-45.96875 z m 122.96875,45.96875 c 8.12637,2.8673 13.25172,4.50493 13.375,4.15625 0.12198,-0.34501 -5.02008,-1.87477 -13.375,-4.15625 z m -662.15625,-29.71875 c -44.82478,19.58992 -90.95618,39.79642 -113.90625,49.28125 23.34288,-7.84689 70.9662,-22.79183 118.09375,-37.59375 -1.47266,-3.85817 -2.8819,-7.75001 -4.1875,-11.6875 z m -113.90625,49.28125 c -9.2271,3.10177 -15.04597,5.19962 -14.90625,5.5625 0.14226,0.36951 5.93717,-1.85574 14.90625,-5.5625 z m 639.375,-26.03125 c -1.98161,4.56813 -4.09945,9.06142 -6.3125,13.5 48.75649,18.99866 99.01477,38.53232 121.125,47.75 -21.38455,-10.87698 -68.93299,-36.53576 -114.8125,-61.25 z m 114.8125,61.25 c 7.14139,3.63238 11.53272,5.68884 11.6875,5.375 0.15416,-0.31257 -4.26691,-2.28138 -11.6875,-5.375 z m -624,-45.53125 c -43.18286,26.96988 -87.13931,54.41341 -109.15625,67.59375 22.93004,-11.80687 69.68921,-34.73294 114.90625,-56.9375 -1.98295,-3.50806 -3.91535,-7.05665 -5.75,-10.65625 z m -109.15625,67.59375 c -9.0022,4.63531 -14.70641,7.70861 -14.53125,8.0625 0.17274,0.34903 5.80244,-2.83704 14.53125,-8.0625 z m 600.21875,-48.4375 c -1.89625,3.09611 -3.86389,6.17192 -5.875,9.1875 42.68,23.03202 85.96389,46.38404 108.46875,59.03125 C 262.79031,799.0181 221.957,771.64499 181.89063,744.79687 z m 102.59375,68.21875 c 9.43717,6.0891 15.57599,9.87616 15.8125,9.53125 0.23571,-0.34374 -5.97182,-4.001 -15.8125,-9.53125 z m -575.53125,-56.75 c -31.18875,24.91247 -62.8871,50.23915 -84.4375,67.125 22.28644,-15.79431 55.51665,-38.89877 88.28125,-61.65625 -1.29623,-1.80963 -2.58972,-3.62744 -3.84375,-5.46875 z m -84.4375,67.125 c -15.91759,11.28075 -26.33321,18.8992 -26,19.375 0.33409,0.47708 10.62222,-7.3257 26,-19.375 z m 534.53125,-46.5625 c -2.14192,2.60043 -4.33028,5.16652 -6.5625,7.6875 38.95423,30.16363 80.22904,62.07087 103.21875,80.375 -21.75898,-19.39162 -59.87698,-54.37743 -96.65625,-88.0625 z m 96.65625,88.0625 c 10.75044,9.58082 17.63592,15.45556 17.9375,15.09375 0.30778,-0.36924 -6.64134,-6.09987 -17.9375,-15.09375 z m -526.8125,-82.71875 c -31.7339,35.48029 -64.32652,71.94457 -82.78125,91.96875 19.58225,-18.90085 55.22408,-52.21533 89.59375,-84.40625 -2.30813,-2.47963 -4.59407,-5.00068 -6.8125,-7.5625 z m -82.78125,91.96875 c -9.46381,9.1345 -15.33611,15.05548 -15.03125,15.40625 0.30251,0.34808 6.08226,-5.69622 15.03125,-15.40625 z m 490.875,-73.4375 c -2.85256,2.7491 -5.78366,5.40348 -8.75,8.03125 36.98259,36.39387 75.29224,74.05931 94.53125,93.65625 -18.10631,-20.85874 -52.79499,-62.32511 -85.78125,-101.6875 z m 85.78125,101.6875 c 7.43711,8.56767 12.33483,13.96286 12.65625,13.6875 0.31708,-0.27164 -4.69132,-5.57438 -12.65625,-13.6875 z m -471.4375,-97.125 c -34.23899,48.81366 -70.79292,101.00609 -84.5,119.3125 15.33867,-17.06345 59.6291,-63.19331 100.375,-105.75 -5.45714,-4.31979 -10.75655,-8.85752 -15.875,-13.5625 z m -84.5,119.3125 c -3.72844,4.14769 -5.83899,6.6533 -5.625,6.84375 0.21184,0.18854 2.27037,-2.3635 5.625,-6.84375 z m 440.4375,-98.96875 c -3.37409,2.45857 -6.79599,4.84642 -10.281254,7.15625 31.008074,39.8251 62.520904,80.26609 77.593754,100.4375 -13.73301,-21.1858 -40.80529,-64.87309 -67.3125,-107.59375 z m 67.3125,107.59375 c 5.35848,8.26648 8.86984,13.4483 9.1875,13.21875 0.31511,-0.22769 -3.29566,-5.33393 -9.1875,-13.21875 z m -386.8125,-99.5625 c -24.5646,43.19867 -50.48442,88.8931 -64.59375,112.8125 15.37973,-22.86697 45.17657,-65.62248 73.9375,-106.9375 -3.15917,-1.89612 -6.26673,-3.85999 -9.34375,-5.875 z m -64.59375,112.8125 c -6.7434,10.02625 -10.94992,16.5127 -10.59375,16.75 0.36383,0.24241 4.44628,-6.32826 10.59375,-16.75 z m 353.187496,-101.25 c -2.69695,1.47222 -5.40672,2.89566 -8.15625,4.28125 22.81862,38.4102 46.416404,78.1007 59.781254,101.3125 -11.92231,-23.7314 -31.899634,-64.94636 -51.625004,-105.59375 z m 51.625004,105.59375 c 6.31014,12.56035 10.42197,20.36484 10.84375,20.15625 0.43168,-0.21348 -3.79055,-7.90639 -10.84375,-20.15625 z m -310.4375,-100.15625 c -14.70268,35.07927 -29.60067,70.62456 -40.34375,95.6875 11.86929,-24.53719 28.94615,-59.06015 45.75,-93.09375 -1.81004,-0.84387 -3.6174,-1.71275 -5.40625,-2.59375 z m -40.34375,95.6875 c -9.55764,19.75837 -15.71677,33.04057 -15.15625,33.3125 0.55966,0.27152 6.50217,-13.12307 15.15625,-33.3125 z m 267.031246,-86.125 c -6.04966,2.36727 -12.19236,4.51658 -18.4375,6.46875 24.57169,53.18035 51.40668,110.97803 60.9375,133.21875 -7.54999,-22.8428 -25.60763,-83.3653 -42.5,-139.6875 z m 42.5,139.6875 c 2.00285,6.05968 3.28088,9.54598 3.5625,9.43748 0.28358,-0.1092 -1.0511,-3.577 -3.5625,-9.43748 z M -150.26562,864.07812 c -10.62681,51.96718 -21.60528,105.7871 -27.0625,129.65625 7.15075,-23.2998 24.37933,-75.03957 41.0625,-125.21875 -4.71785,-1.35784 -9.38739,-2.84298 -14,-4.4375 z m -27.0625,129.65625 c -2.41251,7.86083 -3.7405,12.63653 -3.40625,12.75003 0.33588,0.114 1.56887,-4.7136 3.40625,-12.75003 z m 181.5624964,-121.25 c -3.92585003,0.89024 -7.88872,1.7133 -11.875,2.4375 C 8.5175564,925.84082 25.501096,979.22803 33.484376,1005.9844 27.096386,978.69709 15.309106,923.79071 4.2343764,872.48437 z M 33.484376,1005.9844 c 2.50976,10.7208 4.25508,17.5517 4.65625,17.4687 0.39409,-0.082 -1.49834,-6.8849 -4.65625,-17.4687 z M -117.95312,873.10937 c -7.63015,50.76536 -15.40179,102.66007 -19.375,125.3125 5.79139,-22.42321 20.31594,-73.42074 34.28125,-122.5 -5.01679,-0.80205 -9.98168,-1.74897 -14.90625,-2.8125 z m -19.375,125.3125 c -1.89188,7.32503 -2.89941,11.72213 -2.5625,11.78123 0.33191,0.058 1.25118,-4.305 2.5625,-11.78123 z m 105.281246,-120.1875 c -3.39157,0.31358 -6.79338,0.58911 -10.21875,0.78125 8.01951,45.44422 16.25698,92.07639 20.375,117.8125 -2.54044,-25.82079 -6.38547,-72.73379 -10.15625,-118.59375 z m 10.15625,118.59375 c 1.20798,12.27788 2.14425,20.07228 2.59375,20.03128 0.45066,-0.041 -0.64161,-7.8311 -2.59375,-20.03128 z m -55.40625,-118.03125 c -1.28691,39.43284 -2.59842,80.15762 -3.75,108.78125 2.42209,-28.51415 6.1979,-69.04785 9.84375,-108.40625 -2.04108,-0.0923 -4.06422,-0.23949 -6.09375,-0.375 z m -3.75,108.78125"
   id="path3817"
   inkscape:connector-curvature="0"
   sodipodi:nodetypes="scsccccscsccccccccccsccccccccscsccccscsccccsccsccccscsccccccccscscccccccccccccsccccccccccccccccccscscccccccccccccccccccccccccccccccccccccccccscccccccccccccccccccsccccccscssccccsccscccccccccsccccccsccccccsccccccsccccccsccccccsccccccsccccccsccccccsccccccsccccccsccccccsccccccsccccccscccccccccccccccccccccccccccscccccccccccccscccccccccccccsccccccsccccccsc"
   inkscape:export-filename="D:\projects\bubblesurviver\img\light3.png"
   inkscape:export-xdpi="28.199995"
   inkscape:export-ydpi="28.199995"
   transform="matrix(0.10640958,0,0,0.10675742,334.19318,539.1686)" />
<path
   style="fill:#ffff00;fill-opacity:1;stroke:none;filter:url(#filter3839-1)"
   d=""
   id="path3817-4"
   inkscape:connector-curvature="0"
   sodipodi:nodetypes="scsccccscsccccccccccsccccccccscsccccscsccccsccsccccscsccccccccscscccccccccccccsccccccccccccccccccscscccccccccccccccccccccccccccccccccccccccccscccccccccccccccccccsccccccscssccccsccscccccccccsccccccsccccccsccccccsccccccsccccccsccccccsccccccsccccccsccccccsccccccsccccccsccccccsccccccscccccccccccccccccccccccccccscccccccccccccscccccccccccccsccccccsccccccsc"
   inkscape:export-filename="D:\projects\bubblesurviver\img\light3.png"
   inkscape:export-xdpi="31.5"
   inkscape:export-ydpi="31.5"
   transform="matrix(0.10640958,0,0,0.10675742,55.978895,-13.550726)" />
<path
   id="path3819"
   d=""
   inkscape:connector-curvature="0" />



&quot;
     inkscape:export-ydpi=&quot;31.5&quot;
     inkscape:export-xdpi=&quot;31.5&quot;
     inkscape:export-filename=&quot;D:\projects\bubblesurviver\img\light3.png&quot;
     sodipodi:nodetypes=&quot;scsccccscsccccccccccsccccccccscsccccscsccccsccsccccscsccccccccscscccccccccccccsccccccccccccccccccscscccccccccccccccccccccccccccccccccccccccccscccccccccccccccccccsccccccscssccccsccscccccccccsccccccsccccccsccccccsccccccsccccccsccccccsccccccsccccccsccccccsccccccsccccccsccccccsccccccscccccccccccccccccccccccccccscccccccccccccscccccccccccccsccccccsccccccsc&quot;
     inkscape:connector-curvature=&quot;0&quot;
     id=&quot;path3817&quot;
     d=&quot;&quot;
     style=&quot;fill:#ffff00;fill-opacity:1;stroke:none;filter:url(#filter3839)&quot; /&gt;
<path
   style="fill:#ffff00;fill-opacity:1;stroke:none;filter:url(#filter3839-4)"
   d=""
   id="path3817-8"
   inkscape:connector-curvature="0"
   sodipodi:nodetypes="scsccccscsccccccccccsccccccccscsccccscsccccsccsccccscsccccccccscscccccccccccccsccccccccccccccccccscscccccccccccccccccccccccccccccccccccccccccscccccccccccccccccccsccccccscssccccsccscccccccccsccccccsccccccsccccccsccccccsccccccsccccccsccccccsccccccsccccccsccccccsccccccsccccccsccccccscccccccccccccccccccccccccccscccccccccccccscccccccccccccsccccccsccccccsc"
   inkscape:export-filename="D:\projects\bubblesurviver\img\light3.png"
   inkscape:export-xdpi="31.5"
   inkscape:export-ydpi="31.5"
   transform="matrix(0.10640958,0,0,0.10675742,55.978895,-13.550726)" />
<path
   style="fill:#ffff00;fill-opacity:1;stroke:none;filter:url(#filter3839-17)"
   d="m -44.578124,167.10937 c 44.578124,-0.0186 -0.30104,7.0146 0.0937,18 0.27814,-10.95571 0.32189,-17.98114 -0.0937,-18 z m 0.0937,18 c -0.68875,27.12884 -3.05171,80.72571 -5.25,131.65625 3.98556,0.11892 7.96399,0.31077 11.90625,0.59375 -2.77567,-51.66577 -5.68396,-105.19474 -6.65625,-132.25 z m 60.2813,-8.5625 c -0.63317,-0.10321 -2.98087,15.02657 -6.1562496,37.71875 4.1744496,-22.53138 6.7770296,-37.61756 6.1562496,-37.71875 z m -6.1562496,37.71875 c -5.2048,28.09262 -12.87182,67.68856 -20.3437504,106.375 1.9838104,0.33778 3.9680704,0.68343 5.9375004,1.0625 5.12016997,-38.6662 10.41652,-78.92569 14.40625,-107.4375 z M -96.359374,178.42187 c -0.38998,0.0323 0.4006,5.95908 1.875,15.25 -0.83575,-9.36229 -1.4916,-15.28176 -1.875,-15.25 z m 1.875,15.25 c 2.1783,24.40205 5.61742,74.73251 9,124.25 4.21879,-0.40487 8.44763,-0.721 12.71875,-0.9375 -3.81138,-21.17759 -7.68838,-42.6714 -11.17103,-62.20675 -4.51047,-25.3007 -8.35946,-47.31639 -10.54772,-61.10575 z m -51.499996,-7.34375 c -0.37645,0.087 1.02477,5.94938 3.4375,15.125 -1.78554,-9.33074 -3.06241,-15.21169 -3.4375,-15.125 z m 3.4375,15.125 c 4.59266,23.9999 12.96711,73.34668 21.28125,122.21875 4.07809,-0.93255 8.20028,-1.74676 12.34375,-2.5 -13.59075,-47.66555 -27.38953,-96.00525 -33.625,-119.71875 z M 76.390626,187.29687 c -0.30949,-0.10804 -1.60511,3.90997 -3.65625,11 2.59989,-6.87857 3.96903,-10.89081 3.65625,-11 z m -3.65625,11.03125 c -8.71789,23.06207 -31.26503,78.24542 -52.125,129.53125 5.45668,1.59051 10.8421,3.31212 16.15625,5.21875 14.16872,-53.9646 29.15407,-111.18905 35.96875,-134.75 z m -277.406246,3.46875 c -0.38027,0.13907 2.15124,6.55134 6.3125,16.5 -3.51741,-10.18223 -5.91727,-16.64454 -6.3125,-16.5 z m 6.3125,16.5 c 8.41124,24.34892 23.83802,71.85258 38.59375,117.1875 3.53536,-1.36765 7.08476,-2.67896 10.6875,-3.90625 -19.65267,-44.70963 -39.47707,-89.84161 -49.28125,-113.28125 z m 317.0625,-7.5 c -0.59008,0.43116 -3.53679,7.45729 -7.8125,18.15625 5.12936,-10.90981 8.29822,-17.9582 7.90625,-18.15625 -0.0185,-0.009 -0.0641,-0.0216 -0.0937,0 z m -7.8125,18.15625 c -11.369704,24.18261 -33.247634,68.80471 -54.437504,112.03125 3.23239,1.44493 6.42722,2.96936 9.59375,4.53125 17.32921,-45.47722 34.961364,-91.83411 44.843754,-116.5625 z m -358.875,-4.3125 c -0.43623,0.23374 3.67101,7.84394 10.59375,20 -6.16699,-12.50882 -10.16737,-20.22845 -10.59375,-20 z m 422.34375,12.875 c -0.87543,0.45286 -7.29301,10.53894 -16.6875,25.78125 10.52526,-15.3707 17.2211,-25.49233 16.75,-25.78125 -0.0178,-0.0109 -0.0283,-0.0177 -0.0625,0 z m -16.6875,25.78125 c -16.25517,23.73845 -41.81333,60.25786 -66.843754,96.03125 2.10514,1.31757 4.1827,2.66004 6.25,4.03125 22.489884,-37.33551 45.487344,-75.55275 60.593754,-100.0625 z m -449.3125,-20.75 c -0.26792,0.19778 2.02127,3.64684 6.21875,9.5625 -3.70938,-6.25403 -5.95295,-9.75872 -6.21875,-9.5625 z m 54.40625,2.34375 c 11.56713,23.47474 30.7214,63.81151 49.46875,103.21875 2.77016,-1.43826 5.55192,-2.83961 8.375,-4.1875 -21.86836,-37.19046 -44.75905,-76.06671 -57.84375,-99.03125 z m -48.0625,7.375 c 11.98273,20.21988 38.98798,68.64862 65.1875,115.5 4.50329,-3.17075 9.12019,-6.18586 13.8125,-9.09375 -31.96469,-42.6759 -65.35198,-87.18371 -79,-106.40625 z m 511.03125,17 c -0.52619,0.19818 -3.1904,3.33046 -7.4375,8.65625 4.99019,-5.3077 7.75256,-8.45517 7.5,-8.65625 -0.0162,-0.0129 -0.0274,-0.0132 -0.0625,0 z m -570.25,6.53125 c -0.0361,-0.0114 -0.0469,0.0174 -0.0625,0.0312 -0.47477,0.42067 10.11922,12.04395 26.21875,29.28125 -14.83723,-17.32514 -25.08042,-28.97265 -26.15625,-29.31245 z m 26.15625,29.3125 c 19.0491,22.24332 45.59745,53.7525 71.28125,84.1875 1.47802,-1.33767 2.99369,-2.63103 4.5,-3.9375 -27.62227,-29.14111 -55.87822,-58.9404 -75.78125,-80.25 z m 536.625,-27.125 c -16.88913,17.95914 -59.23785,60.68163 -99.4375,101.34375 4.57005,3.70538 9.0171,7.55176 13.34375,11.53125 33.88517,-44.77483 70.57021,-93.40465 86.09375,-112.875 z m 41.71875,31.53125 c -0.58855,0.14309 -4.35139,3.84686 -10.09375,9.71875 6.48014,-5.74173 10.43163,-9.43944 10.1875,-9.71875 -0.0137,-0.0157 -0.0581,-0.009 -0.0937,0 z m -10.09375,9.71875 c -19.04906,16.87843 -61.92421,53.09474 -102.09375,87.125 3.30308,3.54962 6.50682,7.1894 9.625,10.90625 36.55352,-39.05811 74.73851,-79.90107 92.46875,-98.03125 z m -636.53125,1.46875 c -0.18886,0.22204 2.49388,2.42024 7.15625,5.96875 -4.33582,-3.94655 -6.96448,-6.19421 -7.15625,-5.96875 z m 7.15625,5.96875 c 16.75762,15.25315 60.24121,57.36771 100.71875,96.5 4.01974,-5.06162 8.21026,-10.01148 12.5625,-14.78125 -46.35177,-33.13513 -95.34637,-68.06858 -113.28125,-81.71875 z m 673.0625,21.5625 c -1.25674,0.12374 -17.13076,11.98994 -39.46875,29.03125 23.61914,-16.6395 39.93822,-28.41224 39.53125,-29 -0.0117,-0.0169 -0.0251,-0.0349 -0.0625,-0.0312 z m -39.46875,29.03125 c -23.30208,16.41614 -53.43927,37.41271 -82.84375,57.90625 0.89007,1.25227 1.75503,2.5139 2.625,3.78125 28.46592,-21.94612 57.56294,-44.40372 80.21875,-61.6875 z m -675.78125,-9.28125 c -0.0388,-0.002 -0.0508,0.0144 -0.0625,0.0312 -0.32267,0.46286 10.3505,6.94836 26.6875,16.5625 -15.27437,-10.00127 -25.62186,-16.53968 -26.625,-16.5937 z m 26.625,16.59375 c 24.29291,15.90648 61.40523,40.79003 97.65625,65.03125 1.29868,-2.08769 2.61738,-4.16802 3.96875,-6.21875 -37.29329,-21.47654 -76.35093,-43.939 -101.625,-58.8125 z m 708.03125,10.53125 c -0.44733,-8e-5 -3.09356,1.60611 -7.3125,4.34375 4.77168,-2.49587 7.53264,-4.05961 7.40625,-4.3125 -0.009,-0.0185 -0.0591,-0.0312 -0.0937,-0.0312 z m -7.3125,4.34375 c -18.70314,9.78285 -70.22027,34.57052 -119.8125,58.5 3.30046,5.7398 6.38316,11.60836 9.28125,17.59375 45.11332,-31.37631 92.65535,-64.49419 110.53125,-76.09375 z m -740.9375,24.65625 c -0.0357,0.004 -0.0847,0.0124 -0.0937,0.0312 -0.14857,0.30998 3.87916,2.05845 10.78125,4.84375 -6.21494,-3.11662 -10.12975,-4.93578 -10.6875,-4.875 z m 10.6875,4.875 c 19.94498,10.00187 64.60917,33.87977 108.0625,57.09375 2.00519,-4.61934 4.10192,-9.16949 6.34375,-13.65625 -46.55972,-17.42403 -93.78837,-35.11727 -114.40625,-43.4375 z m 771.09375,29.28125 c -1.95487,0.13516 -16.67847,5.50099 -37.96875,13.53125 23.09191,-7.59321 38.41103,-12.87416 38.1875,-13.5 -0.014,-0.0392 -0.0862,-0.0404 -0.21875,-0.0312 z m -809.03125,11.84375 c -0.1332,-0.004 -0.2054,0.023 -0.21875,0.0625 -0.19798,0.58579 13.54403,4.62136 34.21875,10.375 -18.9858,-6.23282 -32.17996,-10.3877 -34,-10.4375 z m 34,10.4375 c 26.42525,8.67512 64.22178,21.44777 101.40625,34 0.61549,-1.98383 1.24832,-3.97273 1.90625,-5.9375 -37.73881,-10.16671 -76.40114,-20.57323 -103.3125,-28.0625 z m 736.875,-8.6875 c -27.25227,8.95961 -64.98973,21.04602 -101.125,32.65625 0.63016,1.78918 1.2177,3.60071 1.8125,5.40625 35.69532,-13.74624 72.55741,-27.96937 99.3125,-38.0625 z m 55.40625,27.84375 c -1.10618,-4.2e-4 -6.73237,1.42044 -14.96875,3.6875 9.3879,-1.92234 15.27939,-3.28764 15.1875,-3.65625 -0.01,-0.0401 -0.0828,-0.0312 -0.21875,-0.0312 z m -14.96875,3.6875 c -26.00925,5.32587 -81.52976,15.47843 -134.28125,25.1875 1.11295,4.38418 2.09559,8.8177 3,13.28125 51.6535,-15.33402 105.70385,-31.42858 131.28125,-38.46875 z m -829.21875,23.15625 c -0.12896,0.008 -0.17993,0.0218 -0.1875,0.0625 -0.0509,0.274 3.03079,0.77711 8.34375,1.40625 -4.45241,-0.95038 -7.40227,-1.51555 -8.15625,-1.46875 z m 8.15625,1.46875 c 21.2996,4.5465 80.05732,19.19219 135,32.8125 0.90407,-6.84266 2.08215,-13.60283 3.46875,-20.28125 -57.20842,-4.90578 -116.98644,-9.98737 -138.46875,-12.53125 z m 842.71875,42.0625 c -4.57193,0.0651 -14.3763,0.64649 -27.0625,1.5 18.30224,-0.3459 30.16156,-0.77121 30.125,-1.3125 -0.0111,-0.1648 -1.06207,-0.21596 -3.0625,-0.1875 z m -27.0625,1.5 c -29.58016,0.55904 -76.27509,0.91814 -121.375,1.3125 0.22914,2.58651 0.43507,5.17511 0.59375,7.78125 44.87001,-3.48046 91.30282,-7.11046 120.78125,-9.09375 z m -820.71875,-0.90625 c -0.48418,0.0201 -0.74388,0.0742 -0.75,0.15625 -0.0509,0.68215 17.08927,1.94106 42.21875,3.4375 -22.04797,-2.25458 -37.94831,-3.73979 -41.46875,-3.59375 z m 41.46875,3.59375 c 26.60425,2.7205 61.97304,6.56633 96.5,10.3125 0.0793,-1.68476 0.17245,-3.35436 0.28125,-5.03125 -34.55875,-1.84533 -70.06322,-3.6902 -96.78125,-5.28125 z m 658.84375,32.65625 c -0.2129,6.85867 -0.64852,13.64847 -1.34375,20.375 55.30485,-0.005 114.72494,-0.10577 136.3125,0.59375 -21.2337,-2.70811 -79.25342,-12.04441 -134.96875,-20.96875 z m 134.96875,20.96875 c 5.33514,0.68043 8.48686,0.96611 8.5,0.6875 0.0135,-0.2854 -3.14279,-0.5139 -8.5,-0.6875 z m -697.4375,-19.25 c -55.16084,6.88135 -113.84715,14.2411 -136.59375,16.40625 22.74715,-0.16386 81.61531,1.18742 137.875,2.40625 -0.64573,-6.21421 -1.04665,-12.48481 -1.28125,-18.8125 z m -136.59375,16.40625 c -6.20295,0.0447 -9.84202,0.19861 -9.8125,0.5 0.0299,0.30516 3.65551,0.0861 9.8125,-0.5 z m 695.375,19.6875 c -0.20885,1.25047 -0.43097,2.50518 -0.65625,3.75 30.99607,4.36172 62.6913,8.83647 88.65625,12.59375 -25.86968,-4.72027 -57.3818,-10.63518 -88,-16.34375 z m 88,16.34375 c 31.01999,5.66002 53.37414,9.51665 53.53125,8.75 0.15577,-0.76012 -22.25486,-4.22411 -53.53125,-8.75 z m -640.59375,-3.15625 c -38.33271,9.93383 -77.37433,20.05153 -104.40625,26.8125 27.40013,-5.52111 67.10545,-13.12725 105.84375,-20.59375 -0.49815,-2.0687 -0.98534,-4.13252 -1.4375,-6.21875 z m -104.40625,26.8125 c -20.56348,4.14354 -34.21245,7.12529 -34.09375,7.71875 0.11785,0.58925 13.70782,-2.62001 34.09375,-7.71875 z m 651.4375,-14.3125 c -1.22852,4.62778 -2.57606,9.21911 -4.03125,13.75 50.57776,12.61712 103.08994,25.68966 127,32.21875 -23.52622,-8.30093 -74.55741,-27.66724 -122.96875,-45.96875 z m 122.96875,45.96875 c 8.12637,2.8673 13.25172,4.50493 13.375,4.15625 0.12198,-0.34501 -5.02008,-1.87477 -13.375,-4.15625 z m -662.15625,-29.71875 c -44.82478,19.58992 -90.95618,39.79642 -113.90625,49.28125 23.34288,-7.84689 70.9662,-22.79183 118.09375,-37.59375 -1.47266,-3.85817 -2.8819,-7.75001 -4.1875,-11.6875 z m -113.90625,49.28125 c -9.2271,3.10177 -15.04597,5.19962 -14.90625,5.5625 0.14226,0.36951 5.93717,-1.85574 14.90625,-5.5625 z m 639.375,-26.03125 c -1.98161,4.56813 -4.09945,9.06142 -6.3125,13.5 48.75649,18.99866 99.01477,38.53232 121.125,47.75 -21.38455,-10.87698 -68.93299,-36.53576 -114.8125,-61.25 z m 114.8125,61.25 c 7.14139,3.63238 11.53272,5.68884 11.6875,5.375 0.15416,-0.31257 -4.26691,-2.28138 -11.6875,-5.375 z m -624,-45.53125 c -43.18286,26.96988 -87.13931,54.41341 -109.15625,67.59375 22.93004,-11.80687 69.68921,-34.73294 114.90625,-56.9375 -1.98295,-3.50806 -3.91535,-7.05665 -5.75,-10.65625 z m -109.15625,67.59375 c -9.0022,4.63531 -14.70641,7.70861 -14.53125,8.0625 0.17274,0.34903 5.80244,-2.83704 14.53125,-8.0625 z m 600.21875,-48.4375 c -1.89625,3.09611 -3.86389,6.17192 -5.875,9.1875 42.68,23.03202 85.96389,46.38404 108.46875,59.03125 C 262.79031,799.0181 221.957,771.64499 181.89063,744.79687 z m 102.59375,68.21875 c 9.43717,6.0891 15.57599,9.87616 15.8125,9.53125 0.23571,-0.34374 -5.97182,-4.001 -15.8125,-9.53125 z m -575.53125,-56.75 c -31.18875,24.91247 -62.8871,50.23915 -84.4375,67.125 22.28644,-15.79431 55.51665,-38.89877 88.28125,-61.65625 -1.29623,-1.80963 -2.58972,-3.62744 -3.84375,-5.46875 z m -84.4375,67.125 c -15.91759,11.28075 -26.33321,18.8992 -26,19.375 0.33409,0.47708 10.62222,-7.3257 26,-19.375 z m 534.53125,-46.5625 c -2.14192,2.60043 -4.33028,5.16652 -6.5625,7.6875 38.95423,30.16363 80.22904,62.07087 103.21875,80.375 -21.75898,-19.39162 -59.87698,-54.37743 -96.65625,-88.0625 z m 96.65625,88.0625 c 10.75044,9.58082 17.63592,15.45556 17.9375,15.09375 0.30778,-0.36924 -6.64134,-6.09987 -17.9375,-15.09375 z m -526.8125,-82.71875 c -31.7339,35.48029 -64.32652,71.94457 -82.78125,91.96875 19.58225,-18.90085 55.22408,-52.21533 89.59375,-84.40625 -2.30813,-2.47963 -4.59407,-5.00068 -6.8125,-7.5625 z m -82.78125,91.96875 c -9.46381,9.1345 -15.33611,15.05548 -15.03125,15.40625 0.30251,0.34808 6.08226,-5.69622 15.03125,-15.40625 z m 490.875,-73.4375 c -2.85256,2.7491 -5.78366,5.40348 -8.75,8.03125 36.98259,36.39387 75.29224,74.05931 94.53125,93.65625 -18.10631,-20.85874 -52.79499,-62.32511 -85.78125,-101.6875 z m 85.78125,101.6875 c 7.43711,8.56767 12.33483,13.96286 12.65625,13.6875 0.31708,-0.27164 -4.69132,-5.57438 -12.65625,-13.6875 z m -471.4375,-97.125 c -34.23899,48.81366 -70.79292,101.00609 -84.5,119.3125 15.33867,-17.06345 59.6291,-63.19331 100.375,-105.75 -5.45714,-4.31979 -10.75655,-8.85752 -15.875,-13.5625 z m -84.5,119.3125 c -3.72844,4.14769 -5.83899,6.6533 -5.625,6.84375 0.21184,0.18854 2.27037,-2.3635 5.625,-6.84375 z m 440.4375,-98.96875 c -3.37409,2.45857 -6.79599,4.84642 -10.281254,7.15625 31.008074,39.8251 62.520904,80.26609 77.593754,100.4375 -13.73301,-21.1858 -40.80529,-64.87309 -67.3125,-107.59375 z m 67.3125,107.59375 c 5.35848,8.26648 8.86984,13.4483 9.1875,13.21875 0.31511,-0.22769 -3.29566,-5.33393 -9.1875,-13.21875 z m -386.8125,-99.5625 c -24.5646,43.19867 -50.48442,88.8931 -64.59375,112.8125 15.37973,-22.86697 45.17657,-65.62248 73.9375,-106.9375 -3.15917,-1.89612 -6.26673,-3.85999 -9.34375,-5.875 z m -64.59375,112.8125 c -6.7434,10.02625 -10.94992,16.5127 -10.59375,16.75 0.36383,0.24241 4.44628,-6.32826 10.59375,-16.75 z m 353.187496,-101.25 c -2.69695,1.47222 -5.40672,2.89566 -8.15625,4.28125 22.81862,38.4102 46.416404,78.1007 59.781254,101.3125 -11.92231,-23.7314 -31.899634,-64.94636 -51.625004,-105.59375 z m 51.625004,105.59375 c 6.31014,12.56035 10.42197,20.36484 10.84375,20.15625 0.43168,-0.21348 -3.79055,-7.90639 -10.84375,-20.15625 z m -310.4375,-100.15625 c -14.70268,35.07927 -29.60067,70.62456 -40.34375,95.6875 11.86929,-24.53719 28.94615,-59.06015 45.75,-93.09375 -1.81004,-0.84387 -3.6174,-1.71275 -5.40625,-2.59375 z m -40.34375,95.6875 c -9.55764,19.75837 -15.71677,33.04057 -15.15625,33.3125 0.55966,0.27152 6.50217,-13.12307 15.15625,-33.3125 z m 267.031246,-86.125 c -6.04966,2.36727 -12.19236,4.51658 -18.4375,6.46875 24.57169,53.18035 51.40668,110.97803 60.9375,133.21875 -7.54999,-22.8428 -25.60763,-83.3653 -42.5,-139.6875 z m 42.5,139.6875 c 2.00285,6.05968 3.28088,9.54598 3.5625,9.43748 0.28358,-0.1092 -1.0511,-3.577 -3.5625,-9.43748 z M -150.26562,864.07812 c -10.62681,51.96718 -21.60528,105.7871 -27.0625,129.65625 7.15075,-23.2998 24.37933,-75.03957 41.0625,-125.21875 -4.71785,-1.35784 -9.38739,-2.84298 -14,-4.4375 z m -27.0625,129.65625 c -2.41251,7.86083 -3.7405,12.63653 -3.40625,12.75003 0.33588,0.114 1.56887,-4.7136 3.40625,-12.75003 z m 181.5624964,-121.25 c -3.92585003,0.89024 -7.88872,1.7133 -11.875,2.4375 C 8.5175564,925.84082 25.501096,979.22803 33.484376,1005.9844 27.096386,978.69709 15.309106,923.79071 4.2343764,872.48437 z M 33.484376,1005.9844 c 2.50976,10.7208 4.25508,17.5517 4.65625,17.4687 0.39409,-0.082 -1.49834,-6.8849 -4.65625,-17.4687 z M -117.95312,873.10937 c -7.63015,50.76536 -15.40179,102.66007 -19.375,125.3125 5.79139,-22.42321 20.31594,-73.42074 34.28125,-122.5 -5.01679,-0.80205 -9.98168,-1.74897 -14.90625,-2.8125 z m -19.375,125.3125 c -1.89188,7.32503 -2.89941,11.72213 -2.5625,11.78123 0.33191,0.058 1.25118,-4.305 2.5625,-11.78123 z m 105.281246,-120.1875 c -3.39157,0.31358 -6.79338,0.58911 -10.21875,0.78125 8.01951,45.44422 16.25698,92.07639 20.375,117.8125 -2.54044,-25.82079 -6.38547,-72.73379 -10.15625,-118.59375 z m 10.15625,118.59375 c 1.20798,12.27788 2.14425,20.07228 2.59375,20.03128 0.45066,-0.041 -0.64161,-7.8311 -2.59375,-20.03128 z m -55.40625,-118.03125 c -1.28691,39.43284 -2.59842,80.15762 -3.75,108.78125 2.42209,-28.51415 6.1979,-69.04785 9.84375,-108.40625 -2.04108,-0.0923 -4.06422,-0.23949 -6.09375,-0.375 z m -3.75,108.78125"
   id="path3817-0"
   inkscape:connector-curvature="0"
   sodipodi:nodetypes="scsccccscsccccccccccsccccccccscsccccscsccccsccsccccscsccccccccscscccccccccccccsccccccccccccccccccscscccccccccccccccccccccccccccccccccccccccccscccccccccccccccccccsccccccscssccccsccscccccccccsccccccsccccccsccccccsccccccsccccccsccccccsccccccsccccccsccccccsccccccsccccccsccccccsccccccscccccccccccccccccccccccccccscccccccccccccscccccccccccccsccccccsccccccsc"
   inkscape:export-filename="D:\projects\bubblesurviver\img\light3.png"
   inkscape:export-xdpi="28.199995"
   inkscape:export-ydpi="28.199995"
   transform="matrix(0.13833245,0,0,0.13878464,335.98685,520.10339)" />
<path
   style="fill:#ffff00;fill-opacity:1;stroke:none;filter:url(#filter3839-17-1)"
   d=""
   id="path3817-0-4"
   inkscape:connector-curvature="0"
   sodipodi:nodetypes="scsccccscsccccccccccsccccccccscsccccscsccccsccsccccscsccccccccscscccccccccccccsccccccccccccccccccscscccccccccccccccccccccccccccccccccccccccccscccccccccccccccccccsccccccscssccccsccscccccccccsccccccsccccccsccccccsccccccsccccccsccccccsccccccsccccccsccccccsccccccsccccccsccccccsccccccscccccccccccccccccccccccccccscccccccccccccscccccccccccccsccccccsccccccsc"
   inkscape:export-filename="D:\projects\bubblesurviver\img\light2.png"
   inkscape:export-xdpi="27.692314"
   inkscape:export-ydpi="27.692314"
   transform="matrix(0.13833245,0,0,0.13878464,72.772561,-17.615943)" />
<path
   id="path3055"
   d=""
   inkscape:connector-curvature="0" />

&quot;
     inkscape:export-ydpi=&quot;27.692314&quot;
     inkscape:export-xdpi=&quot;27.692314&quot;
     inkscape:export-filename=&quot;D:\projects\bubblesurviver\img\light2.png&quot;
     sodipodi:nodetypes=&quot;scsccccscsccccccccccsccccccccscsccccscsccccsccsccccscsccccccccscscccccccccccccsccccccccccccccccccscscccccccccccccccccccccccccccccccccccccccccscccccccccccccccccccsccccccscssccccsccscccccccccsccccccsccccccsccccccsccccccsccccccsccccccsccccccsccccccsccccccsccccccsccccccsccccccsccccccscccccccccccccccccccccccccccscccccccccccccscccccccccccccsccccccsccccccsc&quot;
     inkscape:connector-curvature=&quot;0&quot;
     id=&quot;path3817-0&quot;
     d=&quot;&quot;
     style=&quot;fill:#ffff00;fill-opacity:1;stroke:none;filter:url(#filter3839-17)&quot; /&gt;
<path
   style="fill:#ffff00;fill-opacity:1;stroke:none;filter:url(#filter3839-17-17)"
   d="m -44.578124,167.10937 c 44.578124,-0.0186 -0.30104,7.0146 0.0937,18 0.27814,-10.95571 0.32189,-17.98114 -0.0937,-18 z m 0.0937,18 c -0.68875,27.12884 -3.05171,80.72571 -5.25,131.65625 3.98556,0.11892 7.96399,0.31077 11.90625,0.59375 -2.77567,-51.66577 -5.68396,-105.19474 -6.65625,-132.25 z m 60.2813,-8.5625 c -0.63317,-0.10321 -2.98087,15.02657 -6.1562496,37.71875 4.1744496,-22.53138 6.7770296,-37.61756 6.1562496,-37.71875 z m -6.1562496,37.71875 c -5.2048,28.09262 -12.87182,67.68856 -20.3437504,106.375 1.9838104,0.33778 3.9680704,0.68343 5.9375004,1.0625 5.12016997,-38.6662 10.41652,-78.92569 14.40625,-107.4375 z M -96.359374,178.42187 c -0.38998,0.0323 0.4006,5.95908 1.875,15.25 -0.83575,-9.36229 -1.4916,-15.28176 -1.875,-15.25 z m 1.875,15.25 c 2.1783,24.40205 5.61742,74.73251 9,124.25 4.21879,-0.40487 8.44763,-0.721 12.71875,-0.9375 -3.81138,-21.17759 -7.68838,-42.6714 -11.17103,-62.20675 -4.51047,-25.3007 -8.35946,-47.31639 -10.54772,-61.10575 z m -51.499996,-7.34375 c -0.37645,0.087 1.02477,5.94938 3.4375,15.125 -1.78554,-9.33074 -3.06241,-15.21169 -3.4375,-15.125 z m 3.4375,15.125 c 4.59266,23.9999 12.96711,73.34668 21.28125,122.21875 4.07809,-0.93255 8.20028,-1.74676 12.34375,-2.5 -13.59075,-47.66555 -27.38953,-96.00525 -33.625,-119.71875 z M 76.390626,187.29687 c -0.30949,-0.10804 -1.60511,3.90997 -3.65625,11 2.59989,-6.87857 3.96903,-10.89081 3.65625,-11 z m -3.65625,11.03125 c -8.71789,23.06207 -31.26503,78.24542 -52.125,129.53125 5.45668,1.59051 10.8421,3.31212 16.15625,5.21875 14.16872,-53.9646 29.15407,-111.18905 35.96875,-134.75 z m -277.406246,3.46875 c -0.38027,0.13907 2.15124,6.55134 6.3125,16.5 -3.51741,-10.18223 -5.91727,-16.64454 -6.3125,-16.5 z m 6.3125,16.5 c 8.41124,24.34892 23.83802,71.85258 38.59375,117.1875 3.53536,-1.36765 7.08476,-2.67896 10.6875,-3.90625 -19.65267,-44.70963 -39.47707,-89.84161 -49.28125,-113.28125 z m 317.0625,-7.5 c -0.59008,0.43116 -3.53679,7.45729 -7.8125,18.15625 5.12936,-10.90981 8.29822,-17.9582 7.90625,-18.15625 -0.0185,-0.009 -0.0641,-0.0216 -0.0937,0 z m -7.8125,18.15625 c -11.369704,24.18261 -33.247634,68.80471 -54.437504,112.03125 3.23239,1.44493 6.42722,2.96936 9.59375,4.53125 17.32921,-45.47722 34.961364,-91.83411 44.843754,-116.5625 z m -358.875,-4.3125 c -0.43623,0.23374 3.67101,7.84394 10.59375,20 -6.16699,-12.50882 -10.16737,-20.22845 -10.59375,-20 z m 422.34375,12.875 c -0.87543,0.45286 -7.29301,10.53894 -16.6875,25.78125 10.52526,-15.3707 17.2211,-25.49233 16.75,-25.78125 -0.0178,-0.0109 -0.0283,-0.0177 -0.0625,0 z m -16.6875,25.78125 c -16.25517,23.73845 -41.81333,60.25786 -66.843754,96.03125 2.10514,1.31757 4.1827,2.66004 6.25,4.03125 22.489884,-37.33551 45.487344,-75.55275 60.593754,-100.0625 z m -449.3125,-20.75 c -0.26792,0.19778 2.02127,3.64684 6.21875,9.5625 -3.70938,-6.25403 -5.95295,-9.75872 -6.21875,-9.5625 z m 54.40625,2.34375 c 11.56713,23.47474 30.7214,63.81151 49.46875,103.21875 2.77016,-1.43826 5.55192,-2.83961 8.375,-4.1875 -21.86836,-37.19046 -44.75905,-76.06671 -57.84375,-99.03125 z m -48.0625,7.375 c 11.98273,20.21988 38.98798,68.64862 65.1875,115.5 4.50329,-3.17075 9.12019,-6.18586 13.8125,-9.09375 -31.96469,-42.6759 -65.35198,-87.18371 -79,-106.40625 z m 511.03125,17 c -0.52619,0.19818 -3.1904,3.33046 -7.4375,8.65625 4.99019,-5.3077 7.75256,-8.45517 7.5,-8.65625 -0.0162,-0.0129 -0.0274,-0.0132 -0.0625,0 z m -570.25,6.53125 c -0.0361,-0.0114 -0.0469,0.0174 -0.0625,0.0312 -0.47477,0.42067 10.11922,12.04395 26.21875,29.28125 -14.83723,-17.32514 -25.08042,-28.97265 -26.15625,-29.31245 z m 26.15625,29.3125 c 19.0491,22.24332 45.59745,53.7525 71.28125,84.1875 1.47802,-1.33767 2.99369,-2.63103 4.5,-3.9375 -27.62227,-29.14111 -55.87822,-58.9404 -75.78125,-80.25 z m 536.625,-27.125 c -16.88913,17.95914 -59.23785,60.68163 -99.4375,101.34375 4.57005,3.70538 9.0171,7.55176 13.34375,11.53125 33.88517,-44.77483 70.57021,-93.40465 86.09375,-112.875 z m 41.71875,31.53125 c -0.58855,0.14309 -4.35139,3.84686 -10.09375,9.71875 6.48014,-5.74173 10.43163,-9.43944 10.1875,-9.71875 -0.0137,-0.0157 -0.0581,-0.009 -0.0937,0 z m -10.09375,9.71875 c -19.04906,16.87843 -61.92421,53.09474 -102.09375,87.125 3.30308,3.54962 6.50682,7.1894 9.625,10.90625 36.55352,-39.05811 74.73851,-79.90107 92.46875,-98.03125 z m -636.53125,1.46875 c -0.18886,0.22204 2.49388,2.42024 7.15625,5.96875 -4.33582,-3.94655 -6.96448,-6.19421 -7.15625,-5.96875 z m 7.15625,5.96875 c 16.75762,15.25315 60.24121,57.36771 100.71875,96.5 4.01974,-5.06162 8.21026,-10.01148 12.5625,-14.78125 -46.35177,-33.13513 -95.34637,-68.06858 -113.28125,-81.71875 z m 673.0625,21.5625 c -1.25674,0.12374 -17.13076,11.98994 -39.46875,29.03125 23.61914,-16.6395 39.93822,-28.41224 39.53125,-29 -0.0117,-0.0169 -0.0251,-0.0349 -0.0625,-0.0312 z m -39.46875,29.03125 c -23.30208,16.41614 -53.43927,37.41271 -82.84375,57.90625 0.89007,1.25227 1.75503,2.5139 2.625,3.78125 28.46592,-21.94612 57.56294,-44.40372 80.21875,-61.6875 z m -675.78125,-9.28125 c -0.0388,-0.002 -0.0508,0.0144 -0.0625,0.0312 -0.32267,0.46286 10.3505,6.94836 26.6875,16.5625 -15.27437,-10.00127 -25.62186,-16.53968 -26.625,-16.5937 z m 26.625,16.59375 c 24.29291,15.90648 61.40523,40.79003 97.65625,65.03125 1.29868,-2.08769 2.61738,-4.16802 3.96875,-6.21875 -37.29329,-21.47654 -76.35093,-43.939 -101.625,-58.8125 z m 708.03125,10.53125 c -0.44733,-8e-5 -3.09356,1.60611 -7.3125,4.34375 4.77168,-2.49587 7.53264,-4.05961 7.40625,-4.3125 -0.009,-0.0185 -0.0591,-0.0312 -0.0937,-0.0312 z m -7.3125,4.34375 c -18.70314,9.78285 -70.22027,34.57052 -119.8125,58.5 3.30046,5.7398 6.38316,11.60836 9.28125,17.59375 45.11332,-31.37631 92.65535,-64.49419 110.53125,-76.09375 z m -740.9375,24.65625 c -0.0357,0.004 -0.0847,0.0124 -0.0937,0.0312 -0.14857,0.30998 3.87916,2.05845 10.78125,4.84375 -6.21494,-3.11662 -10.12975,-4.93578 -10.6875,-4.875 z m 10.6875,4.875 c 19.94498,10.00187 64.60917,33.87977 108.0625,57.09375 2.00519,-4.61934 4.10192,-9.16949 6.34375,-13.65625 -46.55972,-17.42403 -93.78837,-35.11727 -114.40625,-43.4375 z m 771.09375,29.28125 c -1.95487,0.13516 -16.67847,5.50099 -37.96875,13.53125 23.09191,-7.59321 38.41103,-12.87416 38.1875,-13.5 -0.014,-0.0392 -0.0862,-0.0404 -0.21875,-0.0312 z m -809.03125,11.84375 c -0.1332,-0.004 -0.2054,0.023 -0.21875,0.0625 -0.19798,0.58579 13.54403,4.62136 34.21875,10.375 -18.9858,-6.23282 -32.17996,-10.3877 -34,-10.4375 z m 34,10.4375 c 26.42525,8.67512 64.22178,21.44777 101.40625,34 0.61549,-1.98383 1.24832,-3.97273 1.90625,-5.9375 -37.73881,-10.16671 -76.40114,-20.57323 -103.3125,-28.0625 z m 736.875,-8.6875 c -27.25227,8.95961 -64.98973,21.04602 -101.125,32.65625 0.63016,1.78918 1.2177,3.60071 1.8125,5.40625 35.69532,-13.74624 72.55741,-27.96937 99.3125,-38.0625 z m 55.40625,27.84375 c -1.10618,-4.2e-4 -6.73237,1.42044 -14.96875,3.6875 9.3879,-1.92234 15.27939,-3.28764 15.1875,-3.65625 -0.01,-0.0401 -0.0828,-0.0312 -0.21875,-0.0312 z m -14.96875,3.6875 c -26.00925,5.32587 -81.52976,15.47843 -134.28125,25.1875 1.11295,4.38418 2.09559,8.8177 3,13.28125 51.6535,-15.33402 105.70385,-31.42858 131.28125,-38.46875 z m -829.21875,23.15625 c -0.12896,0.008 -0.17993,0.0218 -0.1875,0.0625 -0.0509,0.274 3.03079,0.77711 8.34375,1.40625 -4.45241,-0.95038 -7.40227,-1.51555 -8.15625,-1.46875 z m 8.15625,1.46875 c 21.2996,4.5465 80.05732,19.19219 135,32.8125 0.90407,-6.84266 2.08215,-13.60283 3.46875,-20.28125 -57.20842,-4.90578 -116.98644,-9.98737 -138.46875,-12.53125 z m 842.71875,42.0625 c -4.57193,0.0651 -14.3763,0.64649 -27.0625,1.5 18.30224,-0.3459 30.16156,-0.77121 30.125,-1.3125 -0.0111,-0.1648 -1.06207,-0.21596 -3.0625,-0.1875 z m -27.0625,1.5 c -29.58016,0.55904 -76.27509,0.91814 -121.375,1.3125 0.22914,2.58651 0.43507,5.17511 0.59375,7.78125 44.87001,-3.48046 91.30282,-7.11046 120.78125,-9.09375 z m -820.71875,-0.90625 c -0.48418,0.0201 -0.74388,0.0742 -0.75,0.15625 -0.0509,0.68215 17.08927,1.94106 42.21875,3.4375 -22.04797,-2.25458 -37.94831,-3.73979 -41.46875,-3.59375 z m 41.46875,3.59375 c 26.60425,2.7205 61.97304,6.56633 96.5,10.3125 0.0793,-1.68476 0.17245,-3.35436 0.28125,-5.03125 -34.55875,-1.84533 -70.06322,-3.6902 -96.78125,-5.28125 z m 658.84375,32.65625 c -0.2129,6.85867 -0.64852,13.64847 -1.34375,20.375 55.30485,-0.005 114.72494,-0.10577 136.3125,0.59375 -21.2337,-2.70811 -79.25342,-12.04441 -134.96875,-20.96875 z m 134.96875,20.96875 c 5.33514,0.68043 8.48686,0.96611 8.5,0.6875 0.0135,-0.2854 -3.14279,-0.5139 -8.5,-0.6875 z m -697.4375,-19.25 c -55.16084,6.88135 -113.84715,14.2411 -136.59375,16.40625 22.74715,-0.16386 81.61531,1.18742 137.875,2.40625 -0.64573,-6.21421 -1.04665,-12.48481 -1.28125,-18.8125 z m -136.59375,16.40625 c -6.20295,0.0447 -9.84202,0.19861 -9.8125,0.5 0.0299,0.30516 3.65551,0.0861 9.8125,-0.5 z m 695.375,19.6875 c -0.20885,1.25047 -0.43097,2.50518 -0.65625,3.75 30.99607,4.36172 62.6913,8.83647 88.65625,12.59375 -25.86968,-4.72027 -57.3818,-10.63518 -88,-16.34375 z m 88,16.34375 c 31.01999,5.66002 53.37414,9.51665 53.53125,8.75 0.15577,-0.76012 -22.25486,-4.22411 -53.53125,-8.75 z m -640.59375,-3.15625 c -38.33271,9.93383 -77.37433,20.05153 -104.40625,26.8125 27.40013,-5.52111 67.10545,-13.12725 105.84375,-20.59375 -0.49815,-2.0687 -0.98534,-4.13252 -1.4375,-6.21875 z m -104.40625,26.8125 c -20.56348,4.14354 -34.21245,7.12529 -34.09375,7.71875 0.11785,0.58925 13.70782,-2.62001 34.09375,-7.71875 z m 651.4375,-14.3125 c -1.22852,4.62778 -2.57606,9.21911 -4.03125,13.75 50.57776,12.61712 103.08994,25.68966 127,32.21875 -23.52622,-8.30093 -74.55741,-27.66724 -122.96875,-45.96875 z m 122.96875,45.96875 c 8.12637,2.8673 13.25172,4.50493 13.375,4.15625 0.12198,-0.34501 -5.02008,-1.87477 -13.375,-4.15625 z m -662.15625,-29.71875 c -44.82478,19.58992 -90.95618,39.79642 -113.90625,49.28125 23.34288,-7.84689 70.9662,-22.79183 118.09375,-37.59375 -1.47266,-3.85817 -2.8819,-7.75001 -4.1875,-11.6875 z m -113.90625,49.28125 c -9.2271,3.10177 -15.04597,5.19962 -14.90625,5.5625 0.14226,0.36951 5.93717,-1.85574 14.90625,-5.5625 z m 639.375,-26.03125 c -1.98161,4.56813 -4.09945,9.06142 -6.3125,13.5 48.75649,18.99866 99.01477,38.53232 121.125,47.75 -21.38455,-10.87698 -68.93299,-36.53576 -114.8125,-61.25 z m 114.8125,61.25 c 7.14139,3.63238 11.53272,5.68884 11.6875,5.375 0.15416,-0.31257 -4.26691,-2.28138 -11.6875,-5.375 z m -624,-45.53125 c -43.18286,26.96988 -87.13931,54.41341 -109.15625,67.59375 22.93004,-11.80687 69.68921,-34.73294 114.90625,-56.9375 -1.98295,-3.50806 -3.91535,-7.05665 -5.75,-10.65625 z m -109.15625,67.59375 c -9.0022,4.63531 -14.70641,7.70861 -14.53125,8.0625 0.17274,0.34903 5.80244,-2.83704 14.53125,-8.0625 z m 600.21875,-48.4375 c -1.89625,3.09611 -3.86389,6.17192 -5.875,9.1875 42.68,23.03202 85.96389,46.38404 108.46875,59.03125 C 262.79031,799.0181 221.957,771.64499 181.89063,744.79687 z m 102.59375,68.21875 c 9.43717,6.0891 15.57599,9.87616 15.8125,9.53125 0.23571,-0.34374 -5.97182,-4.001 -15.8125,-9.53125 z m -575.53125,-56.75 c -31.18875,24.91247 -62.8871,50.23915 -84.4375,67.125 22.28644,-15.79431 55.51665,-38.89877 88.28125,-61.65625 -1.29623,-1.80963 -2.58972,-3.62744 -3.84375,-5.46875 z m -84.4375,67.125 c -15.91759,11.28075 -26.33321,18.8992 -26,19.375 0.33409,0.47708 10.62222,-7.3257 26,-19.375 z m 534.53125,-46.5625 c -2.14192,2.60043 -4.33028,5.16652 -6.5625,7.6875 38.95423,30.16363 80.22904,62.07087 103.21875,80.375 -21.75898,-19.39162 -59.87698,-54.37743 -96.65625,-88.0625 z m 96.65625,88.0625 c 10.75044,9.58082 17.63592,15.45556 17.9375,15.09375 0.30778,-0.36924 -6.64134,-6.09987 -17.9375,-15.09375 z m -526.8125,-82.71875 c -31.7339,35.48029 -64.32652,71.94457 -82.78125,91.96875 19.58225,-18.90085 55.22408,-52.21533 89.59375,-84.40625 -2.30813,-2.47963 -4.59407,-5.00068 -6.8125,-7.5625 z m -82.78125,91.96875 c -9.46381,9.1345 -15.33611,15.05548 -15.03125,15.40625 0.30251,0.34808 6.08226,-5.69622 15.03125,-15.40625 z m 490.875,-73.4375 c -2.85256,2.7491 -5.78366,5.40348 -8.75,8.03125 36.98259,36.39387 75.29224,74.05931 94.53125,93.65625 -18.10631,-20.85874 -52.79499,-62.32511 -85.78125,-101.6875 z m 85.78125,101.6875 c 7.43711,8.56767 12.33483,13.96286 12.65625,13.6875 0.31708,-0.27164 -4.69132,-5.57438 -12.65625,-13.6875 z m -471.4375,-97.125 c -34.23899,48.81366 -70.79292,101.00609 -84.5,119.3125 15.33867,-17.06345 59.6291,-63.19331 100.375,-105.75 -5.45714,-4.31979 -10.75655,-8.85752 -15.875,-13.5625 z m -84.5,119.3125 c -3.72844,4.14769 -5.83899,6.6533 -5.625,6.84375 0.21184,0.18854 2.27037,-2.3635 5.625,-6.84375 z m 440.4375,-98.96875 c -3.37409,2.45857 -6.79599,4.84642 -10.281254,7.15625 31.008074,39.8251 62.520904,80.26609 77.593754,100.4375 -13.73301,-21.1858 -40.80529,-64.87309 -67.3125,-107.59375 z m 67.3125,107.59375 c 5.35848,8.26648 8.86984,13.4483 9.1875,13.21875 0.31511,-0.22769 -3.29566,-5.33393 -9.1875,-13.21875 z m -386.8125,-99.5625 c -24.5646,43.19867 -50.48442,88.8931 -64.59375,112.8125 15.37973,-22.86697 45.17657,-65.62248 73.9375,-106.9375 -3.15917,-1.89612 -6.26673,-3.85999 -9.34375,-5.875 z m -64.59375,112.8125 c -6.7434,10.02625 -10.94992,16.5127 -10.59375,16.75 0.36383,0.24241 4.44628,-6.32826 10.59375,-16.75 z m 353.187496,-101.25 c -2.69695,1.47222 -5.40672,2.89566 -8.15625,4.28125 22.81862,38.4102 46.416404,78.1007 59.781254,101.3125 -11.92231,-23.7314 -31.899634,-64.94636 -51.625004,-105.59375 z m 51.625004,105.59375 c 6.31014,12.56035 10.42197,20.36484 10.84375,20.15625 0.43168,-0.21348 -3.79055,-7.90639 -10.84375,-20.15625 z m -310.4375,-100.15625 c -14.70268,35.07927 -29.60067,70.62456 -40.34375,95.6875 11.86929,-24.53719 28.94615,-59.06015 45.75,-93.09375 -1.81004,-0.84387 -3.6174,-1.71275 -5.40625,-2.59375 z m -40.34375,95.6875 c -9.55764,19.75837 -15.71677,33.04057 -15.15625,33.3125 0.55966,0.27152 6.50217,-13.12307 15.15625,-33.3125 z m 267.031246,-86.125 c -6.04966,2.36727 -12.19236,4.51658 -18.4375,6.46875 24.57169,53.18035 51.40668,110.97803 60.9375,133.21875 -7.54999,-22.8428 -25.60763,-83.3653 -42.5,-139.6875 z m 42.5,139.6875 c 2.00285,6.05968 3.28088,9.54598 3.5625,9.43748 0.28358,-0.1092 -1.0511,-3.577 -3.5625,-9.43748 z M -150.26562,864.07812 c -10.62681,51.96718 -21.60528,105.7871 -27.0625,129.65625 7.15075,-23.2998 24.37933,-75.03957 41.0625,-125.21875 -4.71785,-1.35784 -9.38739,-2.84298 -14,-4.4375 z m -27.0625,129.65625 c -2.41251,7.86083 -3.7405,12.63653 -3.40625,12.75003 0.33588,0.114 1.56887,-4.7136 3.40625,-12.75003 z m 181.5624964,-121.25 c -3.92585003,0.89024 -7.88872,1.7133 -11.875,2.4375 C 8.5175564,925.84082 25.501096,979.22803 33.484376,1005.9844 27.096386,978.69709 15.309106,923.79071 4.2343764,872.48437 z M 33.484376,1005.9844 c 2.50976,10.7208 4.25508,17.5517 4.65625,17.4687 0.39409,-0.082 -1.49834,-6.8849 -4.65625,-17.4687 z M -117.95312,873.10937 c -7.63015,50.76536 -15.40179,102.66007 -19.375,125.3125 5.79139,-22.42321 20.31594,-73.42074 34.28125,-122.5 -5.01679,-0.80205 -9.98168,-1.74897 -14.90625,-2.8125 z m -19.375,125.3125 c -1.89188,7.32503 -2.89941,11.72213 -2.5625,11.78123 0.33191,0.058 1.25118,-4.305 2.5625,-11.78123 z m 105.281246,-120.1875 c -3.39157,0.31358 -6.79338,0.58911 -10.21875,0.78125 8.01951,45.44422 16.25698,92.07639 20.375,117.8125 -2.54044,-25.82079 -6.38547,-72.73379 -10.15625,-118.59375 z m 10.15625,118.59375 c 1.20798,12.27788 2.14425,20.07228 2.59375,20.03128 0.45066,-0.041 -0.64161,-7.8311 -2.59375,-20.03128 z m -55.40625,-118.03125 c -1.28691,39.43284 -2.59842,80.15762 -3.75,108.78125 2.42209,-28.51415 6.1979,-69.04785 9.84375,-108.40625 -2.04108,-0.0923 -4.06422,-0.23949 -6.09375,-0.375 z m -3.75,108.78125"
   id="path3817-0-0"
   inkscape:connector-curvature="0"
   sodipodi:nodetypes="scsccccscsccccccccccsccccccccscsccccscsccccsccsccccscsccccccccscscccccccccccccsccccccccccccccccccscscccccccccccccccccccccccccccccccccccccccccscccccccccccccccccccsccccccscssccccsccscccccccccsccccccsccccccsccccccsccccccsccccccsccccccsccccccsccccccsccccccsccccccsccccccsccccccsccccccscccccccccccccccccccccccccccscccccccccccccscccccccccccccsccccccsccccccsc"
   inkscape:export-filename="D:\projects\bubblesurviver\img\light3.png"
   inkscape:export-xdpi="28.199995"
   inkscape:export-ydpi="28.199995"
   transform="matrix(0.15961436,0,0,0.16013613,337.18263,507.39324)" />
</g>
</svg>
