<?xml version="1.0" encoding="UTF-8" standalone="no"?>
<!-- Created with Inkscape (http://www.inkscape.org/) -->

<svg
   xmlns:dc="http://purl.org/dc/elements/1.1/"
   xmlns:cc="http://creativecommons.org/ns#"
   xmlns:rdf="http://www.w3.org/1999/02/22-rdf-syntax-ns#"
   xmlns:svg="http://www.w3.org/2000/svg"
   xmlns="http://www.w3.org/2000/svg"
   xmlns:sodipodi="http://sodipodi.sourceforge.net/DTD/sodipodi-0.dtd"
   xmlns:inkscape="http://www.inkscape.org/namespaces/inkscape"
   width="744.09448819"
   height="1052.3622047"
   id="svg2"
   version="1.1"
   inkscape:version="0.48.5 r10040"
   sodipodi:docname="New document 1">
  <defs
     id="defs4" />
  <sodipodi:namedview
     id="base"
     pagecolor="#ffffff"
     bordercolor="#666666"
     borderopacity="1.0"
     inkscape:pageopacity="0.0"
     inkscape:pageshadow="2"
     inkscape:zoom="0.49497475"
     inkscape:cx="369.76976"
     inkscape:cy="581.08916"
     inkscape:document-units="px"
     inkscape:current-layer="layer1"
     showgrid="false"
     inkscape:window-width="1366"
     inkscape:window-height="706"
     inkscape:window-x="-8"
     inkscape:window-y="-8"
     inkscape:window-maximized="1" />
  <metadata
     id="metadata7">
    <rdf:RDF>
      <cc:Work
         rdf:about="">
        <dc:format>image/svg+xml</dc:format>
        <dc:type
           rdf:resource="http://purl.org/dc/dcmitype/StillImage" />
        <dc:title></dc:title>
      </cc:Work>
    </rdf:RDF>
  </metadata>
  <g
     inkscape:label="Layer 1"
     inkscape:groupmode="layer"
     id="layer1">
    <path
       style="fill:none;stroke:#000000;stroke-width:1px;stroke-linecap:butt;stroke-linejoin:miter;stroke-opacity:1"
       d="m 389.91888,256.36198 167.68532,62.62946 -6.06091,78.79189 139.40105,175.76655 -72.73098,38.38579 -139.40105,161.62441 -56.56855,-64.64976 -103.03556,94.95434 -92.93403,-80.81221 -84.85281,-14.14213 36.36549,-96.97465 -66.67007,-64.64976 -38.385797,-78.7919 82.832507,-30.30457 -14.14213,-70.71068 38.38579,-72.73099 44.44671,0 86.87312,-6.06091 z"
       id="path2993"
       inkscape:connector-curvature="0" />
    <path
       style="fill:#00ff00;fill-opacity:1;stroke:#ffffff;stroke-width:3.55699992000000000;stroke-miterlimit:4;stroke-opacity:1;stroke-dasharray:none"
       d=""
       id="path2995"
       inkscape:connector-curvature="0" />
    <path
       style="fill:#916f6f;fill-opacity:1;stroke:#ffffff;stroke-width:3.55699992;stroke-miterlimit:4;stroke-opacity:1;stroke-dasharray:none"
       d="m 272.18903,760.88142 -44.44671,-39.01379 -40.40611,-6.59034 c -22.22335,-3.62467 -41.01575,-7.14212 -41.76089,-7.81654 -0.74513,-0.67444 6.30068,-21.59243 15.65737,-46.48445 9.35668,-24.892 17.01215,-46.51181 17.01215,-48.04399 0,-1.5322 -14.64572,-17.05909 -32.54604,-34.50422 L 113.15275,546.70968 97.435181,515.32075 C 88.79052,498.05686 80.340249,480.63534 78.656801,476.60629 l -3.060813,-7.32557 34.656912,-12.63888 c 19.0613,-6.95139 37.48695,-13.76866 40.9459,-15.14949 l 6.28899,-2.51061 -7.04696,-36.07924 -7.04696,-36.07925 18.59301,-34.85026 18.59301,-34.85026 18.53045,-0.0755 c 10.19175,-0.0415 40.34975,-1.74753 67.01777,-3.79108 l 48.48733,-3.71555 37.23527,-15.54208 c 20.47939,-8.54815 38.66213,-15.16097 40.4061,-14.69517 3.99837,1.06796 162.57355,60.27537 163.341,60.98684 0.31133,0.28862 -0.85077,18.02476 -2.58246,39.41364 l -3.14852,38.88887 6.77305,8.35894 c 23.52425,29.03241 130.72184,164.93399 130.72184,165.72488 0,0.53003 -15.73326,9.17271 -34.96283,19.20597 l -34.96281,18.24231 -68.57783,79.77124 c -37.71778,43.87418 -69.10655,79.81779 -69.75281,79.87468 -0.64625,0.0568 -13.26803,-13.76093 -28.04838,-30.70623 -14.78035,-16.94531 -27.45116,-31.04264 -28.15735,-31.32738 -0.7062,-0.28474 -23.99535,20.38647 -51.75367,45.93606 -27.75833,25.54959 -51.37883,46.40164 -52.48999,46.33792 -1.11117,-0.0638 -22.02133,-17.67207 -46.46702,-39.12965 l 0,0 z"
       id="path3027"
       inkscape:connector-curvature="0" />
  </g>
</svg>
