<?xml version="1.0" encoding="UTF-8" standalone="no"?>
<!-- Created with Inkscape (http://www.inkscape.org/) -->

<svg
   xmlns:dc="http://purl.org/dc/elements/1.1/"
   xmlns:cc="http://creativecommons.org/ns#"
   xmlns:rdf="http://www.w3.org/1999/02/22-rdf-syntax-ns#"
   xmlns:svg="http://www.w3.org/2000/svg"
   xmlns="http://www.w3.org/2000/svg"
   xmlns:xlink="http://www.w3.org/1999/xlink"
   xmlns:sodipodi="http://sodipodi.sourceforge.net/DTD/sodipodi-0.dtd"
   xmlns:inkscape="http://www.inkscape.org/namespaces/inkscape"
   width="744.09448819"
   height="1052.3622047"
   id="svg2"
   version="1.1"
   inkscape:version="0.48.5 r10040"
   sodipodi:docname="planet.svg">
  <defs
     id="defs4">
    <linearGradient
       id="linearGradient5239">
      <stop
         style="stop-color:#ffffff;stop-opacity:1;"
         offset="0"
         id="stop5241" />
      <stop
         style="stop-color:#32698f;stop-opacity:1;"
         offset="1"
         id="stop5243" />
    </linearGradient>
    <radialGradient
       inkscape:collect="always"
       xlink:href="#linearGradient5239"
       id="radialGradient5245"
       cx="352.54324"
       cy="495.76813"
       fx="352.54324"
       fy="495.76813"
       r="244.43695"
       gradientUnits="userSpaceOnUse" />
    <filter
       color-interpolation-filters="sRGB"
       inkscape:collect="always"
       id="filter5282-8"
       x="-0.25462565"
       width="1.5092514"
       y="-0.20899571"
       height="1.4179914">
      <feGaussianBlur
         inkscape:collect="always"
         stdDeviation="24.669062"
         id="feGaussianBlur5284-2" />
    </filter>
    <filter
       inkscape:collect="always"
       id="filter5328"
       x="-0.55554684"
       width="2.1110937"
       y="-0.45599067"
       height="1.9119813">
      <feGaussianBlur
         inkscape:collect="always"
         stdDeviation="53.823407"
         id="feGaussianBlur5330" />
    </filter>
    <filter
       inkscape:collect="always"
       id="filter5344"
       x="-0.62336749"
       width="2.246735"
       y="-0.80950947"
       height="2.6190189">
      <feGaussianBlur
         inkscape:collect="always"
         stdDeviation="62.082428"
         id="feGaussianBlur5346" />
    </filter>
  </defs>
  <sodipodi:namedview
     id="base"
     pagecolor="#ffffff"
     bordercolor="#666666"
     borderopacity="1.0"
     inkscape:pageopacity="0.0"
     inkscape:pageshadow="2"
     inkscape:zoom="0.49497475"
     inkscape:cx="17.612582"
     inkscape:cy="567.00111"
     inkscape:document-units="px"
     inkscape:current-layer="layer1"
     showgrid="false"
     inkscape:window-width="1366"
     inkscape:window-height="706"
     inkscape:window-x="-8"
     inkscape:window-y="-8"
     inkscape:window-maximized="1" />
  <metadata
     id="metadata7">
    <rdf:RDF>
      <cc:Work
         rdf:about="">
        <dc:format>image/svg+xml</dc:format>
        <dc:type
           rdf:resource="http://purl.org/dc/dcmitype/StillImage" />
        <dc:title></dc:title>
      </cc:Work>
    </rdf:RDF>
  </metadata>
  <g
     inkscape:label="Layer 1"
     inkscape:groupmode="layer"
     id="layer1">
    <path
       sodipodi:type="arc"
       style="fill:url(#radialGradient5245);fill-opacity:1;stroke:none;stroke-width:6.02099990999999960;stroke-miterlimit:4;stroke-opacity:1;stroke-dasharray:none"
       id="path3001"
       sodipodi:cx="352.54324"
       sodipodi:cy="495.76813"
       sodipodi:rx="241.42645"
       sodipodi:ry="241.42645"
       d="m 593.9697,495.76813 a 241.42645,241.42645 0 1 1 -482.85291,0 241.42645,241.42645 0 1 1 482.85291,0 z"
       inkscape:export-filename="D:\projects\bubblesurviver\img\planet.png"
       inkscape:export-xdpi="13.047451"
       inkscape:export-ydpi="13.047451" />
    <path
       style="fill:#ff0000;stroke:#000000;stroke-width:1px;stroke-linecap:butt;stroke-linejoin:miter;stroke-opacity:1;filter:url(#filter5328)"
       d="m 288.90363,357.37723 c 1.6332,-11.49348 8.45795,-0.18836 12.12183,-2.0203 0.85183,-0.42592 1.1168,-1.71914 2.0203,-2.02031 1.27776,-0.42592 2.69374,0 4.04061,0 1.34687,0 2.69374,0 4.04061,0 1.34687,0 2.76286,-0.42592 4.04061,0 1.42858,0.47619 2.57973,1.65508 4.04062,2.02031 0.0675,0.0169 6.05018,-0.0107 6.06091,0 0.47619,0.47619 -0.47619,1.54411 0,2.0203 1.06479,1.0648 2.97582,0.95551 4.04061,2.02031 0.47619,0.47619 0,1.34687 0,2.0203 0.67344,0.67344 1.22788,1.49202 2.02031,2.02031 1.25294,0.83529 2.97581,0.95551 4.04061,2.0203 0.47619,0.47619 0,1.34687 0,2.02031 0,0.67343 0,1.34687 0,2.0203 0,4.04061 0,8.08122 0,12.12183 0,2.02031 -0.49,4.10093 0,6.06092 0.35152,1.40611 2.28031,5.18076 4.04061,6.06091 0.60233,0.30117 1.41796,-0.30117 2.0203,0 0.85184,0.42592 1.16847,1.59439 2.02031,2.02031 0.60233,0.30117 1.38142,-0.21296 2.0203,0 1.42857,0.47619 2.61204,1.54411 4.04061,2.0203 0.63888,0.21296 1.41797,-0.30117 2.02031,0 0.85183,0.42592 1.11679,1.71914 2.0203,2.02031 1.27775,0.42592 2.76286,-0.42592 4.04061,0 0.90351,0.30117 1.16847,1.59439 2.02031,2.0203 0.60234,0.30117 1.34687,0 2.0203,0 1.34687,1.34687 2.33694,3.18878 4.04061,4.04061 1.20468,0.60234 2.69374,0 4.04061,0 0.67344,0 1.54412,-0.47619 2.02031,0 1.06479,1.0648 0.95551,2.97582 2.0203,4.04061 0.47619,0.47619 1.41797,-0.30117 2.02031,0 1.70367,0.85184 2.33694,3.18878 4.04061,4.04061 0.60234,0.30117 1.45997,-0.37355 2.0203,0 1.34687,1.34687 2.69374,2.69374 4.04061,4.04061 0.67344,0 1.41797,-0.30117 2.02031,0 1.79067,0.89534 4.2218,4.83484 6.06091,6.06092 1.25294,0.83529 2.78767,1.18501 4.04061,2.0203 0.79243,0.52829 1.22788,1.49202 2.02031,2.02031 1.25294,0.83529 2.97581,0.95551 4.04061,2.0203 0.47619,0.47619 -0.30117,1.41797 0,2.02031 4.62307,9.24614 -0.83736,-8.573 4.04061,6.06091 0.43952,1.31858 0,9.70633 0,12.12184 0,1.71401 0.3351,10.78142 0,12.12183 -1.30311,5.21241 -2.73751,2.8688 -4.04061,8.08122 -0.42993,1.71971 0.57989,8.94173 0,10.10152 -0.42592,0.85184 -1.71914,1.1168 -2.02031,2.02031 -0.42591,1.27775 0,2.69374 0,4.04061 0,0.67343 -0.30117,1.41796 0,2.0203 0.42592,0.85184 1.22788,1.49202 2.02031,2.02031 4.38572,2.92381 4.49612,2.0203 10.10152,2.0203 0.67344,0 1.38143,-0.21296 2.02031,0 11.44641,5.72321 -3.01169,-0.75292 8.08122,2.02031 1.46089,0.36522 2.57972,1.65508 4.04061,2.0203 2.61331,0.65333 5.52571,-0.85183 8.08122,0 2.85714,0.95238 5.22408,3.08823 8.08122,4.04061 1.27775,0.42592 2.73395,-0.32666 4.04061,0 1.46089,0.36522 2.61204,1.54412 4.04061,2.02031 1.81828,0.60609 4.24264,-0.60609 6.06092,0 0.9035,0.30117 1.16847,1.59438 2.0203,2.0203 1.20468,0.60234 3.08823,-0.95238 4.04061,0 1.0648,1.0648 0.95551,2.97582 2.02031,4.04061 0.47619,0.47619 1.54411,-0.47619 2.0203,0 0.47619,0.47619 -0.30117,1.41797 0,2.02031 0.42592,0.85183 1.49202,1.22787 2.02031,2.0203 0.83529,1.25294 1.18501,2.78767 2.0203,4.04061 2.46442,3.69663 2.57577,0.20156 4.04061,6.06092 0.32667,1.30665 -0.32666,2.73395 0,4.04061 0.36522,1.46088 1.54412,2.61204 2.02031,4.04061 0.42591,1.27775 -0.32667,2.73395 0,4.04061 0.5165,2.066 1.60266,3.97268 2.0203,6.06091 0.50096,2.50478 -0.62441,5.58358 0,8.08122 0.5165,2.06601 1.50381,3.99492 2.02031,6.06092 0.16333,0.65333 0,1.34687 0,2.0203 0,2.02031 0,4.04061 0,6.06092 0,3.36718 0,6.73435 0,10.10153 0,0.90986 -0.30743,5.44606 0,6.06091 0.42592,0.85184 1.34687,1.34687 2.0203,2.02031 0.67344,0.67343 1.16847,1.59438 2.02031,2.0203 0.60234,0.30117 1.34687,0 2.0203,0 0.67344,0 1.34687,0 2.02031,0 2.69374,0 5.38748,0 8.08122,0 1.34687,0 2.69374,0 4.04061,0 0.67343,0 1.54411,-0.47619 2.0203,0 0.47619,0.47619 0,1.34687 0,2.02031 0,0.67343 0,1.34687 0,2.0203 0,0.67344 0.30117,1.41797 0,2.02031 -0.85183,1.70367 -2.98404,2.45575 -4.04061,4.04061 -0.67343,1.34687 -1.34687,2.69374 -2.0203,4.04061 -0.67344,0 -1.54412,-0.47619 -2.02031,0 -1.71693,1.71693 -2.32368,4.34398 -4.04061,6.06091 -0.47619,0.47619 -1.38143,-0.21296 -2.0203,0 -1.42857,0.47619 -2.78767,1.18501 -4.04061,2.02031 -0.79243,0.52828 -1.2584,1.44887 -2.02031,2.0203 -1.94248,1.45686 -4.11843,2.58375 -6.06091,4.04061 -4.04061,3.03046 0,2.02031 -6.06092,6.06092 -0.56033,0.37355 -1.41796,-0.30117 -2.0203,0 -3.09426,1.54712 -1.57992,3.60021 -4.04061,6.06091 -1.0648,1.0648 -2.97582,0.95551 -4.04061,2.02031 -0.47619,0.47619 -0.47619,1.54411 0,2.0203 0.47619,0.47619 1.34687,0 2.0203,0 2.31661,0 5.98841,0.52321 8.08122,0 1.46089,-0.36522 2.57973,-1.65508 4.04061,-2.0203 0.11449,-0.0286 7.70643,0.24986 8.08122,0 1.58486,-1.05657 2.5168,-2.89776 4.04061,-4.04061 1.20468,-0.90351 2.78767,-1.18501 4.04061,-2.02031 0.79243,-0.52828 1.22788,-1.49202 2.02031,-2.0203 1.25294,-0.8353 2.97581,-0.95551 4.04061,-2.02031 0.47619,-0.47619 -0.47619,-1.54411 0,-2.0203 0.47619,-0.47619 1.54411,0.47619 2.0203,0 0.47619,-0.47619 0.60234,-1.71914 0,-2.02031 -1.20467,-0.60234 -2.83593,0.60234 -4.04061,0 -0.60234,-0.30117 0,-1.34687 0,-2.0203 0,-4.56435 -0.30117,0.9035 2.02031,-6.06092 0.21296,-0.63887 -0.30117,-1.41796 0,-2.0203 0.85183,-1.70367 2.98404,-2.45576 4.04061,-4.04061 0.83529,-1.25294 0.95551,-2.97582 2.0203,-4.04061 1.0648,-1.0648 2.78767,-1.18502 4.04061,-2.02031 0.79243,-0.52828 1.34687,-1.34687 2.02031,-2.0203 1.34687,-1.34687 2.98404,-2.45576 4.04061,-4.04061 0.37355,-0.56034 -0.30117,-1.41797 0,-2.02031 0.42592,-0.85183 1.59439,-1.16847 2.0203,-2.0203 0.60234,-1.20468 -0.60233,-2.83594 0,-4.04061 0.42592,-0.85184 1.59439,-1.16847 2.02031,-2.02031 0.30117,-0.60234 -0.47619,-1.54411 0,-2.0203 0.47619,-0.47619 1.54411,0.47619 2.0203,0 0.28492,-0.28492 0.20721,-5.6465 0,-6.06092 -0.42591,-0.85184 -1.11679,-1.71914 -2.0203,-2.0203 -1.27775,-0.42592 -2.83593,0.60233 -4.04061,0 -0.60234,-0.30117 0.47619,-1.54412 0,-2.02031 -0.47619,-0.47619 -1.41797,0.30117 -2.02031,0 -0.85183,-0.42592 -1.34687,-1.34687 -2.0203,-2.02031 -0.67344,-0.67343 -1.59439,-1.16846 -2.02031,-2.0203 -0.30117,-0.60234 0.30117,-1.41797 0,-2.02031 -0.42591,-0.85183 -1.71913,-1.11679 -2.0203,-2.0203 -0.42592,-1.27775 0.60234,-2.83593 0,-4.04061 -0.30117,-0.60234 -1.41797,0.30117 -2.02031,0 -0.85183,-0.42592 -1.59438,-1.16847 -2.0203,-2.02031 -0.30117,-0.60233 0.47619,-1.54411 0,-2.0203 -0.47619,-0.47619 -1.41797,0.30117 -2.02031,0 -0.85183,-0.42592 -1.16847,-1.59439 -2.0203,-2.02031 -0.60234,-0.30117 -1.54412,0.47619 -2.02031,0 -0.47619,-0.47619 0.47619,-1.54411 0,-2.0203 -1.06479,-1.0648 -2.97581,-0.95551 -4.04061,-2.02031 -0.47619,-0.47619 0.30117,-1.41796 0,-2.0203 -0.42591,-0.85184 -1.59438,-1.16847 -2.0203,-2.02031 -0.80812,-1.61624 0.80812,-4.44467 0,-6.06091 -0.30117,-0.60234 -1.54412,0.47619 -2.02031,0 -0.48615,-0.48615 0.48615,-7.59507 0,-8.08122 -0.47619,-0.47619 -1.54411,0.47619 -2.0203,0 -0.002,-0.002 0.003,-6.05176 0,-6.06092 -0.30117,-0.9035 -1.34687,-1.34687 -2.02031,-2.0203 -1.34687,-1.34687 -2.69374,-2.69374 -4.04061,-4.04061 -0.67343,-0.67344 -1.22787,-1.49202 -2.0203,-2.02031 -1.25294,-0.83529 -2.97582,-0.95551 -4.04061,-2.0203 -0.47619,-0.47619 0.30117,-1.41797 0,-2.02031 -0.42592,-0.85183 -1.59439,-1.16847 -2.02031,-2.0203 -0.30117,-0.60234 0.47619,-1.54412 0,-2.02031 -4.18008,-4.18008 0.1634,6.38772 -4.04061,-2.0203 -0.30117,-0.60234 0.47619,-1.54412 0,-2.02031 -0.0813,-0.0813 -7.33929,0 -8.08122,0 -5.38748,0 -10.77496,0 -16.16244,0 -0.67343,0 -1.34687,0 -2.0203,0 -0.67344,0 -1.54412,0.47619 -2.02031,0 -0.47619,-0.47619 0.37355,-1.45997 0,-2.0203 -1.05657,-1.58486 -2.98404,-2.45576 -4.04061,-4.04061 -0.28712,-0.43068 0,-8.41631 0,-10.10153 0,-8.75465 0,-17.50931 0,-26.26396 0,-0.74193 0.0813,-7.99993 0,-8.08123 -0.47619,-0.47619 -1.34687,0 -2.0203,0 -4.04062,0 -8.08123,0 -12.12184,0 -0.67343,0 -1.34687,0 -2.0203,0 -0.67344,0 -1.54412,0.4762 -2.02031,0 -0.47619,-0.47619 0.47619,-1.54411 0,-2.0203 -0.1254,-5.68865 -4.55506,-0.51446 -6.06091,-2.02031 -0.95238,-0.95238 0.95238,-3.08822 0,-4.04061 -0.47619,-0.47619 -1.54412,0.47619 -2.02031,0 -0.47619,-0.47619 0.21296,-1.38142 0,-2.0203 -0.47619,-1.42857 -1.54411,-2.61204 -2.0203,-4.04061 -0.21296,-0.63888 0.21296,-1.38143 0,-2.02031 -0.47619,-1.42857 -1.54412,-2.61203 -2.02031,-4.04061 -0.36446,-1.0934 0,-7.39295 0,-8.08122 0,-5.38748 0,-10.77496 0,-16.16244 0,-0.67343 0,-1.34687 0,-2.0203 0,-0.67344 0.47619,-1.54412 0,-2.02031 -0.47619,-0.47619 -1.54411,0.47619 -2.0203,0 -0.95238,-0.95238 1.20468,-3.43827 0,-4.04061 -1.80702,-0.90351 -4.2539,0.90351 -6.06092,0 -0.85183,-0.42592 -1.16847,-1.59438 -2.0203,-2.0203 -0.60234,-0.30117 -1.41797,0.30117 -2.02031,0 -0.85183,-0.42592 -1.11679,-1.71914 -2.0203,-2.02031 -1.27775,-0.42592 -2.69374,0 -4.04061,0 -2.69374,0 -5.43979,-0.52828 -8.08122,0 -3.77348,0.7547 -8.34835,3.28592 -12.12183,4.04061 -1.32072,0.26415 -2.69374,0 -4.04061,0 -2.02031,0 -4.04061,0 -6.06092,0 -1.34687,0 -2.76286,-0.42592 -4.04061,0 -0.90351,0.30117 -1.09636,1.78932 -2.0203,2.02031 -1.45187,0.36296 -9.8942,0 -12.12183,0 -0.67344,0 -1.54412,0.47619 -2.02031,0 -0.47619,-0.47619 0,-1.34687 0,-2.02031 0,-1.34687 0,-2.69374 0,-4.04061 0,-2.0203 -0.63888,-4.14428 0,-6.06091 0.60234,-1.80702 2.98404,-2.45576 4.04061,-4.04061 0.83529,-1.25294 1.18501,-2.78767 2.02031,-4.04061 0.52828,-0.79243 1.59438,-1.16847 2.0203,-2.02031 0.60234,-1.20468 -0.60234,-2.83593 0,-4.04061 4.62307,-9.24614 -0.83736,8.573 4.04061,-6.06091 0.42269,-1.26806 0,-6.45481 0,-8.08122 0,-2.13865 0.84826,-5.10473 -2.0203,-6.06092 -1.27776,-0.42592 -2.69374,0 -4.04061,0 -0.67344,0 -1.45998,0.37356 -2.02031,0 -1.58486,-1.05657 -2.45575,-2.98404 -4.04061,-4.04061 -0.56033,-0.37355 -1.34687,0 -2.0203,0 -0.67344,0 -1.34687,0 -2.02031,0 -7.40778,0 -14.81557,0 -22.22336,0 -0.67343,0 -1.34687,0 -2.0203,0 -0.67344,0 -1.54412,-0.47619 -2.02031,0 -2.69374,2.69374 3.36718,2.02031 -2.0203,2.02031 -1.17379,0 -12.11104,-0.0135 -12.12183,0 -2.26549,2.83186 -2.69374,6.73435 -4.04061,10.10152 z"
       id="path5252"
       inkscape:connector-curvature="0" />
    <path
       style="fill:#008000;stroke:#000000;stroke-width:1px;stroke-linecap:butt;stroke-linejoin:miter;stroke-opacity:1;filter:url(#filter5344)"
       d="m 363.65492,482.63615 c -3.36718,1.34687 -6.73435,2.69374 -10.10153,4.04061 0,0.67343 0.60234,1.71913 0,2.0203 -1.20468,0.60234 -2.76286,-0.42592 -4.04061,0 -0.90351,0.30117 -1.2584,1.44888 -2.0203,2.02031 -4.54406,3.40804 -6.77718,3.64875 -10.10153,8.08122 -0.90351,1.20468 -0.95551,2.97581 -2.02031,4.04061 -1.06479,1.06479 -2.97581,0.95551 -4.04061,2.0203 -0.47619,0.47619 0.4762,1.54412 0,2.02031 -0.47619,0.47619 -1.54411,-0.47619 -2.0203,0 -4.41189,4.41188 -0.41996,3.28018 -2.02031,8.08122 -0.30116,0.90351 -1.59438,1.16847 -2.0203,2.0203 -0.30117,0.60234 0,1.34687 0,2.02031 0,2.0203 -0.63888,4.14428 0,6.06091 1.18449,3.55349 3.59681,1.19894 6.06091,2.02031 0.90351,0.30117 1.16847,1.59439 2.02031,2.0203 0.60234,0.30117 1.34687,0 2.0203,0 1.34687,0 2.76286,-0.42591 4.04062,0 0.9035,0.30117 1.16846,1.59439 2.0203,2.02031 0.60234,0.30117 1.34687,0 2.02031,0 0.67343,0 1.34687,0 2.0203,0 3.36718,0 6.73435,0 10.10153,0 0.67343,0 1.41796,-0.30117 2.0203,0 2.17176,1.08588 3.88915,2.95473 6.06092,4.04061 0.60233,0.30117 1.38142,-0.21296 2.0203,0 3.44046,1.14682 6.66107,2.89379 10.10153,4.04061 0.63887,0.21296 1.34687,0 2.0203,0 1.61212,0 8.88946,-0.40402 10.10153,0 14.63391,4.87797 -3.18523,-0.58246 6.06091,4.04061 0.60234,0.30117 1.41797,-0.30117 2.02031,0 6.16104,3.08052 -3.69503,1.60163 6.06091,4.04061 1.30666,0.32666 2.76286,-0.42592 4.04061,0 6.30602,2.10201 -0.67343,1.34687 2.02031,4.04061 2.69374,2.69374 1.9386,-4.28571 4.04061,2.02031 0.42592,1.27775 -0.60234,2.83593 0,4.04061 0.30117,0.60233 1.54411,-0.47619 2.0203,0 0.47619,0.47619 0,1.34687 0,2.0203 0,0.67344 0,1.34687 0,2.02031 0,1.07927 0.28911,9.5233 0,10.10152 -0.42591,0.85184 -1.16847,1.59439 -2.0203,2.02031 -0.60234,0.30117 -1.34687,0 -2.02031,0 -13.4687,0 -26.9374,0 -40.4061,0 -4.04061,0 -8.08122,0 -12.12183,0 -2.0203,0 -4.10093,0.48999 -6.06091,0 -1.46089,-0.36523 -2.61204,-1.54412 -4.04061,-2.02031 -1.27776,-0.42592 -2.69374,0 -4.04061,0 -2.02031,0 -4.04061,0 -6.06092,0 -6.73435,0 -13.4687,0 -20.20305,0 -6.06092,0 -12.12183,0 -18.18275,0 -2.69374,0 -5.43979,-0.52828 -8.08122,0 -0.93388,0.18678 -1.16847,1.59439 -2.0203,2.02031 -1.90476,0.95238 -3.99491,1.5038 -6.06092,2.0203 -4.07131,1.01783 -1.13048,-3.35504 -6.06091,4.04061 -0.37356,0.56033 0.21296,1.38143 0,2.02031 -0.47619,1.42857 -1.54412,2.61204 -2.02031,4.04061 -0.42268,1.26805 0,6.4548 0,8.08122 0,0.67343 -0.60234,1.71913 0,2.0203 1.20468,0.60234 2.76286,-0.42592 4.04061,0 1.80702,0.60234 2.2336,3.43827 4.04061,4.04061 1.27776,0.42592 2.76286,-0.42592 4.04061,0 0.90351,0.30117 1.13604,1.6666 2.02031,2.02031 3.85866,1.54346 17.43468,3.73301 20.20305,4.04061 2.00795,0.2231 4.05621,-0.25059 6.06091,0 26.7124,3.33905 -2.16267,0.37558 16.16244,4.04061 1.32072,0.26414 2.69374,0 4.04061,0 4.04062,0 8.08123,0 12.12184,0 1.34687,0 2.71989,-0.26414 4.04061,0 2.08823,0.41764 3.9603,1.6702 6.06091,2.0203 1.99282,0.33214 4.04061,0 6.06092,0 2.0203,0 4.04061,0 6.06091,0 8.75466,0 17.50931,0 26.26397,0 1.73409,0 10.93979,-0.39401 12.12183,0 0.90351,0.30117 1.16847,1.59439 2.0203,2.02031 0.60234,0.30117 1.41797,-0.30117 2.02031,0 0.85183,0.42592 1.34687,1.34687 2.0203,2.0203 1.34687,1.34687 2.98404,2.45576 4.04061,4.04061 0.37356,0.56034 -0.21296,1.38143 0,2.02031 0.47619,1.42857 1.54412,2.61204 2.02031,4.04061 0.21296,0.63888 -0.47619,1.54411 0,2.0203 0.47619,0.47619 1.71913,-0.60233 2.0203,0 0.60234,1.20468 0,2.69374 0,4.04061 0,0.67344 0.30117,1.41797 0,2.02031 -0.42591,0.85183 -1.59438,1.16847 -2.0203,2.0203 -0.30117,0.60234 0.60234,1.71914 0,2.02031 -1.20468,0.60234 -2.91995,-0.74711 -4.04061,0 -4.94971,9.89942 0.66092,1.68984 -4.04061,4.04061 -8.40803,4.20401 2.15978,-0.13947 -2.02031,4.04061 -0.47619,0.47619 -1.41796,-0.30117 -2.0203,0 -0.85184,0.42592 -1.34687,1.34687 -2.02031,2.0203 -0.67343,0.67344 -1.59438,1.16847 -2.0203,2.02031 -0.30117,0.60234 0.60234,1.71914 0,2.0203 -1.13511,0.56756 -9.20699,-0.59635 -10.10153,0 -1.58486,1.05658 -2.45575,2.98404 -4.04061,4.04062 -0.56033,0.37355 -1.41796,-0.30117 -2.0203,0 -6.70051,6.7005 1.90476,-0.95239 -4.04061,2.0203 -9.24615,4.62307 8.57299,-0.83736 -6.06092,4.04061 -1.27775,0.42592 -2.69374,0 -4.04061,0 -2.69374,0 -5.38748,0 -8.08122,0 -0.67343,0 -1.54411,-0.47619 -2.0203,0 -1.0648,1.06479 -0.95551,2.97582 -2.02031,4.04061 -0.47619,0.47619 -1.34687,0 -2.0203,0 -0.67344,0 -1.34687,0 -2.02031,0 -0.90986,0 -5.44607,0.30742 -6.06091,0 -0.85184,-0.42592 -1.49202,-1.22788 -2.02031,-2.0203 -0.83529,-1.25294 -1.54411,-2.61204 -2.0203,-4.04061 -0.36447,-1.09341 0,-7.39296 0,-8.08123 0,-1.34687 -0.74711,-2.91994 0,-4.04061 0.83529,-1.25294 3.1371,-0.81562 4.04061,-2.0203 1.27775,-1.70367 0.68996,-4.39799 2.0203,-6.06092 1.51683,-1.89603 4.04061,-2.69374 6.06092,-4.04061 5.97844,-3.98563 11.03595,-7.71926 18.18274,-10.10152 5.89015,-1.96338 12.17841,-2.46052 18.18275,-4.04061 6.79937,-1.78931 13.40958,-4.24932 20.20305,-6.06092 3.15932,-0.84248 19.78768,-3.81918 22.22335,-4.04061 3.35335,-0.30485 6.73435,0 10.10153,0 7.40779,0 14.81557,0 22.22336,0 11.44839,0 22.89679,0 34.34518,0 0.74193,0 7.99992,0.0813 8.08122,0 0.47619,-0.47619 0.47619,-1.54411 0,-2.0203 -0.47619,-0.47619 -1.34687,0 -2.0203,0 -0.90986,0 -5.44607,0.30742 -6.06092,0 -0.85183,-0.42592 -1.49202,-1.22788 -2.0203,-2.02031 -0.8353,-1.25294 -1.34687,-2.69374 -2.02031,-4.04061 -1.34687,-1.34687 -2.89775,-2.5168 -4.04061,-4.04061 -1.80701,-2.40935 -2.37002,-5.57534 -4.04061,-8.08122 -0.52828,-0.79243 -1.59439,-1.16847 -2.0203,-2.0203 -0.30117,-0.60234 0.21296,-1.38143 0,-2.02031 -4.87797,-14.63391 0.58246,3.18523 -4.04061,-6.06091 -0.30117,-0.60234 0.30117,-1.41797 0,-2.02031 -0.42592,-0.85183 -1.59439,-1.16847 -2.02031,-2.0203 -0.30117,-0.60234 0.47619,-1.54412 0,-2.02031 -0.47619,-0.47619 -1.34687,0 -2.0203,0 -0.67344,0 -1.54412,-0.47619 -2.02031,0 -0.47619,0.47619 0.60234,1.71914 0,2.02031 -1.20468,0.60234 -2.83593,-0.60234 -4.04061,0 -0.60234,0.30117 0.56033,1.64675 0,2.0203 -1.77192,1.18128 -4.15615,1.06793 -6.06091,2.02031 -0.85184,0.42591 -1.13605,1.6666 -2.02031,2.0203 -2.69165,5.6175 -6.77019,1.18747 -10.10152,2.02031 -2.06601,0.5165 -4.08365,1.22939 -6.06092,2.0203 -2.79629,1.11852 -5.15945,3.31017 -8.08122,4.04061 -1.30666,0.32667 -2.7199,-0.26414 -4.04061,0 -2.08823,0.41765 -3.97268,1.60266 -6.06092,2.02031 -1.32071,0.26414 -2.69374,0 -4.04061,0 -2.0203,0 -4.04061,0 -6.06091,0 -8.08122,0 -16.16244,0 -24.24366,0 -7.40779,0 -14.81557,0 -22.22336,0 -1.61211,0 -8.88945,0.40402 -10.10152,0 -14.63391,-4.87797 3.18522,0.58246 -6.06092,-4.04061 -1.33891,-0.66946 -6.38795,0.56442 -8.08122,0 -1.42857,-0.47619 -2.57972,-1.65509 -4.04061,-2.02031 -1.78235,-0.44559 -6.35051,0.57691 -8.08122,0 -1.42857,-0.47619 -2.61204,-1.54411 -4.04061,-2.0203 -1.0934,-0.36447 -7.39296,0 -8.08122,0 -6.06092,0 -12.12183,0 -18.18275,0 -0.48997,0 -5.99594,0.065 -6.06091,0 -0.47619,-0.47619 0.30117,-1.41797 0,-2.02031 -0.85184,-1.70367 -3.43827,-2.23359 -4.04061,-4.04061 -0.38587,-1.15762 0,-8.20482 0,-10.10152 0,-4.57084 -0.37356,-1.01856 4.04061,-8.08122 2.08118,-3.3299 3.70485,-6.96012 6.06091,-10.10153 1.71429,-2.28571 4.54664,-3.63806 6.06092,-6.06091 1.92207,-3.07532 2.41876,-6.85784 4.04061,-10.10153 0.42592,-0.85184 1.44888,-1.2584 2.0203,-2.02031 15.02573,-20.0343 -3.33992,3.99974 6.06092,-10.10152 0.52829,-0.79243 1.71914,-1.1168 2.0203,-2.02031 0.42592,-1.27775 -0.42591,-2.76285 0,-4.04061 0.30117,-0.9035 1.49202,-1.22787 2.02031,-2.0203 0.83529,-1.25294 0.95551,-2.97582 2.0203,-4.04061 0.4762,-0.47619 1.41797,0.30117 2.02031,0 0.85184,-0.42592 1.16847,-1.59439 2.02031,-2.02031 0.60233,-0.30117 1.54411,0.47619 2.0203,0 0.47619,-0.47619 -0.47619,-1.54411 0,-2.0203 0.47619,-0.47619 1.54411,0.47619 2.02031,0 1.06479,-1.0648 0.95551,-2.97582 2.0203,-4.04061 0.47619,-0.47619 1.38143,0.21296 2.02031,0 1.42857,-0.47619 2.61203,-1.54412 4.04061,-2.02031 0.63887,-0.21296 1.45997,0.37356 2.0203,0 5.01625,-0.20196 3.25926,-6.21344 6.06092,-8.08122 1.12066,-0.74711 3.54039,1.25054 4.04061,0 1.25053,-3.12634 0,-6.73435 0,-10.10152 z"
       id="path5310"
       inkscape:connector-curvature="0"
       inkscape:export-filename="D:\projects\bubblesurviver\img\planet.png"
       inkscape:export-xdpi="9.9637566"
       inkscape:export-ydpi="9.9637566" />
  </g>
</svg>
