<?xml version="1.0" encoding="UTF-8" standalone="no"?>
<!-- Created with Inkscape (http://www.inkscape.org/) -->

<svg
   xmlns:dc="http://purl.org/dc/elements/1.1/"
   xmlns:cc="http://creativecommons.org/ns#"
   xmlns:rdf="http://www.w3.org/1999/02/22-rdf-syntax-ns#"
   xmlns:svg="http://www.w3.org/2000/svg"
   xmlns="http://www.w3.org/2000/svg"
   xmlns:xlink="http://www.w3.org/1999/xlink"
   xmlns:sodipodi="http://sodipodi.sourceforge.net/DTD/sodipodi-0.dtd"
   xmlns:inkscape="http://www.inkscape.org/namespaces/inkscape"
   width="744.09448819"
   height="1052.3622047"
   id="svg2"
   version="1.1"
   inkscape:version="0.48.5 r10040"
   sodipodi:docname="planet.svg">
  <defs
     id="defs4">
    <linearGradient
       id="linearGradient5329">
      <stop
         style="stop-color:#ffffff;stop-opacity:1;"
         offset="0"
         id="stop5331" />
      <stop
         style="stop-color:#5656d9;stop-opacity:1;"
         offset="1"
         id="stop5333" />
    </linearGradient>
    <linearGradient
       id="linearGradient5303">
      <stop
         style="stop-color:#1e3dff;stop-opacity:1;"
         offset="0"
         id="stop5305" />
      <stop
         style="stop-color:#0083dd;stop-opacity:0;"
         offset="1"
         id="stop5307" />
    </linearGradient>
    <radialGradient
       inkscape:collect="always"
       xlink:href="#linearGradient5303"
       id="radialGradient5317"
       cx="426.28436"
       cy="565.47028"
       fx="426.28436"
       fy="565.47028"
       r="307.25348"
       gradientTransform="matrix(1,0,0,0.99999457,0,0.00306875)"
       gradientUnits="userSpaceOnUse" />
    <radialGradient
       inkscape:collect="always"
       xlink:href="#linearGradient5329"
       id="radialGradient5335"
       cx="408.57144"
       cy="480.93557"
       fx="408.57144"
       fy="480.93557"
       r="282.86174"
       gradientTransform="matrix(1,0,0,0.99999312,0,0.00330773)"
       gradientUnits="userSpaceOnUse" />
    <filter
       inkscape:collect="always"
       id="filter5339"
       x="-0.18596521"
       width="1.3719304"
       y="-0.18972459"
       height="1.3794492">
      <feGaussianBlur
         inkscape:collect="always"
         stdDeviation="34.36048"
         id="feGaussianBlur5341" />
    </filter>
    <filter
       inkscape:collect="always"
       id="filter5357">
      <feGaussianBlur
         inkscape:collect="always"
         stdDeviation="24.813983"
         id="feGaussianBlur5359" />
    </filter>
    <filter
       inkscape:collect="always"
       id="filter5373"
       x="-0.13657284"
       width="1.2731457"
       y="-0.12482473"
       height="1.2496495">
      <feGaussianBlur
         inkscape:collect="always"
         stdDeviation="22.632703"
         id="feGaussianBlur5375" />
    </filter>
    <filter
       inkscape:collect="always"
       id="filter5389"
       x="-0.27080716"
       width="1.5416143"
       y="-0.25163551"
       height="1.503271">
      <feGaussianBlur
         inkscape:collect="always"
         stdDeviation="46.464125"
         id="feGaussianBlur5391" />
    </filter>
  </defs>
  <sodipodi:namedview
     id="base"
     pagecolor="#ffffff"
     bordercolor="#666666"
     borderopacity="1.0"
     inkscape:pageopacity="0.0"
     inkscape:pageshadow="2"
     inkscape:zoom="0.35"
     inkscape:cx="729.27731"
     inkscape:cy="372.44897"
     inkscape:document-units="px"
     inkscape:current-layer="layer1"
     showgrid="false"
     inkscape:window-width="1366"
     inkscape:window-height="706"
     inkscape:window-x="-8"
     inkscape:window-y="-8"
     inkscape:window-maximized="1" />
  <metadata
     id="metadata7">
    <rdf:RDF>
      <cc:Work
         rdf:about="">
        <dc:format>image/svg+xml</dc:format>
        <dc:type
           rdf:resource="http://purl.org/dc/dcmitype/StillImage" />
        <dc:title />
      </cc:Work>
    </rdf:RDF>
  </metadata>
  <g
     inkscape:label="Layer 1"
     inkscape:groupmode="layer"
     id="layer1">
    <path
       sodipodi:type="arc"
       style="fill:url(#radialGradient5335);fill-opacity:1;stroke:none"
       id="path5319"
       sodipodi:cx="408.57144"
       sodipodi:cy="480.93362"
       sodipodi:rx="282.85715"
       sodipodi:ry="282.85715"
       d="m 622.56146,295.95677 a 282.85715,282.85715 0 1 1 -46.08719,-42.6562"
       sodipodi:start="5.5703801"
       sodipodi:end="11.631094"
       sodipodi:open="true"
       transform="translate(-24.857143,65.142857)"
       inkscape:export-filename="D:\projects\bubblesurviver\img\planet.png"
       inkscape:export-xdpi="9.5453653"
       inkscape:export-ydpi="9.5453653" />
    <path
       style="fill:#ff954f;stroke:#000000;stroke-width:1px;stroke-linecap:butt;stroke-linejoin:miter;stroke-opacity:1;fill-opacity:1;filter:url(#filter5339)"
       d="m 351.42857,295.21933 c 9.48363,-3.62573 18.73161,-2.85715 28.57143,-2.85715 1.49406,0 10.67731,-0.37563 11.42857,0 1.20468,0.60234 1.90476,1.90476 2.85714,2.85715 9.19701,9.197 -5.55088,-4.20402 8.57143,2.85714 0.85184,0.42592 -0.67343,2.18371 0,2.85714 5.91153,5.91153 -0.23108,-9.0336 5.71429,2.85714 0.37563,0.75127 0,9.93452 0,11.42858 0,10.47619 0,20.95238 0,31.42857 0,0.69293 -0.0919,8.47954 0,8.57143 1.50585,1.50584 4.20844,1.35129 5.71428,2.85714 0.67344,0.67343 -0.85183,2.43122 0,2.85714 1.70368,0.85184 3.8664,-0.46197 5.71429,0 13.79698,3.44925 -0.1416,1.35777 8.57143,5.71429 1.85607,0.92803 12.47338,-0.90617 14.28571,0 1.20468,0.60234 1.65247,2.2548 2.85715,2.85714 2.28571,1.14286 6.28571,-1.14286 8.57142,0 1.20468,0.60234 1.57939,2.43122 2.85715,2.85714 1.80701,0.60234 4.01061,-0.85183 5.71428,0 2.40936,1.20468 3.47296,4.22007 5.71429,5.71429 1.58486,1.05657 3.90727,-0.60234 5.71428,0 20.69548,6.89849 -4.50459,-0.82373 8.57143,5.71428 0.85184,0.42592 2.18371,-0.67343 2.85715,0 0.67343,0.67344 -0.67344,2.18371 0,2.85715 0.67343,0.67343 2.0053,-0.42592 2.85714,0 1.20468,0.60234 1.65246,2.2548 2.85714,2.85714 0.85184,0.42592 2.18371,-0.67344 2.85714,0 0.67344,0.67343 -0.67343,2.18371 0,2.85714 0.96349,0.96349 4.7508,-0.96349 5.71429,0 1.50585,1.50585 1.3513,4.20844 2.85714,5.71429 0.67344,0.67343 2.00531,-0.42592 2.85715,0 2.40935,1.20468 3.47295,4.22007 5.71428,5.71428 1.77193,1.18129 4.20844,1.3513 5.71429,2.85715 0.67343,0.67343 -0.52829,2.06471 0,2.85714 1.49422,2.24133 3.80952,3.80952 5.71428,5.71429 0.95238,0.95238 2.43123,1.57939 2.85715,2.85714 0.60233,1.80701 0,3.80952 0,5.71428 0,0.95238 0,1.90477 0,2.85715 0,0.95238 0.42591,2.0053 0,2.85714 -2.18797,4.37594 -5.09148,2.23433 -8.57143,5.71429 -6.47745,6.47744 1.70425,6.29073 -8.57143,11.42857 -1.70367,0.85183 -3.90727,-0.60234 -5.71429,0 -1.27775,0.42591 -1.57939,2.43122 -2.85714,2.85714 -1.80702,0.60234 -4.01061,-0.85184 -5.71429,0 -0.85183,0.42592 0.85184,2.43122 0,2.85714 -1.70367,0.85184 -4.01061,-0.85183 -5.71428,0 -0.85184,0.42592 0.67343,2.18371 0,2.85715 -6.23935,6.23934 -4.63888,0.59391 -11.42857,2.85714 -1.27776,0.42592 -1.65247,2.2548 -2.85715,2.85714 -0.85183,0.42592 -2.1837,-0.67343 -2.85714,0 -0.67343,0.67344 0.67344,2.18371 0,2.85714 -1.42857,1.42858 -7.14286,-1.42857 -8.57143,0 -0.67343,0.67344 0,1.90477 0,2.85715 0,0.95238 0,1.90476 0,2.85714 0,6.60449 1.63367,1.49694 5.71429,2.85714 2.0203,0.67344 3.64828,2.34064 5.71428,2.85715 2.95969,0.73992 8.1524,0 11.42858,0 0.95238,0 1.90476,0 2.85714,0 0.95238,0 2.00531,-0.42592 2.85714,0 1.20468,0.60233 1.65247,2.2548 2.85714,2.85714 0.73872,0.36936 15.11771,0 17.14286,0 5.71429,0 11.42857,0 17.14286,0 0.95238,0 1.90476,0 2.85714,0 0.95238,0 2.00531,-0.42592 2.85714,0 1.20468,0.60234 1.65247,2.2548 2.85715,2.85714 1.68577,0.84289 6.60619,-0.65508 8.57143,0 2.0203,0.67344 3.69398,2.18371 5.71428,2.85714 1.80702,0.60234 4.01062,-0.85183 5.71429,0 2.40935,1.20468 3.30493,4.50961 5.71428,5.71429 1.79578,0.89789 9.6328,-0.89789 11.42857,0 1.20468,0.60234 1.65247,2.2548 2.85715,2.85714 0.85183,0.42592 1.90476,0 2.85714,0 4.7619,0 9.52381,0 14.28571,0 0.95239,0 1.90477,0 2.85715,0 0.95238,0 2.0053,-0.42592 2.85714,0 1.20468,0.60234 1.90476,1.90476 2.85714,2.85715 0.95238,0.95238 2.25481,1.65246 2.85715,2.85714 0.42591,0.85183 -0.67344,2.18371 0,2.85714 0.67343,0.67344 2.1837,-0.67343 2.85714,0 0.0919,0.0919 0,7.8785 0,8.57143 0,2.85714 -1.27775,6.01592 0,8.57143 0.42592,0.85183 2.18371,-0.67344 2.85714,0 0.95782,0.95782 -0.95782,4.75646 0,5.71428 0.67344,0.67344 2.18371,-0.67343 2.85714,0 0.67344,0.67344 0,1.90477 0,2.85715 0,4.7619 0,9.52381 0,14.28571 0,0.95238 0.67344,2.18371 0,2.85714 -0.67343,0.67344 -2.1837,-0.67343 -2.85714,0 -1.00291,1.00292 0.98676,12.31219 0,14.28572 -0.60234,1.20468 -2.43122,1.57939 -2.85714,2.85714 -0.60234,1.80702 0.85183,4.01062 0,5.71429 -0.42592,0.85183 -2.18371,-0.67344 -2.85714,0 -1.34687,1.34687 0.85183,4.01061 0,5.71428 -0.60234,1.20468 -2.25481,1.65247 -2.85715,2.85715 -0.42591,0.85183 0.85184,2.43122 0,2.85714 -1.70367,0.85183 -4.01061,-0.85184 -5.71428,0 -0.85184,0.42592 0.67343,2.18371 0,2.85714 -0.58411,0.58411 -7.4386,-0.56642 -8.57143,0 -3.07134,1.53567 -5.38317,4.43898 -8.57143,5.71429 -1.76853,0.70741 -3.80952,0 -5.71429,0 -2.85714,0 -5.75316,-0.46971 -8.57142,0 -2.97072,0.49512 -5.64966,2.1267 -8.57143,2.85714 -0.92395,0.23099 -1.90476,0 -2.85715,0 -2.39254,0 -12.11295,-0.54319 -14.28571,0 -13.79698,3.44925 0.1416,1.35777 -8.57143,5.71429 -1.50816,0.75408 -7.32724,-0.82946 -8.57143,0 -7.41478,4.94318 -4.35572,5.10501 -8.57143,11.42857 -1.73393,2.6009 -7.30523,6.03903 -8.57142,8.57143 -0.42592,0.85183 0.67343,2.1837 0,2.85714 -1.50585,1.50584 -4.53301,1.08522 -5.71429,2.85714 -1.05657,1.58486 0.85184,4.01062 0,5.71429 -1.20468,2.40935 -4.22007,3.47296 -5.71429,5.71428 -1.05657,1.58486 1.34687,4.36742 0,5.71429 -1.50584,1.50584 -4.533,1.08522 -5.71428,2.85714 -1.05657,1.58486 0,3.80952 0,5.71429 0,0.95238 0.67343,2.1837 0,2.85714 -0.67344,0.67343 -2.18371,-0.67344 -2.85714,0 -0.96349,0.96349 0.96349,4.7508 0,5.71429 -0.67344,0.67343 -2.18371,-0.67344 -2.85715,0 -1.34687,1.34687 1.34687,4.36741 0,5.71428 -0.67343,0.67344 -2.43122,-0.85183 -2.85714,0 -1.19186,2.38373 1.33032,10.09825 0,11.42857 -1.34687,1.34687 -4.01061,-0.85183 -5.71429,0 -0.85183,0.42592 0.67344,2.18371 0,2.85715 -0.67343,0.67343 -2.0053,-0.42592 -2.85714,0 -11.89074,5.94537 3.05439,-0.19725 -2.85714,5.71428 -1.34687,1.34687 -4.36742,-1.34687 -5.71429,0 -0.67343,0.67344 0.67344,2.18371 0,2.85714 -1.34687,1.34687 -4.36741,-1.34687 -5.71428,0 -5.91153,5.91153 9.0336,-0.23108 -2.85715,5.71429 -1.70367,0.85184 -4.36741,-1.34687 -5.71428,0 -0.67344,0.67343 0.67343,2.18371 0,2.85714 -0.67344,0.67344 -2.18371,-0.67343 -2.85714,0 -1.34687,1.34687 0.85183,4.01062 0,5.71429 -0.60234,1.20468 -2.25481,1.65246 -2.85715,2.85714 -0.42591,0.85184 0.67344,2.18371 0,2.85714 -1.34687,1.34687 -4.01061,-0.85183 -5.71428,0 -1.20468,0.60234 -1.90476,1.90477 -2.85715,2.85715 -2.85714,0 -5.75316,-0.46971 -8.57142,0 -2.97072,0.49512 -5.67562,2.02976 -8.57143,2.85714 -3.77568,1.07877 -7.55523,2.21159 -11.42857,2.85714 -3.7577,0.62628 -7.61905,0 -11.42858,0 -5.71428,0 -11.42857,0 -17.14285,0 -3.80953,0 -7.61905,0 -11.42857,0 -0.95239,0 -1.90477,0 -2.85715,0 -0.95238,0 -2.85714,0.95238 -2.85714,0 0,-0.95238 3.53058,-0.67343 2.85714,0 -1.50584,1.50585 -3.69398,2.18371 -5.71428,2.85715 -1.70363,0.56787 -14.37467,0 -17.14286,0 -0.95238,0 -2.00531,-0.42592 -2.85714,0 -1.20468,0.60233 -1.65247,2.2548 -2.85715,2.85714 -0.85183,0.42592 -1.90476,0 -2.85714,0 -1.90476,0 -3.86639,-0.46197 -5.71428,0 -2.06601,0.5165 -3.64829,2.34064 -5.71429,2.85714 -1.39465,0.34866 -21.74928,0.18464 -22.85714,0 -2.97072,-0.49512 -5.61822,-2.2665 -8.57143,-2.85714 -4.52322,-0.90465 -12.86572,1.06928 -17.14286,0 -2.066,-0.5165 -3.69398,-2.18371 -5.71428,-2.85714 -1.11178,-0.3706 -8.12804,0.44339 -8.57143,0 -0.67344,-0.67344 0.85183,-2.43123 0,-2.85715 -2.25387,-2.5555 -6.01593,1.27776 -8.57143,0 -1.20468,-0.60234 -1.73648,-2.11003 -2.85714,-2.85714 -3.54385,-2.36257 -7.77636,-3.52296 -11.42858,-5.71429 -6.31882,0.27905 -7.46642,-5.93 -11.42857,-8.57142 -1.77192,-1.18129 -3.94236,-1.67586 -5.71428,-2.85715 -8.5838,-5.72253 5.29882,0.67541 -8.57143,-8.57143 -0.79243,-0.52828 -2.18371,0.67344 -2.85714,0 -0.67344,-0.67343 0,-1.90476 0,-2.85714 -0.95239,-1.90476 -1.3513,-4.20844 -2.85715,-5.71428 -1.50584,-1.50585 -4.20844,-1.3513 -5.71428,-2.85715 -1.34687,-1.34687 0.85183,-4.01061 0,-5.71428 -0.60234,-1.20468 -2.25481,-1.65247 -2.85715,-2.85715 -3.5185,-7.037 8.29353,2.57925 -2.85714,-8.57142 -0.67343,-0.67344 -2.18371,0.67343 -2.85714,0 -0.94182,-0.94183 0.68919,-9.36101 0,-11.42858 -0.42592,-1.27775 -2.25481,-1.65246 -2.85714,-2.85714 -0.12178,-0.24356 -0.12178,-11.18501 0,-11.42857 1.98291,-3.96583 5.08377,-2.85714 8.57142,-2.85714 0.95239,0 2.00531,0.42591 2.85715,0 1.20467,-0.60234 1.65246,-2.25481 2.85714,-2.85715 0.85184,-0.42591 2.00531,0.42592 2.85714,0 1.20468,-0.60233 1.65247,-2.2548 2.85715,-2.85714 2.28571,-1.14286 6.28571,1.14286 8.57142,0 1.20468,-0.60234 1.65247,-2.2548 2.85715,-2.85714 0.85183,-0.42592 2.43122,0.85183 2.85714,0 0.85184,-1.70367 -0.60234,-3.90727 0,-5.71429 0.42592,-1.27775 1.90476,-1.90476 2.85714,-2.85714 0.95238,-1.90476 2.18371,-3.69398 2.85715,-5.71429 0.30117,-0.9035 -0.30117,-1.95363 0,-2.85714 5.91153,-17.73459 -0.23109,9.49578 5.71428,-14.28571 0.46197,-1.84789 0,-3.80953 0,-5.71429 0,-4.7619 0,-9.52381 0,-14.28571 0,-2.42398 0.47391,-15.24724 0,-17.14286 -0.5165,-2.066 -2.34064,-3.64828 -2.85714,-5.71429 -0.92395,-3.69578 1.70367,-8.02123 0,-11.42857 -0.42592,-0.85183 -2.00531,0.42592 -2.85714,0 -1.20468,-0.60234 -2.25481,-1.65246 -2.85715,-2.85714 -0.42591,-0.85184 0.42592,-2.00531 0,-2.85714 -0.60234,-1.20468 -2.2548,-1.65247 -2.85714,-2.85715 -3.5185,-7.037 8.29353,2.57925 -2.85714,-8.57142 -0.67344,-0.67344 -2.18371,0.67343 -2.85715,0 -1.97051,-1.97051 -5.34235,-12.79801 -5.71428,-14.28572 -0.23099,-0.92394 0.42592,-2.00531 0,-2.85714 -0.60234,-1.20468 -1.90476,-1.90476 -2.85714,-2.85714 -1.90477,-2.85715 -4.17862,-5.5001 -5.71429,-8.57143 -0.42592,-0.85184 0,-1.90477 0,-2.85715 -0.95238,-1.90476 -1.57939,-4.01061 -2.85714,-5.71428 -1.61625,-2.15499 -4.22007,-3.47296 -5.71429,-5.71429 -0.52828,-0.79243 0,-1.90476 0,-2.85714 -1.90476,-2.85714 -3.65397,-5.82434 -5.71428,-8.57143 -0.80813,-1.07749 -2.25481,-1.65246 -2.85715,-2.85714 -0.42591,-0.85184 0,-1.90476 0,-2.85714 -0.95238,-2.85715 -1.30764,-5.98893 -2.85714,-8.57143 -1.38592,-2.30987 -4.50961,-3.30493 -5.71429,-5.71429 -1.42857,-2.85714 0.71429,-5.71428 0,-8.57143 -0.73044,-2.92177 -2.2665,-5.61822 -2.85714,-8.57143 -0.64363,-3.21813 0,-7.99019 0,-11.42857 0,-3.68533 -0.64695,-18.05914 0,-20 0.67344,-2.0203 1.67586,-3.94236 2.85714,-5.71428 2.85715,-4.28572 5.71429,-2.85715 8.57143,-8.57143 0.85184,-1.70367 -0.85183,-4.01062 0,-5.71429 0.42592,-0.85183 2.18371,0.67344 2.85715,0 0.67343,-0.67343 0,-1.90476 0,-2.85714 0.95238,0 2.0053,0.42592 2.85714,0 11.89074,-5.94537 -3.05439,0.19724 2.85714,-5.71429 0.67344,-0.67343 2.00531,0.42592 2.85714,0 1.20468,-0.60233 1.65247,-2.2548 2.85715,-2.85714 0.85183,-0.42592 2.1837,0.67344 2.85714,0 0.67344,-0.67343 -0.67344,-2.18371 0,-2.85714 1.34687,-1.34687 4.01061,0.85183 5.71429,0 1.20467,-0.60234 1.65246,-2.25481 2.85714,-2.85714 0.85183,-0.42592 1.90476,0 2.85714,0 0.95238,0 1.90476,0 2.85714,0 4.76191,0 9.52381,0 14.28572,0 1.04925,0 11.31359,-0.11498 11.42857,0 0.67344,0.67343 0.67344,2.1837 0,2.85714 -0.67344,0.67343 -2.18371,-0.67344 -2.85714,0 -0.67344,0.67343 0.67343,2.18371 0,2.85714 -5.91153,5.91153 0.23108,-9.0336 -5.71429,2.85714 -0.42592,0.85184 0.67344,2.18371 0,2.85715 -0.67343,0.67343 -2.00531,-0.42592 -2.85714,0 -9.47595,9.47595 2.69374,-1.34687 -5.71429,2.85714 -1.20467,0.60234 -1.65246,2.2548 -2.85714,2.85714 -3.94102,1.97051 -2.55564,-3.46015 -5.71429,2.85715 -1.14285,2.28571 1.14286,6.28571 0,8.57142 -0.60233,1.20468 -2.2548,1.65247 -2.85714,2.85715 -1.14286,2.28571 1.14286,6.28571 0,8.57143 -0.60234,1.20467 -2.2548,1.65246 -2.85714,2.85714 -0.32019,0.64037 0,10.74963 0,11.42857 0,2.02515 0.36936,16.40414 0,17.14286 -0.60234,1.20467 -2.25481,1.65246 -2.85714,2.85714 -0.37563,0.75126 0,9.93451 0,11.42857 0,1.90476 0,3.80952 0,5.71429 0,1.90476 -0.60234,3.90727 0,5.71428 0.42591,1.27776 2.2548,1.65247 2.85714,2.85715 0.85183,1.70367 -1.34687,4.36741 0,5.71428 1.50585,1.50585 4.20844,1.3513 5.71428,2.85714 0.67344,0.67344 -0.42591,2.00531 0,2.85715 0.36132,0.72262 5.35298,4.99166 5.71429,5.71428 0.85184,1.70367 -1.34687,4.36742 0,5.71429 0.67344,0.67343 2.18371,-0.67344 2.85714,0 1.34687,1.34687 -0.85183,4.01061 0,5.71428 1.20468,2.40936 4.86245,3.15878 5.71429,5.71429 0.60234,1.80702 -0.60234,3.90727 0,5.71429 2.97268,8.91805 1.90476,-0.95239 5.71428,2.85714 0.67344,0.67343 -0.42591,2.00531 0,2.85714 3.53058,7.06116 2.85715,-0.98622 2.85715,5.71429 0,0.95238 -0.85184,2.43122 0,2.85714 1.70367,0.85184 4.36741,-1.34687 5.71428,0 1.34687,1.34687 -0.85183,4.01061 0,5.71429 0.42592,0.85183 2.00531,-0.42592 2.85715,0 1.20467,0.60233 1.90476,1.90476 2.85714,2.85714 0.95238,0.95238 2.2548,1.65246 2.85714,2.85714 0.42592,0.85184 -0.42592,2.00531 0,2.85714 0.60234,1.20468 2.25481,1.65247 2.85714,2.85715 0.85184,1.70367 -0.60233,3.90727 0,5.71428 0.67344,2.02031 2.18371,3.69398 2.85715,5.71429 0.60234,1.80701 -0.85184,4.01061 0,5.71428 0.60234,1.20468 2.2548,1.65247 2.85714,2.85715 0.51662,1.03324 0,12.29845 0,14.28571 0,3.96201 0.62725,18.7455 0,20 -0.60234,1.20468 -2.43123,1.57939 -2.85714,2.85714 -0.43561,1.30682 0.63568,10.15721 0,11.42858 -6.53801,13.07602 1.1842,-12.12405 -5.71429,8.57142 -0.60234,1.80702 0.46197,3.8664 0,5.71429 -0.73044,2.92177 -2.1267,5.64966 -2.85714,8.57143 -0.46197,1.84789 0,3.80952 0,5.71428 0,3.80953 0,7.61905 0,11.42858 0,1.49405 -0.37563,10.67731 0,11.42857 0.60234,1.20467 2.2548,1.65246 2.85714,2.85714 0.42592,0.85184 -0.42592,2.00531 0,2.85714 0.60234,1.20468 2.25481,1.65247 2.85714,2.85715 0.42592,0.85183 -0.67343,2.1837 0,2.85714 0.67344,0.67343 2.18371,-0.67344 2.85715,0 1.50584,1.50584 1.67586,3.94236 2.85714,5.71428 2.24133,3.36199 6.3301,5.20944 8.57143,8.57143 0.52828,0.79243 -0.52829,2.06472 0,2.85715 4.94319,7.41478 5.10501,4.35572 11.42857,8.57142 2.24133,1.49422 3.30493,4.50961 5.71429,5.71429 0.85183,0.42592 1.90476,0 2.85714,0 1.90476,0.95238 3.94236,1.67586 5.71428,2.85714 1.12067,0.74711 1.57939,2.43123 2.85715,2.85715 1.80701,0.60233 3.86639,-0.46198 5.71428,0 2.06601,0.5165 3.69398,2.1837 5.71429,2.85714 0.90351,0.30117 1.90476,0 2.85714,0 1.90476,0 3.80953,0 5.71429,0 5.71428,0 11.42857,0 17.14285,0 5.71429,0 11.42858,0 17.14286,0 1.90476,0 3.80953,0 5.71429,0 0.95238,0 2.0053,0.42592 2.85714,0 1.20468,-0.60234 1.57939,-2.43123 2.85714,-2.85714 13.00653,0 0.16341,1.34687 8.57143,-2.85715 1.81698,-0.90849 11.91937,0.78878 14.28572,0 1.27775,-0.42592 1.90476,-1.90476 2.85714,-2.85714 1.90476,-0.95238 3.62605,-2.4395 5.71428,-2.85714 4.66944,-0.93389 9.52381,0 14.28572,0 1.90476,0 3.86639,0.46197 5.71428,0 2.06601,-0.5165 3.80953,-1.90477 5.71429,-2.85715 2.85714,-0.95238 5.61822,-2.2665 8.57143,-2.85714 4.66943,-0.93389 9.5886,0.78285 14.28571,0 2.97072,-0.49512 5.61822,-2.2665 8.57143,-2.85714 15.26399,-3.0528 -6.43023,5.42923 14.28572,-2.85714 1.97727,-0.79091 3.64828,-2.34065 5.71428,-2.85715 1.84789,-0.46197 3.8664,0.46198 5.71429,0 13.79698,-3.44924 -0.14161,-1.35777 8.57143,-5.71428 0.85183,-0.42592 2.1837,0.67343 2.85714,0 0.67343,-0.67344 -0.67344,-2.18371 0,-2.85715 0.67343,-0.67343 2.18371,0.67344 2.85714,0 0.35293,-0.35292 0,-9.63689 0,-11.42857 0,-1.90476 0,-3.80952 0,-5.71428 0,-0.95238 0.30117,-1.95364 0,-2.85715 -1.34687,-4.04061 -4.36741,-7.38796 -5.71428,-11.42857 -0.30117,-0.90351 0.42591,-2.0053 0,-2.85714 -0.60234,-1.20468 -1.90477,-1.90476 -2.85715,-2.85714 -0.95238,-0.95238 -1.73648,-2.11004 -2.85714,-2.85715 -1.77192,-1.18128 -3.69398,-2.1837 -5.71429,-2.85714 -5.27775,-1.75925 -1.35456,4.35972 -8.57142,-2.85714 -0.67344,-0.67344 0.67343,-2.18371 0,-2.85714 -0.67344,-0.67344 -1.95364,0.30116 -2.85715,0 -20.69547,-6.8985 4.5046,0.82372 -8.57143,-5.71429 -0.85183,-0.42592 -2.1837,0.67343 -2.85714,0 -0.67343,-0.67344 0,-1.90476 0,-2.85714 0,-1.28674 -0.43476,-7.70191 0,-8.57143 5.94537,-11.89075 -0.19724,3.05439 5.71429,-2.85714 0.67343,-0.67344 -0.67344,-2.18371 0,-2.85715 0.42364,-0.42364 16.42103,-8.42706 17.14285,-8.57143 2.80166,-0.56033 5.7996,0.69296 8.57143,0 1.30666,-0.32666 1.65247,-2.2548 2.85715,-2.85714 2.69374,-1.34687 5.77514,-1.73863 8.57142,-2.85714 1.97728,-0.79091 3.64829,-2.34064 5.71429,-2.85714 2.77184,-0.69296 5.8609,0.9035 8.57143,0 2.0203,-0.67344 3.69398,-2.18371 5.71428,-2.85715 1.80702,-0.60234 4.01062,0.85184 5.71429,0 1.20468,-0.60234 1.65247,-2.2548 2.85714,-2.85714 1.80249,-0.90124 12.48323,0.90124 14.28572,0 1.20467,-0.60234 1.90476,-1.90476 2.85714,-2.85714 0.95238,-0.95238 1.90476,-1.90477 2.85714,-2.85715 0.95238,-0.95238 1.90476,-1.90476 2.85715,-2.85714 0,-0.95238 -0.67344,-2.18371 0,-2.85714 0.67343,-0.67344 2.0053,0.42592 2.85714,0 2.6152,-1.3076 5.01829,-6.48346 5.71428,-8.57143 0.60234,-1.80702 -1.34687,-4.36742 0,-5.71429 5.91153,-5.91153 -0.23108,9.03361 5.71429,-2.85714 0.85184,-1.70367 -0.85184,-4.01061 0,-5.71428 0.60234,-1.20468 2.2548,-1.65247 2.85714,-2.85715 0.29304,-0.58608 0.40293,-8.1685 0,-8.57143 -0.67343,-0.67343 -2.0053,0.42592 -2.85714,0 -1.20468,-0.60233 -1.65247,-2.2548 -2.85714,-2.85714 -0.85184,-0.42592 -2.00531,0.42592 -2.85715,0 -1.20467,-0.60234 -1.65246,-2.2548 -2.85714,-2.85714 -0.85183,-0.42592 -2.00531,0.42592 -2.85714,0 -6.3173,-3.15865 -0.88663,-1.77327 -2.85714,-5.71429 -0.60234,-1.20467 -1.90477,-1.90476 -2.85715,-2.85714 -0.95238,0 -2.43122,0.85184 -2.85714,0 -0.85184,-1.70367 0.60234,-3.90727 0,-5.71429 -0.42592,-1.27775 -1.90476,-1.90476 -2.85714,-2.85714 -0.95238,-1.90476 -2.4395,-3.62605 -2.85715,-5.71428 -1.18024,-5.90125 1.39342,-17.28347 0,-22.85715 -0.32666,-1.30665 -2.43122,-1.57939 -2.85714,-2.85714 -0.85714,-2.57143 0.85714,-6 0,-8.57143 -0.67343,-2.0203 -2.18371,-3.69398 -2.85714,-5.71428 -0.79905,-2.39715 0.8072,-12.67132 0,-14.28572 -0.60234,-1.20468 -2.25481,-1.65246 -2.85714,-2.85714 -0.43477,-0.86953 0,-7.28469 0,-8.57143 0,-0.95238 0,-1.90476 0,-2.85714 0,-0.95238 0.42591,-2.00531 0,-2.85715 -0.60234,-1.20467 -2.25481,-1.65246 -2.85715,-2.85714 -0.85183,-1.70367 0.85184,-4.01061 0,-5.71428 -0.60234,-1.20468 -1.90476,-1.90477 -2.85714,-2.85715 -0.95238,-0.95238 -1.65247,-2.2548 -2.85714,-2.85714 -1.70367,-0.85184 -4.01062,0.85184 -5.71429,0 -1.20468,-0.60234 -1.65246,-2.2548 -2.85714,-2.85714 -0.85184,-0.42592 -2.00531,0.42591 -2.85714,0 -11.89075,-5.94538 3.05438,0.19724 -2.85715,-5.71429 -0.96349,-0.96349 -4.75079,0.96349 -5.71428,0 -0.67344,-0.67343 0.67343,-2.18371 0,-2.85714 -0.67344,-0.67344 -2.00531,0.42592 -2.85715,0 -1.20467,-0.60234 -1.73647,-2.11004 -2.85714,-2.85714 -14.43373,-9.62249 -0.0662,-0.0221 -8.57143,-2.85715 -20.69547,-6.89849 4.5046,0.82373 -8.57143,-5.71428 -0.85183,-0.42592 -2.1837,0.67343 -2.85714,0 -0.67343,-0.67344 0.67344,-2.18371 0,-2.85715 -0.67343,-0.67343 -2.18371,0.67344 -2.85714,0 -0.67344,-0.67343 0.67343,-2.1837 0,-2.85714 -1.50585,-1.50585 -3.94236,-1.67586 -5.71429,-2.85714 -2.24132,-1.49422 -3.30493,-4.50961 -5.71428,-5.71429 -0.85184,-0.42592 -2.18371,0.67344 -2.85715,0 -0.67343,-0.67343 0.42592,-2.0053 0,-2.85714 -0.60233,-1.20468 -2.2548,-1.65247 -2.85714,-2.85714 -0.42592,-0.85184 0.52829,-2.06472 0,-2.85715 -1.49422,-2.24132 -4.22007,-3.47295 -5.71428,-5.71428 -0.52829,-0.79243 0.42591,-2.00531 0,-2.85714 -6.53801,-13.07603 1.1842,12.12404 -5.71429,-8.57143 -0.30117,-0.90351 0.30117,-1.95364 0,-2.85715 -0.67344,-2.0203 -2.34064,-3.64828 -2.85714,-5.71428 -0.46198,-1.84789 0.60234,-3.90727 0,-5.71429 -0.42592,-1.27775 -2.25481,-1.65246 -2.85715,-2.85714 -0.77079,-1.54158 0.7708,-4.1727 0,-5.71429 -1.97132,-3.94264 -3.74296,-1.77163 -5.71428,-5.71428 -0.76194,-1.52388 0.76194,-4.19041 0,-5.71429 -0.60234,-1.20467 -2.25481,-1.65246 -2.85714,-2.85714 -0.85184,-1.70367 0.60233,-3.90727 0,-5.71429 -0.67344,-2.0203 -2.18371,-3.69398 -2.85715,-5.71428 -0.30117,-0.90351 0.30117,-1.95364 0,-2.85714 -0.67343,-2.02031 -2.1837,-3.69399 -2.85714,-5.71429 -0.30117,-0.90351 0.67344,-2.18371 0,-2.85714 -0.12949,-0.12949 -12.93858,0 -14.28571,0 -9.52381,0 -19.04762,0 -28.57143,0 -1.49406,0 -10.67731,-0.37563 -11.42857,0 -4.96702,2.4835 -9.52381,5.71428 -14.28572,8.57143 z"
       id="path5337"
       inkscape:connector-curvature="0" />
    <path
       style="fill:#00ff00;stroke:#000000;stroke-width:1px;stroke-linecap:butt;stroke-linejoin:miter;stroke-opacity:1;filter:url(#filter5389)"
       d="m 297.14286,312.36218 c -10.73423,-6.68897 -9.01741,6.81533 -14.28572,8.57143 -1.80701,0.60234 -4.12943,-1.05657 -5.71428,0 -1.77193,1.18128 -1.3513,4.20844 -2.85715,5.71429 -1.50584,1.50584 -3.88817,1.76148 -5.71428,2.85714 -2.94451,1.76671 -5.82434,3.65397 -8.57143,5.71429 -8.03613,6.02709 5.27692,0.21868 -11.42857,8.57142 -2.69374,1.34687 -5.98892,1.30764 -8.57143,2.85715 -1.64493,0.98696 -12.68241,12.68241 -14.28571,14.28571 -0.95239,0.95238 -1.90477,1.90476 -2.85715,2.85714 -2.85714,1.90477 -6.14332,3.28619 -8.57143,5.71429 -1.50584,1.50585 -1.57939,4.01061 -2.85714,5.71429 -1.61624,2.15499 -4.03152,3.61082 -5.71428,5.71428 -2.14512,2.68139 -3.65397,5.82434 -5.71429,8.57143 -2.37529,3.16705 -6.37781,5.281 -8.57143,8.57143 -4.07571,6.11356 -2.85714,10.21109 -2.85714,17.14286 0,2.85714 -0.69296,5.79959 0,8.57142 0.32666,1.30666 2.2548,1.65247 2.85714,2.85715 3.52381,7.04762 -8,-1.71429 5.71429,2.85714 1.27775,0.42592 1.73648,2.11003 2.85714,2.85714 1.77192,1.18129 3.69398,2.18371 5.71429,2.85715 0.9035,0.30116 1.90476,0 2.85714,0 4.87009,0 5.11195,-0.30117 11.42857,2.85714 13.07602,6.53801 -12.12405,-1.18421 8.57143,5.71428 0.90351,0.30117 2.00531,-0.42591 2.85714,0 3.53058,1.76529 2.85714,2.75852 2.85714,5.71429 0,0.95238 0.42592,2.00531 0,2.85714 -5.94537,11.89075 0.19725,-3.05438 -5.71428,2.85715 -1.50585,1.50584 -1.67586,3.94236 -2.85714,5.71428 -0.74711,1.12066 -2.25481,1.65247 -2.85715,2.85714 -0.42591,0.85184 0.30117,1.95364 0,2.85715 -1.11328,3.33984 -4.601,8.08872 -5.71428,11.42857 -0.30117,0.90351 0.42591,2.00531 0,2.85714 -0.60234,1.20468 -2.43123,1.57939 -2.85715,2.85714 -0.9035,2.71053 0,5.71429 0,8.57143 0,2.85715 0,5.71429 0,8.57143 0,0.95238 -0.23098,1.9332 0,2.85714 1.25172,5.00687 5.68545,16.63303 8.57143,20 3.09901,3.61551 8.0614,5.20426 11.42857,8.57143 0.0782,0.0782 9.76549,15.47977 17.14286,22.85715 4.32144,4.32143 13.30085,8.52269 17.14286,14.28571 0.52828,0.79243 0,1.90476 0,2.85714 0,1.87692 0.33593,10.75671 0,11.42857 -1.20468,2.40936 -4.37782,3.37547 -5.71429,5.71429 -2.54456,4.45298 -3.63131,9.59902 -5.71428,14.28571 -1.72982,3.89209 -3.64585,7.70538 -5.71429,11.42858 -2.69691,4.85444 -6.31602,9.21105 -8.57143,14.28571 -1.59481,3.58833 -1.39878,7.78266 -2.85714,11.42857 -2.37273,5.93182 -6.11421,11.24554 -8.57143,17.14286 -2.31669,5.56005 -3.80952,11.42857 -5.71428,17.14286 -1.90477,5.71428 -4.12943,11.33171 -5.71429,17.14285 -1.27775,4.6851 -1.52304,9.61636 -2.85714,14.28572 -0.58505,2.04765 -2.4395,3.62605 -2.85715,5.71428 -0.56033,2.80166 0,5.71429 0,8.57143 0,0.95238 -0.30117,1.95364 0,2.85714 2.07162,6.21486 6.95081,9.80795 11.42858,14.28572 0.95238,0.95238 1.90476,1.90476 2.85714,2.85714 0.95238,0.95238 1.65246,2.25481 2.85714,2.85714 0.85184,0.42592 1.95364,-0.30117 2.85714,0 4.04061,1.34687 7.25211,4.879 11.42858,5.71429 2.80165,0.56033 5.71428,0 8.57142,0 3.80953,0 7.61905,0 11.42858,0 13.33333,0 26.66666,0 40,0 8.57142,0 17.14285,0 25.71428,0 4.76191,0 9.52381,0 14.28572,0 0.95238,0 1.95363,0.30117 2.85714,0 2.0203,-0.67344 3.69398,-2.18371 5.71428,-2.85714 0.90351,-0.30117 2.18371,0.67343 2.85715,0 0.67343,-0.67344 -0.67344,-2.18371 0,-2.85715 0.67343,-0.67343 1.90476,0 2.85714,0 0.95238,0 1.90476,0 2.85714,0 9.52381,0 19.04762,0 28.57143,0 0.95238,0 2.18371,0.67344 2.85714,0 2.8496,-2.84959 5.72184,-14.29326 8.57143,-17.14285 0.67344,-0.67344 2.18371,0.67343 2.85715,0 0.67343,-0.67344 -0.67344,-2.18371 0,-2.85715 0.67343,-0.67343 1.90476,0 2.85714,0 8.66972,0 8.69256,-0.37355 20,2.85715 2.04765,0.58504 3.62605,2.43949 5.71428,2.85714 2.86333,0.57267 13.42244,0 17.14286,0 1.90476,0 3.80953,0 5.71429,0 0.95238,0 2.1837,0.67343 2.85714,0 0.67344,-0.67344 0,-1.90476 0,-2.85714 0,-0.95238 0,-1.90477 0,-2.85715 0,-9.52381 0,-19.04762 0,-28.57142 0,-1.90477 0,-3.80953 0,-5.71429 0,-0.95238 -0.67344,-2.18371 0,-2.85714 0.67344,-0.67344 1.90476,0 2.85714,0 2.85715,0 5.71429,0 8.57143,0 11.42857,0 22.85714,0 34.28572,0 0.49547,0 19.40661,0.29669 20,0 1.20467,-0.60234 2.2548,-1.65247 2.85714,-2.85715 0.42592,-0.85183 0,-1.90476 0,-2.85714 0,-3.80952 0,-7.61905 0,-11.42857 0,-5.71429 0,-11.42857 0,-17.14286 0,-1.90476 -0.31314,-3.83544 0,-5.71428 0.64556,-3.87334 2.37009,-7.53213 2.85714,-11.42857 0.47251,-3.78011 0,-7.61905 0,-11.42858 0,-4.7619 0,-9.52381 0,-14.28571 0,-2.55349 0.45525,-13.37522 0,-14.28571 -0.60234,-1.20468 -2.2548,-1.65247 -2.85714,-2.85715 -0.42592,-0.85183 0.67343,-2.18371 0,-2.85714 -1.50585,-1.50585 -3.69398,-2.18371 -5.71429,-2.85714 -0.90351,-0.30117 -2.1837,0.67343 -2.85714,0 -0.67344,-0.67344 0.42592,-2.00531 0,-2.85715 -3.53058,-7.06115 -2.85714,0.98623 -2.85714,-5.71428 0,-0.95238 0,-1.90476 0,-2.85714 0,-0.95239 -0.90351,-2.55598 0,-2.85715 2.71052,-0.90351 5.71428,0 8.57143,0 3.80952,0 7.61904,0 11.42857,0 2.85714,0 5.76977,0.56033 8.57143,0 5.17125,1.72208 5.31378,-4.6284 8.57142,-5.71428 2.06757,-0.68919 10.48675,0.94182 11.42858,0 0.35292,-0.35293 0,-9.63689 0,-11.42857 0,-9.50554 0.35965,-13.20676 -2.85715,-22.85715 -2.13822,-6.41467 -5.31127,-7.76539 -8.57143,-14.28571 -0.42,-0.84 -5.29428,-16.30286 -5.71428,-17.14286 -0.60234,-1.20468 -2.25481,-1.65246 -2.85714,-2.85714 -0.42592,-0.85184 0.67343,-2.18371 0,-2.85714 -0.67344,-0.67344 -2.00531,0.42591 -2.85715,0 -1.20467,-0.60234 -4.06182,-2.25481 -2.85714,-2.85715 2.55551,-1.27775 5.71429,0 8.57143,0 10.47619,0 20.95238,0 31.42857,0 2.85714,0 6.01592,1.27776 8.57143,0 0.85183,-0.42592 0,-1.90476 0,-2.85714 0,-0.95238 0.52828,-2.06471 0,-2.85714 -1.49422,-2.24133 -4.22007,-3.47296 -5.71429,-5.71429 -0.52828,-0.79243 0.52829,-2.06471 0,-2.85714 -2.98843,-4.48266 -8.06304,-7.22166 -11.42857,-11.42857 -2.14511,-2.6814 -3.51598,-5.93347 -5.71428,-8.57143 -4.31123,-5.17347 -10.24511,-8.89824 -14.28572,-14.28572 -1.27775,-1.70367 -1.35129,-4.20844 -2.85714,-5.71428 -1.50585,-1.50585 -4.20844,-1.3513 -5.71429,-2.85714 -1.50584,-1.50585 -1.35129,-4.20844 -2.85714,-5.71429 -0.67344,-0.67344 -2.18371,0.67343 -2.85714,0 -0.67344,-0.67344 0.67343,-2.18371 0,-2.85714 -0.67344,-0.67344 -2.85715,0.95238 -2.85715,0 0,-0.95238 1.90477,0 2.85715,0 0.95238,0 1.90476,0 2.85714,0 0.95238,0 2.00531,0.42591 2.85714,0 1.20468,-0.60234 1.65247,-2.25481 2.85715,-2.85715 1.70367,-0.85183 4.36741,1.34687 5.71428,0 0.67344,-0.67343 0,-1.90476 0,-2.85714 0,-3.80952 0.74711,-7.69302 0,-11.42857 -0.59064,-2.95321 -2.1267,-5.64966 -2.85714,-8.57143 -0.23099,-0.92394 0.30117,-1.95363 0,-2.85714 -0.67344,-2.02031 -1.90476,-3.80953 -2.85714,-5.71429 -0.95239,-1.90476 -1.67586,-3.94236 -2.85715,-5.71428 -0.74711,-1.12067 -2.2548,-1.65247 -2.85714,-2.85715 -0.42592,-0.85183 0.30117,-1.95363 0,-2.85714 -6.89849,-20.69547 0.82372,4.50459 -5.71429,-8.57143 -0.42591,-0.85183 0.85184,-2.43122 0,-2.85714 -1.70367,-0.85184 -4.01061,0.85184 -5.71428,0 -0.85184,-0.42592 0.67343,-2.18371 0,-2.85714 -0.67344,-0.67344 -2.18371,0.67343 -2.85714,0 -0.67344,-0.67344 0.85183,-2.43123 0,-2.85715 -16.19048,0 -0.95239,1.90477 -5.71429,-2.85714 -0.67344,-0.67343 -2.18371,0.67344 -2.85714,0 -1.34687,-1.34687 0.85183,-4.01061 0,-5.71428 -0.60234,-1.20468 -2.25481,-1.65247 -2.85715,-2.85715 -0.42591,-0.85183 0,-1.90476 0,-2.85714 -0.95238,-0.95238 -2.2548,-1.65247 -2.85714,-2.85714 -0.42592,-0.85184 0.67344,-2.18371 0,-2.85715 -0.67343,-0.67343 -2.18371,0.67344 -2.85714,0 -1.42857,-1.42857 1.42857,-7.14285 0,-8.57142 -0.67344,-0.67344 -1.90476,0 -2.85714,0 -0.95239,0 -1.90477,0 -2.85715,0 -2.85714,0 -5.8609,-0.90351 -8.57143,0 -1.27775,0.42591 -1.57939,2.43122 -2.85714,2.85714 -1.80701,0.60234 -4.01061,-0.85184 -5.71428,0 -0.85184,0.42592 0.67343,2.18371 0,2.85714 -1.50585,1.50585 -3.94237,1.67586 -5.71429,2.85714 -1.12066,0.74711 -1.57939,2.43123 -2.85714,2.85715 -16.19048,0 -0.95238,-1.90477 -5.71429,2.85714 -0.67343,0.67343 -2.18371,-0.67344 -2.85714,0 -0.67344,0.67343 0.67343,2.18371 0,2.85714 -0.67344,0.67344 -1.90476,0 -2.85714,0 -0.95239,0 -2.28572,0.76191 -2.85715,0 -2.5555,-3.40734 -3.52295,-7.77635 -5.71428,-11.42857 -0.69296,-1.15493 -1.90476,-1.90476 -2.85715,-2.85714 -1.90476,-0.95238 -4.533,-1.08522 -5.71428,-2.85714 -1.05657,-1.58486 1.05657,-4.12943 0,-5.71429 -1.18128,-1.77193 -4.20844,-1.3513 -5.71429,-2.85714 -1.50584,-1.50585 -1.67586,-3.94236 -2.85714,-5.71429 -0.74711,-1.12066 -2.2548,-1.65246 -2.85714,-2.85714 -0.42592,-0.85184 0.67343,-2.18371 0,-2.85714 -0.67344,-0.67344 -1.90476,0 -2.85715,0 -2.02514,0 -16.40414,-0.36936 -17.14285,0 -1.20468,0.60233 -1.90476,1.90476 -2.85715,2.85714 -1.90476,0 -4.01061,-0.85184 -5.71428,0 -0.85184,0.42592 0.85183,2.43122 0,2.85714 -1.70367,0.85184 -3.90727,-0.60234 -5.71429,0 -8.91806,2.97269 0.95238,1.90476 -2.85714,5.71429 -0.67344,0.67343 -2.18371,-0.67344 -2.85714,0 -0.67344,0.67343 0.95238,2.85714 0,2.85714 -1.90476,0 1.05657,-4.12943 0,-5.71429 -4.43459,-6.65187 -5.48146,-5.71428 -11.42857,-5.71428 -0.95239,0 -2.00531,0.42592 -2.85715,0 -1.20467,-0.60234 -1.90476,-3.80953 -2.85714,-2.85714 -1.34687,1.34687 -1.48737,4.52439 0,5.71428 4.00486,3.20389 9.52381,3.80952 14.28571,5.71429 4.76191,1.90476 9.69844,3.42065 14.28572,5.71428 1.20468,0.60234 1.55049,2.53048 2.85714,2.85715 2.77184,0.69295 5.75316,-0.46972 8.57143,0 2.97072,0.49511 5.64966,2.1267 8.57143,2.85714 0.92394,0.23098 1.95363,-0.30117 2.85714,0 2.02031,0.67343 3.69398,2.18371 5.71429,2.85714 1.80701,0.60234 3.80952,0 5.71428,0 1.90476,0 3.90727,0.60234 5.71429,0 1.27775,-0.42592 1.65246,-2.2548 2.85714,-2.85714 1.70367,-0.85184 4.36742,1.34687 5.71429,0 0.67343,-0.67344 -0.67344,-2.18371 0,-2.85714 0.67343,-0.67344 1.90476,0 2.85714,0 5.71429,0 11.42857,0 17.14286,0 7.61904,0 15.23809,0 22.85714,0 2.3001,0 9.63528,-0.59777 11.42857,0 2.02031,0.67343 3.64828,2.34064 5.71429,2.85714 1.84789,0.46197 3.90727,-0.60234 5.71428,0 1.27776,0.42592 1.65247,2.2548 2.85715,2.85714 1.79577,0.89789 9.63279,-0.89789 11.42857,0 1.20467,0.60234 1.65246,2.25481 2.85714,2.85714 1.70367,0.85184 4.36742,-1.34687 5.71429,0 0.67343,0.67344 0,1.90477 0,2.85715 0,0.69293 0.0919,8.47954 0,8.57143 -0.67344,0.67343 -2.18371,-0.67344 -2.85715,0 -0.67343,0.67343 0.67344,2.1837 0,2.85714 -0.67343,0.67343 -2.1837,-0.67344 -2.85714,0 -0.67344,0.67343 0.67344,2.18371 0,2.85714 -0.67344,0.67344 -2.18371,-0.67343 -2.85714,0 -0.67344,0.67344 0.42591,2.00531 0,2.85714 -0.60234,1.20468 -2.25481,1.65247 -2.85715,2.85715 -0.42591,0.85183 0,1.90476 0,2.85714 0,0.95238 0,1.90476 0,2.85714 0,0.95238 0,1.90476 0,2.85715 0,0.95238 -0.67343,2.1837 0,2.85714 0.84538,0.84538 9.65882,-0.88488 11.42858,0 1.20467,0.60234 1.90476,1.90476 2.85714,2.85714 1.90476,0 3.90727,-0.60234 5.71428,0 1.27776,0.42592 1.90477,1.90476 2.85715,2.85714 1.90476,0.95238 3.64828,2.34065 5.71428,2.85715 2.83395,0.70848 15.17085,-0.98601 17.14286,0 0.85184,0.42591 -0.67344,2.1837 0,2.85714 0.67344,0.67343 2.00531,-0.42592 2.85714,0 1.20468,0.60234 1.90476,1.90476 2.85715,2.85714 0.95238,0.95238 2.2548,1.65247 2.85714,2.85715 0.42592,0.85183 -0.42592,2.0053 0,2.85714 9.47595,9.47595 -1.34687,-2.69374 2.85714,5.71428 1.20468,2.40936 4.86245,3.15878 5.71429,5.71429 0.60234,1.80702 -0.60234,3.90727 0,5.71429 0.42591,1.27775 2.43122,1.57939 2.85714,2.85714 0.0625,0.18762 0.0625,14.09809 0,14.28571 -0.42592,1.27776 -1.90476,1.90476 -2.85714,2.85715 -0.95238,0.95238 -1.57939,2.43122 -2.85715,2.85714 -1.80701,0.60234 -4.12942,-1.05657 -5.71428,0 -1.77193,1.18128 -1.3513,4.20844 -2.85714,5.71428 -0.67344,0.67344 -1.95364,-0.30117 -2.85715,0 -2.0203,0.67344 -3.94236,1.67586 -5.71428,2.85715 -5.66017,-0.28521 -1.3513,4.20844 -2.85715,5.71428 -5.91153,5.91153 0.23109,-9.0336 -5.71428,2.85715 -0.85184,1.70367 0.60234,3.90727 0,5.71428 -0.67344,2.02031 -2.18371,3.69398 -2.85714,5.71429 -0.89726,2.69175 0.9262,15.29044 0,17.14285 -0.60234,1.20468 -1.65247,2.25481 -2.85715,2.85715 -0.85183,0.42591 -2.43122,-0.85184 -2.85714,0 -0.85184,1.70367 0.60234,3.90727 0,5.71428 -0.85184,2.55551 -4.50961,3.30493 -5.71429,5.71429 -0.42591,0.85183 0.42592,2.00531 0,2.85714 -1.71428,3.42857 -6.85714,5.14286 -8.57142,8.57143 -0.42592,0.85184 0.30117,1.95363 0,2.85714 -6.8985,20.69548 0.82372,-4.50459 -5.71429,8.57143 -0.37563,0.75126 0,9.93451 0,11.42857 0,0.95238 -0.67344,2.18371 0,2.85715 5.91153,5.91153 -0.23109,-9.03361 5.71429,2.85714 0.42591,0.85183 0,1.90476 0,2.85714 1.90476,1.90476 4.22006,3.47296 5.71428,5.71429 0.52829,0.79243 -0.67343,2.1837 0,2.85714 0.67344,0.67343 2.00531,-0.42592 2.85714,0 11.89075,5.94537 -3.05438,-0.19724 2.85715,5.71429 0.67343,0.67343 2.43122,-0.85184 2.85714,0 1.27775,2.5555 0,5.71428 0,8.57142 0,1.90477 0.60234,3.90727 0,5.71429 -0.67344,2.0203 -1.57939,4.01061 -2.85714,5.71429 -0.21136,0.2818 -9.90021,10.40966 -11.42857,11.42857 -1.77193,1.18128 -3.94237,1.67586 -5.71429,2.85714 -2.24133,1.49422 -3.30493,4.50961 -5.71429,5.71429 -2.28571,1.14285 -6.28571,-1.14286 -8.57142,0 -0.85184,0.42591 0.67343,2.1837 0,2.85714 -0.67344,0.67343 -2.00531,-0.42592 -2.85715,0 -0.24521,0.12261 -10.14647,6.00724 -11.42857,8.57143 -0.42592,0.85183 0,1.90476 0,2.85714 0,0.95238 0,1.90476 0,2.85714 0,5.62892 -0.0943,8.3828 2.85714,14.28572 0.60234,1.20467 2.04903,1.77964 2.85715,2.85714 2.06031,2.74709 3.65397,5.82434 5.71428,8.57143 0.80812,1.07749 2.25481,1.65246 2.85715,2.85714 0.42591,0.85184 -0.30117,1.95364 0,2.85714 0.67343,2.02031 2.1837,3.69398 2.85714,5.71429 0.30117,0.90351 -0.42592,2.00531 0,2.85714 0.60234,1.20468 2.2548,1.65247 2.85714,2.85715 0.85184,1.70367 -0.85183,4.01061 0,5.71428 0.60234,1.20468 2.53048,1.55049 2.85714,2.85714 0.84866,3.39463 0,10.18388 0,14.28572 0,1.87692 0.33593,10.75671 0,11.42857 -0.42591,0.85184 -2.1837,-0.67344 -2.85714,0 -1.34687,1.34687 0.85184,4.01061 0,5.71429 -0.27346,0.54691 -10.88165,11.15511 -11.42857,11.42857 -0.85184,0.42591 -2.00531,-0.42592 -2.85714,0 -1.20468,0.60234 -1.57939,2.43122 -2.85715,2.85714 -1.80701,0.60234 -3.80952,0 -5.71428,0 -0.95238,0 -2.00531,-0.42592 -2.85714,0 -1.20468,0.60234 -1.65247,2.2548 -2.85715,2.85714 -0.85183,0.42592 -1.90476,0 -2.85714,0 -0.95238,0 -1.90476,0 -2.85714,0 -2.85715,0 -5.71429,0 -8.57143,0 -2.85714,0 -5.71429,0 -8.57143,0 -2.85714,0 -5.75316,0.46971 -8.57143,0 -7.73359,4.85592 -7.38796,-4.36741 -11.42857,-5.71428 -1.80702,-0.60234 -3.8664,0.46197 -5.71429,0 -7.81586,-1.95397 -4.59774,-4.01755 -11.42857,-8.57143 -0.79243,-0.52829 -2.0053,0.42592 -2.85714,0 -1.20468,-0.60234 -1.65247,-2.25481 -2.85714,-2.85714 -1.13284,-0.56642 -7.98733,0.5841 -8.57143,0 -0.67344,-0.67344 0.67343,-2.18371 0,-2.85715 -0.67344,-0.67343 -1.90476,0 -2.85714,0 -0.95239,0 -2.18371,-0.67343 -2.85715,0 -0.67343,0.67344 0.42592,2.00531 0,2.85715 -0.60234,1.20467 -2.2548,1.65246 -2.85714,2.85714 -0.42592,0.85183 0.42592,2.00531 0,2.85714 -0.60234,1.20468 -2.2548,1.65247 -2.85714,2.85714 -0.42592,0.85184 0.42591,2.00531 0,2.85715 -0.60234,1.20467 -2.11004,1.73648 -2.85715,2.85714 -1.18128,1.77192 -1.57939,4.01061 -2.85714,5.71429 -1.61624,2.15499 -4.22007,3.47295 -5.71428,5.71428 -0.52829,0.79243 0.67343,2.18371 0,2.85714 -0.67344,0.67344 -2.18371,-0.67343 -2.85715,0 -5.91153,5.91153 9.0336,-0.23108 -2.85714,5.71429 -0.85184,0.42592 -2.00531,-0.42592 -2.85714,0 -1.20468,0.60234 -1.73648,2.11003 -2.85715,2.85714 -1.77192,1.18129 -3.94236,1.67586 -5.71428,2.85715 -1.12067,0.7471 -1.65247,2.2548 -2.85714,2.85714 -1.70368,0.85183 -4.36742,-1.34687 -5.71429,0 -0.67344,0.67343 0.67344,2.18371 0,2.85714 -0.67344,0.67344 -1.90476,0 -2.85714,0 -2.69097,0 -12.6604,-0.54177 -14.28572,0 -1.27775,0.42592 -1.65246,2.25481 -2.85714,2.85714 -0.85184,0.42592 -1.90476,0 -2.85714,0 -1.90476,0 -3.90727,-0.60233 -5.71429,0 -1.27775,0.42592 -1.65246,2.25481 -2.85714,2.85715 -1.54997,0.77498 -10.6468,-0.78178 -11.42857,0 -0.67344,0.67343 0.67343,2.1837 0,2.85714 -1.34687,1.34687 -4.36742,-1.34687 -5.71429,0 -0.67343,0.67343 0.67344,2.18371 0,2.85714 -0.67343,0.67344 -1.90476,0 -2.85714,0 -2.57533,0 -12.48743,0.59943 -14.28572,0 -20.69547,-6.89849 4.5046,0.82373 -8.57142,-5.71428 -0.85184,-0.42592 -2.00531,0.42591 -2.85715,0 -1.20467,-0.60234 -1.73648,-2.11004 -2.85714,-2.85715 -1.77192,-1.18128 -3.94236,-1.67586 -5.71429,-2.85714 -1.12066,-0.74711 -1.65246,-2.2548 -2.85714,-2.85714 -0.85183,-0.42592 -1.90476,0 -2.85714,0 -1.90476,0 -3.90727,0.60234 -5.71429,0 -1.27775,-0.42592 -1.65246,-2.25481 -2.85714,-2.85714 -0.85184,-0.42592 -1.90476,0 -2.85714,0 -0.95238,-0.95239 -1.65247,-2.25481 -2.85715,-2.85715 -0.85183,-0.42592 -2.1837,0.67344 -2.85714,0 -0.67343,-0.67343 0.67344,-2.18371 0,-2.85714 -0.67343,-0.67344 -1.90476,0 -2.85714,0 -6.66667,0 -13.33333,0 -20,0 -0.95238,0 -1.90476,0 -2.85714,0 -0.95239,0 -2.18371,0.67343 -2.85715,0 -0.67343,-0.67344 0.42592,-2.00531 0,-2.85714 -0.27345,-0.54692 -10.88165,-11.15512 -11.42857,-11.42857 -0.85183,-0.42592 -2.18371,0.67343 -2.85714,0 -1.34687,-1.34687 0.85183,-4.01062 0,-5.71429 -0.60234,-1.20468 -2.25481,-1.65247 -2.85714,-2.85714 -0.42592,-0.85184 0.30117,-1.95364 0,-2.85715 -0.67344,-2.0203 -2.18371,-3.69398 -2.85715,-5.71428 -0.53733,-1.612 0,-6.69398 0,-8.57143 0,-5.71429 0,-11.42857 0,-17.14286 0,-0.95238 0,-1.90476 0,-2.85714 0,-0.95238 -0.67343,-2.18371 0,-2.85714 0.67344,-0.67344 2.18371,0.67343 2.85715,0 1.42857,-1.42857 -1.42858,-7.14286 0,-8.57143 0.67343,-0.67344 1.90476,0 2.85714,0 0.95238,-1.90476 1.90476,-3.80953 2.85714,-5.71429 0.95238,-1.90476 2.18371,-3.69398 2.85714,-5.71428 0.30117,-0.90351 -0.67343,-2.18371 0,-2.85715 0.67344,-0.67343 2.00531,0.42592 2.85715,0 3.717,-1.8585 1.99728,-3.85578 5.71428,-5.71428 0.85184,-0.42592 2.00531,0.42592 2.85715,0 9.47595,-9.47595 -2.69374,1.34687 5.71428,-2.85714 1.20468,-0.60234 1.65247,-2.25481 2.85714,-2.85715 1.70368,-0.85183 4.01062,0.85184 5.71429,0 2.28971,-1.14485 3.42458,-4.56943 5.71429,-5.71428 0.85183,-0.42592 2.1837,0.67343 2.85714,0 1.34687,-1.34687 -0.85184,-4.01062 0,-5.71429 0.60234,-1.20468 2.2548,-1.65246 2.85714,-2.85714 0.84289,-1.68577 -0.65508,-6.6062 0,-8.57143 0.67344,-2.02031 2.34064,-3.64828 2.85714,-5.71429 0.69296,-2.77183 0,-5.71428 0,-8.57142 0,-4.76191 0,-9.52381 0,-14.28572 0,-0.95238 0.67344,-2.18371 0,-2.85714 -0.67343,-0.67344 -1.90476,0 -2.85714,0 0,-1.90476 0.85184,-4.01062 0,-5.71429 -0.42592,-0.85183 -1.90476,0 -2.85714,0 -0.95238,0 -1.90476,0 -2.85714,0 -2.5535,0 -13.37522,0.45525 -14.28572,0 -1.20468,-0.60234 -1.65246,-2.2548 -2.85714,-2.85714 -0.85184,-0.42592 -2.18371,0.67343 -2.85714,0 -1.50585,-1.50585 -1.67586,-3.94236 -2.85715,-5.71429 -0.74711,-1.12066 -2.2548,-1.65246 -2.85714,-2.85714 -2.85714,-5.71428 5.71429,0 0,-8.57143 -1.18128,-1.77192 -4.20844,-1.35129 -5.71429,-2.85714 -0.11497,-0.11498 0,-10.37932 0,-11.42857 0,-3.41604 -0.62158,-15.27811 0,-17.14286 0.67344,-2.0203 2.18371,-3.69398 2.85715,-5.71428 0.30117,-0.90351 -0.42592,-2.00531 0,-2.85715 0.60234,-1.20467 2.43122,-1.57939 2.85714,-2.85714 0.64791,-1.94372 -0.75748,-12.77074 0,-14.28571 0.60234,-1.20468 2.2548,-1.65247 2.85714,-2.85715 0.42592,-0.85183 0,-1.90476 0,-2.85714 0,-1.90476 -0.60234,-3.90727 0,-5.71429 0.42592,-1.27775 2.25481,-1.65246 2.85715,-2.85714 0.36935,-0.73871 0,-15.11771 0,-17.14286 0,-0.95238 0,-1.90476 0,-2.85714 0,-0.95238 0.67343,-2.18371 0,-2.85714 -1.50585,-1.50585 -4.20844,-1.3513 -5.71429,-2.85714 -0.67344,-0.67344 0.42592,-2.00531 0,-2.85715 -0.60234,-1.20467 -2.11003,-1.73648 -2.85714,-2.85714 -0.35481,-0.5322 -5.5312,-11.24549 -5.71429,-11.42857 -0.67343,-0.67344 -2.00531,0.42592 -2.85714,0 -3.68034,-1.84017 -9.91317,-12.39146 -11.42857,-14.28572 -1.68277,-2.10345 -4.22007,-3.47295 -5.71429,-5.71428 -0.52828,-0.79243 0.30117,-1.95364 0,-2.85714 -0.67343,-2.02031 -1.67586,-3.94237 -2.85714,-5.71429 -1.49422,-2.24133 -4.50961,-3.30493 -5.71429,-5.71429 -0.89789,-1.79577 0.89789,-9.63279 0,-11.42857 -0.60234,-1.20467 -2.2548,-1.65246 -2.85714,-2.85714 -0.64456,-1.28913 0.14594,-8.27955 0,-8.57143 -0.42592,-0.85183 -2.43123,0.85184 -2.85714,0 -0.85184,-1.70367 0.60234,-3.90727 0,-5.71428 -0.42592,-1.27776 -2.25481,-1.65247 -2.85715,-2.85715 -0.42591,-0.85183 0,-1.90476 0,-2.85714 0,-0.95238 -0.67343,-2.18371 0,-2.85714 0.67344,-0.67344 2.18371,0.67343 2.85715,0 0.67343,-0.67344 -0.79243,-2.32886 0,-2.85715 4.73747,-3.15831 7.05785,-2.85714 11.42857,-2.85714 0.95238,0 1.95363,0.30117 2.85714,0 2.02031,-0.67343 3.69398,-2.18371 5.71429,-2.85714 0.90351,-0.30117 1.90476,0 2.85714,0 1.90476,0 3.80952,0 5.71429,0 4.7619,0 9.52381,0 14.28571,0 1.98726,0 13.25248,0.51662 14.28571,0 3.96584,-1.98292 2.85715,-5.08377 2.85715,-8.57143 0,-0.95238 -0.42592,-2.00531 0,-2.85714 6.53801,-13.07602 -1.18421,12.12404 5.71428,-8.57143 0.60234,-1.80702 -1.34687,-4.36742 0,-5.71429 0.67344,-0.67343 2.18371,0.67344 2.85715,0 1.34687,-1.34687 -1.34687,-4.36741 0,-5.71428 1.34687,-1.34687 4.01061,0.85183 5.71428,0 8.71303,-4.35652 -5.22555,-2.26504 8.57143,-5.71429 1.84789,-0.46197 4.01061,0.85184 5.71429,0 28.07482,-14.03741 -6.25487,-5.03474 25.71428,-11.42857"
       id="path5379"
       inkscape:connector-curvature="0" />
    <path
       style="fill:none;stroke:#000000;stroke-width:1px;stroke-linecap:butt;stroke-linejoin:miter;stroke-opacity:1"
       d="M 1674.2857,740.93361"
       id="path5393"
       inkscape:connector-curvature="0" />
  </g>
</svg>
